STARTFONT 2.1
COMMENT
COMMENT Converted from OpenType font "SourceCodePro-Regular.otf" by "otf2bdf 3.0".
COMMENT
FONT -FreeType-Source Code Pro-Medium-R-Normal--28-200-100-100-P-121-ISO10646-1
SIZE 20 100 100
FONTBOUNDINGBOX 20 34 -1 -7
STARTPROPERTIES 19
FOUNDRY "FreeType"
FAMILY_NAME "Source Code Pro"
WEIGHT_NAME "Medium"
SLANT "R"
SETWIDTH_NAME "Normal"
ADD_STYLE_NAME ""
PIXEL_SIZE 28
POINT_SIZE 200
RESOLUTION_X 100
RESOLUTION_Y 100
SPACING "P"
AVERAGE_WIDTH 121
CHARSET_REGISTRY "ISO10646"
CHARSET_ENCODING "1"
FONT_ASCENT 27
FONT_DESCENT 7
COPYRIGHT "Copyright 2010, 2012 Adobe Systems Incorporated. All Rights Reserved."
_OTF_FONTFILE "SourceCodePro-Regular.otf"
_OTF_PSNAME "SourceCodePro-Regular"
ENDPROPERTIES
CHARS 657
STARTCHAR 0020
ENCODING 32
SWIDTH 612 0
DWIDTH 17 0
BBX 0 0 0 0
BITMAP
ENDCHAR
STARTCHAR 0021
ENCODING 33
SWIDTH 612 0
DWIDTH 17 0
BBX 4 19 6 0
BITMAP
60
60
60
60
60
60
60
60
60
60
60
20
00
00
00
70
F0
F0
70
ENDCHAR
STARTCHAR 0022
ENCODING 34
SWIDTH 612 0
DWIDTH 17 0
BBX 9 9 4 10
BITMAP
E380
E380
E380
E380
C380
C380
C380
C180
C100
ENDCHAR
STARTCHAR 0023
ENCODING 35
SWIDTH 612 0
DWIDTH 17 0
BBX 12 18 2 0
BITMAP
0C60
0860
0840
0840
0840
7FF0
7FF0
18C0
18C0
10C0
10C0
FFF0
FFF0
3080
3080
3180
3180
3180
ENDCHAR
STARTCHAR 0024
ENCODING 36
SWIDTH 612 0
DWIDTH 17 0
BBX 11 24 3 -3
BITMAP
0400
0400
0400
0400
1F00
7FC0
60C0
C000
C000
E000
7800
3F00
07C0
01E0
00E0
0060
8060
E0E0
FFC0
3F00
0400
0400
0400
0400
ENDCHAR
STARTCHAR 0025
ENCODING 37
SWIDTH 612 0
DWIDTH 17 0
BBX 15 18 1 0
BITMAP
3C00
6E04
C60C
C218
8230
C220
C640
6E00
3800
0078
00CC
0D86
1986
3186
6186
C086
40CC
0078
ENDCHAR
STARTCHAR 0026
ENCODING 38
SWIDTH 612 0
DWIDTH 17 0
BBX 15 19 1 0
BITMAP
0F00
1F80
18C0
30C0
30C0
3180
1B80
1F00
1E00
3C06
760C
670C
E398
C1D8
C0F0
E070
70FC
3FDE
1F06
ENDCHAR
STARTCHAR 0027
ENCODING 39
SWIDTH 612 0
DWIDTH 17 0
BBX 3 9 7 10
BITMAP
E0
E0
E0
E0
E0
E0
C0
C0
C0
ENDCHAR
STARTCHAR 0028
ENCODING 40
SWIDTH 612 0
DWIDTH 17 0
BBX 7 25 6 -5
BITMAP
06
0E
1C
38
30
60
60
E0
C0
C0
C0
C0
C0
C0
C0
C0
C0
60
60
70
30
18
1C
0E
06
ENDCHAR
STARTCHAR 0029
ENCODING 41
SWIDTH 612 0
DWIDTH 17 0
BBX 7 25 4 -5
BITMAP
80
E0
60
30
18
18
0C
0C
0C
06
06
06
06
06
06
06
0C
0C
0C
18
38
30
60
C0
80
ENDCHAR
STARTCHAR 002A
ENCODING 42
SWIDTH 612 0
DWIDTH 17 0
BBX 11 11 3 9
BITMAP
0400
0400
0C00
8C40
FFE0
3F80
0E00
1F00
3300
3180
2080
ENDCHAR
STARTCHAR 002B
ENCODING 43
SWIDTH 612 0
DWIDTH 17 0
BBX 12 12 2 3
BITMAP
0600
0600
0600
0600
0600
FFF0
FFF0
0600
0600
0600
0600
0600
ENDCHAR
STARTCHAR 002C
ENCODING 44
SWIDTH 612 0
DWIDTH 17 0
BBX 5 10 6 -6
BITMAP
70
F8
F8
78
18
18
30
70
E0
80
ENDCHAR
STARTCHAR 002D
ENCODING 45
SWIDTH 612 0
DWIDTH 17 0
BBX 9 2 4 7
BITMAP
FF80
FF80
ENDCHAR
STARTCHAR 002E
ENCODING 46
SWIDTH 612 0
DWIDTH 17 0
BBX 5 5 6 0
BITMAP
60
F0
F8
F0
70
ENDCHAR
STARTCHAR 002F
ENCODING 47
SWIDTH 612 0
DWIDTH 17 0
BBX 11 24 3 -4
BITMAP
0060
00C0
00C0
00C0
0180
0180
0300
0300
0300
0600
0600
0600
0C00
0C00
1800
1800
1800
3000
3000
3000
6000
6000
C000
C000
ENDCHAR
STARTCHAR 0030
ENCODING 48
SWIDTH 612 0
DWIDTH 17 0
BBX 13 18 2 0
BITMAP
0F80
3FC0
30E0
6070
6030
C030
C030
C738
C718
C718
C638
C030
E030
6030
6070
30E0
3FC0
0F80
ENDCHAR
STARTCHAR 0031
ENCODING 49
SWIDTH 612 0
DWIDTH 17 0
BBX 12 18 3 0
BITMAP
0E00
7E00
7E00
0600
0600
0600
0600
0600
0600
0600
0600
0600
0600
0600
0600
0600
FFF0
FFF0
ENDCHAR
STARTCHAR 0032
ENCODING 50
SWIDTH 612 0
DWIDTH 17 0
BBX 13 18 2 0
BITMAP
1F00
7FC0
E0E0
4060
0060
0070
0060
0060
00E0
01C0
0180
0300
0600
1C00
3800
7000
FFF8
FFF8
ENDCHAR
STARTCHAR 0033
ENCODING 51
SWIDTH 612 0
DWIDTH 17 0
BBX 12 18 2 0
BITMAP
1F80
7FC0
E0E0
4070
0070
0070
0060
01C0
0F80
0FC0
00E0
0030
0030
0030
8030
E0F0
7FE0
1F80
ENDCHAR
STARTCHAR 0034
ENCODING 52
SWIDTH 612 0
DWIDTH 17 0
BBX 14 18 1 0
BITMAP
0060
00E0
01E0
0360
0760
0660
0C60
1860
3860
3060
6060
FFFC
FFFC
0060
0060
0060
0060
0060
ENDCHAR
STARTCHAR 0035
ENCODING 53
SWIDTH 612 0
DWIDTH 17 0
BBX 12 18 2 0
BITMAP
3FF0
7FF0
7000
6000
6000
6000
6700
7FE0
60F0
0070
0030
0030
0030
0030
8070
E0E0
7FC0
1F80
ENDCHAR
STARTCHAR 0036
ENCODING 54
SWIDTH 612 0
DWIDTH 17 0
BBX 13 18 2 0
BITMAP
07C0
1FF0
3830
7000
6000
6000
E000
C7C0
DFE0
F070
E038
C018
E018
6038
6030
3070
1FE0
0F80
ENDCHAR
STARTCHAR 0037
ENCODING 55
SWIDTH 612 0
DWIDTH 17 0
BBX 13 18 2 0
BITMAP
FFF8
FFF8
0030
0060
00C0
00C0
0180
0180
0300
0300
0700
0600
0600
0600
0600
0E00
0E00
0E00
ENDCHAR
STARTCHAR 0038
ENCODING 56
SWIDTH 612 0
DWIDTH 17 0
BBX 13 18 2 0
BITMAP
0F80
3FE0
7060
6030
6030
6030
3060
3C60
0FC0
3BC0
60F0
C030
C038
C018
C038
6070
7FE0
1F80
ENDCHAR
STARTCHAR 0039
ENCODING 57
SWIDTH 612 0
DWIDTH 17 0
BBX 13 18 2 0
BITMAP
1F00
3FC0
70E0
E070
C030
C030
C030
C038
E0F8
7FF8
1F30
0030
0030
0070
0060
61E0
7FC0
3F00
ENDCHAR
STARTCHAR 003A
ENCODING 58
SWIDTH 612 0
DWIDTH 17 0
BBX 5 15 6 0
BITMAP
60
F0
F8
F0
70
00
00
00
00
00
60
F0
F8
F0
70
ENDCHAR
STARTCHAR 003B
ENCODING 59
SWIDTH 612 0
DWIDTH 17 0
BBX 5 20 6 -6
BITMAP
70
F0
F8
F0
60
00
00
00
00
00
70
F8
F8
78
18
18
30
70
E0
80
ENDCHAR
STARTCHAR 003C
ENCODING 60
SWIDTH 612 0
DWIDTH 17 0
BBX 11 16 3 1
BITMAP
0020
0060
01E0
0380
0F00
1C00
7800
E000
E000
7000
1C00
0E00
0380
01C0
00E0
0020
ENDCHAR
STARTCHAR 003D
ENCODING 61
SWIDTH 612 0
DWIDTH 17 0
BBX 12 8 2 5
BITMAP
FFF0
FFF0
0000
0000
0000
0000
FFF0
FFF0
ENDCHAR
STARTCHAR 003E
ENCODING 62
SWIDTH 612 0
DWIDTH 17 0
BBX 10 15 3 2
BITMAP
C000
E000
3800
1C00
0700
0380
01C0
00C0
03C0
0700
1E00
3800
F000
C000
8000
ENDCHAR
STARTCHAR 003F
ENCODING 63
SWIDTH 612 0
DWIDTH 17 0
BBX 10 19 3 0
BITMAP
1F00
7F80
E1C0
00C0
00C0
00C0
01C0
0380
0700
0E00
0C00
0C00
0000
0000
0000
1E00
1E00
1E00
0C00
ENDCHAR
STARTCHAR 0040
ENCODING 64
SWIDTH 612 0
DWIDTH 17 0
BBX 14 22 1 -4
BITMAP
0080
07F0
1C38
3808
300C
600C
6004
601C
40FC
C38C
C70C
C60C
C60C
C71C
43F4
60C0
6000
3000
3000
1808
0FF8
03E0
ENDCHAR
STARTCHAR 0041
ENCODING 65
SWIDTH 612 0
DWIDTH 17 0
BBX 15 19 1 0
BITMAP
0380
0380
0780
06C0
06C0
0CC0
0C60
0C60
1860
1830
1830
3FF0
3FF8
3018
7018
601C
600C
E00C
C00E
ENDCHAR
STARTCHAR 0042
ENCODING 66
SWIDTH 612 0
DWIDTH 17 0
BBX 12 19 3 0
BITMAP
FF00
FFC0
C0E0
C060
C060
C060
C0E0
C0C0
FF80
FFC0
C0E0
C070
C030
C030
C030
C070
C0E0
FFC0
FF80
ENDCHAR
STARTCHAR 0043
ENCODING 67
SWIDTH 612 0
DWIDTH 17 0
BBX 13 19 2 0
BITMAP
07C0
1FF0
3C38
7010
6000
E000
E000
C000
C000
C000
C000
C000
E000
E000
6000
7018
3C38
1FF0
07E0
ENDCHAR
STARTCHAR 0044
ENCODING 68
SWIDTH 612 0
DWIDTH 17 0
BBX 13 19 2 0
BITMAP
FF00
FFC0
E0E0
E070
E030
E038
E018
E018
E018
E018
E018
E018
E018
E038
E030
E070
E0E0
FFC0
FF00
ENDCHAR
STARTCHAR 0045
ENCODING 69
SWIDTH 612 0
DWIDTH 17 0
BBX 12 19 3 0
BITMAP
FFE0
FFE0
E000
E000
E000
E000
E000
E000
FFC0
FFC0
E000
E000
E000
E000
E000
E000
E000
FFF0
FFF0
ENDCHAR
STARTCHAR 0046
ENCODING 70
SWIDTH 612 0
DWIDTH 17 0
BBX 11 19 4 0
BITMAP
FFE0
FFE0
C000
C000
C000
C000
C000
C000
FFC0
FFC0
C000
C000
C000
C000
C000
C000
C000
C000
C000
ENDCHAR
STARTCHAR 0047
ENCODING 71
SWIDTH 612 0
DWIDTH 17 0
BBX 14 19 1 0
BITMAP
03E0
0FF8
1C18
3800
7000
7000
6000
6000
E000
E0FC
E0FC
600C
600C
700C
700C
380C
1C1C
0FF8
07E0
ENDCHAR
STARTCHAR 0048
ENCODING 72
SWIDTH 612 0
DWIDTH 17 0
BBX 12 19 2 0
BITMAP
E030
E030
E030
E030
E030
E030
E030
E030
FFF0
FFF0
E030
E030
E030
E030
E030
E030
E030
E030
E030
ENDCHAR
STARTCHAR 0049
ENCODING 73
SWIDTH 612 0
DWIDTH 17 0
BBX 11 19 3 0
BITMAP
FFE0
FFE0
0E00
0E00
0E00
0E00
0E00
0E00
0E00
0E00
0E00
0E00
0E00
0E00
0E00
0E00
0E00
FFE0
FFE0
ENDCHAR
STARTCHAR 004A
ENCODING 74
SWIDTH 612 0
DWIDTH 17 0
BBX 11 19 3 0
BITMAP
7FE0
7FE0
00E0
00E0
00E0
00E0
00E0
00E0
00E0
00E0
00E0
00E0
00E0
00E0
00E0
80C0
E1C0
7F80
3F00
ENDCHAR
STARTCHAR 004B
ENCODING 75
SWIDTH 612 0
DWIDTH 17 0
BBX 13 19 3 0
BITMAP
C070
C060
C0C0
C1C0
C380
C700
C600
CE00
DE00
FF00
F300
E380
C1C0
C0C0
C0E0
C060
C070
C030
C038
ENDCHAR
STARTCHAR 004C
ENCODING 76
SWIDTH 612 0
DWIDTH 17 0
BBX 11 19 4 0
BITMAP
C000
C000
C000
C000
C000
C000
C000
C000
C000
C000
C000
C000
C000
C000
C000
C000
C000
FFE0
FFE0
ENDCHAR
STARTCHAR 004D
ENCODING 77
SWIDTH 612 0
DWIDTH 17 0
BBX 12 19 2 0
BITMAP
E030
E070
F070
F050
D0D0
D8D0
D8B0
C9B0
CDB0
CD30
C530
C730
C630
C230
C030
C030
C030
C030
C030
ENDCHAR
STARTCHAR 004E
ENCODING 78
SWIDTH 612 0
DWIDTH 17 0
BBX 12 19 2 0
BITMAP
E030
E030
F030
F030
D830
D830
CC30
CC30
C630
E630
E330
E330
E1B0
E1B0
E0F0
E0F0
E070
E070
E030
ENDCHAR
STARTCHAR 004F
ENCODING 79
SWIDTH 612 0
DWIDTH 17 0
BBX 14 19 1 0
BITMAP
07C0
1FE0
3C70
3038
7018
601C
600C
E00C
E00C
E00C
E00C
E00C
600C
601C
7018
3038
3C70
1FE0
07C0
ENDCHAR
STARTCHAR 0050
ENCODING 80
SWIDTH 612 0
DWIDTH 17 0
BBX 12 19 3 0
BITMAP
FF80
FFE0
C0E0
C070
C030
C030
C030
C070
C0E0
FFC0
FF80
C000
C000
C000
C000
C000
C000
C000
C000
ENDCHAR
STARTCHAR 0051
ENCODING 81
SWIDTH 612 0
DWIDTH 17 0
BBX 14 23 1 -4
BITMAP
07C0
1FE0
3C70
3038
7018
601C
600C
E00C
E00C
E00C
E00C
E00C
600C
601C
7018
3038
3870
1FE0
07C0
0380
01C0
00FC
003C
ENDCHAR
STARTCHAR 0052
ENCODING 82
SWIDTH 612 0
DWIDTH 17 0
BBX 12 19 3 0
BITMAP
FF80
FFC0
C0E0
C070
C070
C070
C070
C060
C0E0
FFC0
FF00
C300
C380
C180
C1C0
C0C0
C0E0
C070
C070
ENDCHAR
STARTCHAR 0053
ENCODING 83
SWIDTH 612 0
DWIDTH 17 0
BBX 13 19 2 0
BITMAP
0F80
3FE0
7870
6000
6000
6000
7000
3C00
1F00
0FC0
01F0
0070
0038
0038
0038
4038
F070
7FE0
1FC0
ENDCHAR
STARTCHAR 0054
ENCODING 84
SWIDTH 612 0
DWIDTH 17 0
BBX 15 19 1 0
BITMAP
FFFE
FFFE
0380
0380
0380
0380
0380
0380
0380
0380
0380
0380
0380
0380
0380
0380
0380
0380
0380
ENDCHAR
STARTCHAR 0055
ENCODING 85
SWIDTH 612 0
DWIDTH 17 0
BBX 12 19 2 0
BITMAP
E030
E030
E030
E030
E030
E030
E030
E030
E030
E030
E030
E030
E030
E030
E030
6070
70E0
3FE0
0F80
ENDCHAR
STARTCHAR 0056
ENCODING 86
SWIDTH 612 0
DWIDTH 17 0
BBX 14 19 1 0
BITMAP
E00C
600C
601C
7018
3018
3018
3830
3830
1830
1870
1C60
0C60
0C60
0CC0
06C0
06C0
0780
0380
0380
ENDCHAR
STARTCHAR 0057
ENCODING 87
SWIDTH 612 0
DWIDTH 17 0
BBX 16 19 0 0
BITMAP
E003
E003
6003
6003
6003
6183
61C6
71C6
3146
3346
3366
3266
3266
3634
3634
143C
143C
1C1C
1C1C
ENDCHAR
STARTCHAR 0058
ENCODING 88
SWIDTH 612 0
DWIDTH 17 0
BBX 13 19 2 0
BITMAP
E038
6030
7060
3060
38C0
18C0
1D80
0D80
0700
0700
0F00
0D80
19C0
18C0
30E0
7060
6070
E030
C038
ENDCHAR
STARTCHAR 0059
ENCODING 89
SWIDTH 612 0
DWIDTH 17 0
BBX 14 19 1 0
BITMAP
E00C
600C
7018
3018
3830
1830
1C60
0C60
0EC0
06C0
0780
0380
0380
0380
0380
0380
0380
0380
0380
ENDCHAR
STARTCHAR 005A
ENCODING 90
SWIDTH 612 0
DWIDTH 17 0
BBX 13 19 2 0
BITMAP
7FF8
7FF8
0030
0060
00E0
00C0
01C0
0380
0300
0700
0E00
0C00
1C00
3800
3000
7000
6000
FFF8
FFF8
ENDCHAR
STARTCHAR 005B
ENCODING 91
SWIDTH 612 0
DWIDTH 17 0
BBX 8 24 6 -4
BITMAP
FF
C0
C0
C0
C0
C0
C0
C0
C0
C0
C0
C0
C0
C0
C0
C0
C0
C0
C0
C0
C0
C0
C0
FF
ENDCHAR
STARTCHAR 005C
ENCODING 92
SWIDTH 612 0
DWIDTH 17 0
BBX 11 24 3 -4
BITMAP
C000
C000
6000
6000
7000
3000
3000
1800
1800
1800
0C00
0C00
0E00
0600
0600
0300
0300
0300
0180
0180
01C0
00C0
00C0
0060
ENDCHAR
STARTCHAR 005D
ENCODING 93
SWIDTH 612 0
DWIDTH 17 0
BBX 7 24 3 -4
BITMAP
FE
02
02
02
02
02
02
02
02
02
02
02
02
02
02
02
02
02
02
02
02
02
02
FE
ENDCHAR
STARTCHAR 005E
ENCODING 94
SWIDTH 612 0
DWIDTH 17 0
BBX 10 11 3 8
BITMAP
0E00
0E00
1A00
1B00
1300
3180
3180
6180
60C0
60C0
C0C0
ENDCHAR
STARTCHAR 005F
ENCODING 95
SWIDTH 612 0
DWIDTH 17 0
BBX 13 2 2 -4
BITMAP
FFF8
FFF8
ENDCHAR
STARTCHAR 0060
ENCODING 96
SWIDTH 612 0
DWIDTH 17 0
BBX 4 4 6 16
BITMAP
C0
E0
60
30
ENDCHAR
STARTCHAR 0061
ENCODING 97
SWIDTH 612 0
DWIDTH 17 0
BBX 12 14 2 0
BITMAP
0F80
3FE0
7070
0030
0030
00F0
1FF0
7830
6030
E030
E030
E0F0
7FB0
3E30
ENDCHAR
STARTCHAR 0062
ENCODING 98
SWIDTH 612 0
DWIDTH 17 0
BBX 12 20 3 0
BITMAP
C000
C000
C000
C000
C000
C000
CF80
FFC0
F0E0
C060
C070
C030
C030
C030
C070
C070
C060
E1E0
FFC0
8F00
ENDCHAR
STARTCHAR 0063
ENCODING 99
SWIDTH 612 0
DWIDTH 17 0
BBX 13 14 2 0
BITMAP
07C0
1FF0
3830
7000
6000
E000
E000
E000
E000
6000
7000
3838
1FF0
07C0
ENDCHAR
STARTCHAR 0064
ENCODING 100
SWIDTH 612 0
DWIDTH 17 0
BBX 12 20 2 0
BITMAP
0030
0030
0030
0030
0030
0030
1F30
3FF0
70F0
E030
E030
C030
C030
C030
C030
C030
E070
70F0
3FB0
1F30
ENDCHAR
STARTCHAR 0065
ENCODING 101
SWIDTH 612 0
DWIDTH 17 0
BBX 13 14 2 0
BITMAP
0F80
3FE0
7070
6030
E018
C018
FFF8
FFF8
C000
E000
6000
7830
3FF0
0FC0
ENDCHAR
STARTCHAR 0066
ENCODING 102
SWIDTH 612 0
DWIDTH 17 0
BBX 13 20 3 0
BITMAP
03F0
07F8
0E00
0C00
0C00
0C00
FFF0
FFF0
0C00
0C00
0C00
0C00
0C00
0C00
0C00
0C00
0C00
0C00
0C00
0C00
ENDCHAR
STARTCHAR 0067
ENCODING 103
SWIDTH 612 0
DWIDTH 17 0
BBX 14 20 2 -6
BITMAP
0FFC
3FFC
70E0
6060
6060
6060
6060
30C0
3FC0
6400
6000
6000
7FF0
3FF8
601C
C01C
C018
E038
7FF0
1FC0
ENDCHAR
STARTCHAR 0068
ENCODING 104
SWIDTH 612 0
DWIDTH 17 0
BBX 12 20 3 0
BITMAP
C000
C000
C000
C000
C000
C000
C780
DFC0
F0E0
E060
C060
C070
C070
C070
C070
C070
C070
C070
C070
C070
ENDCHAR
STARTCHAR 0069
ENCODING 105
SWIDTH 612 0
DWIDTH 17 0
BBX 9 20 2 0
BITMAP
0380
0380
0380
0000
0000
0000
FF80
FF80
0180
0180
0180
0180
0180
0180
0180
0180
0180
0180
0180
0180
ENDCHAR
STARTCHAR 006A
ENCODING 106
SWIDTH 612 0
DWIDTH 17 0
BBX 9 26 2 -6
BITMAP
0380
0380
0380
0000
0000
0000
FF80
FF80
0180
0180
0180
0180
0180
0180
0180
0180
0180
0180
0180
0180
0180
0180
0380
8300
FF00
FC00
ENDCHAR
STARTCHAR 006B
ENCODING 107
SWIDTH 612 0
DWIDTH 17 0
BBX 13 20 3 0
BITMAP
C000
C000
C000
C000
C000
C000
C070
C0E0
C1C0
C380
C700
CE00
DF00
FB00
F380
E1C0
C0C0
C060
C070
C038
ENDCHAR
STARTCHAR 006C
ENCODING 108
SWIDTH 612 0
DWIDTH 17 0
BBX 13 20 2 0
BITMAP
FE00
FE00
0600
0600
0600
0600
0600
0600
0600
0600
0600
0600
0600
0600
0600
0600
0600
0700
03F8
01F0
ENDCHAR
STARTCHAR 006D
ENCODING 109
SWIDTH 612 0
DWIDTH 17 0
BBX 13 14 2 0
BITMAP
9C70
FEF8
E798
C318
C218
C218
C218
C218
C218
C218
C218
C218
C218
C218
ENDCHAR
STARTCHAR 006E
ENCODING 110
SWIDTH 612 0
DWIDTH 17 0
BBX 12 14 3 0
BITMAP
C780
DFC0
F0E0
E060
C060
C070
C070
C070
C070
C070
C070
C070
C070
C070
ENDCHAR
STARTCHAR 006F
ENCODING 111
SWIDTH 612 0
DWIDTH 17 0
BBX 13 14 2 0
BITMAP
0F80
3FE0
70F0
E030
E038
C038
C018
C018
C038
C038
E030
70F0
3FE0
0F80
ENDCHAR
STARTCHAR 0070
ENCODING 112
SWIDTH 612 0
DWIDTH 17 0
BBX 12 20 3 -6
BITMAP
CF80
FFC0
F0E0
C060
C070
C030
C030
C030
C070
C070
C060
E1E0
FFC0
CF00
C000
C000
C000
C000
C000
C000
ENDCHAR
STARTCHAR 0071
ENCODING 113
SWIDTH 612 0
DWIDTH 17 0
BBX 12 20 2 -6
BITMAP
1F30
3FF0
70F0
E030
E030
C030
C030
C030
C030
C030
E070
70F0
3FB0
1F30
0030
0030
0030
0030
0030
0030
ENDCHAR
STARTCHAR 0072
ENCODING 114
SWIDTH 612 0
DWIDTH 17 0
BBX 11 14 4 0
BITMAP
C3E0
CFE0
DC00
F000
E000
E000
C000
C000
C000
C000
C000
C000
C000
C000
ENDCHAR
STARTCHAR 0073
ENCODING 115
SWIDTH 612 0
DWIDTH 17 0
BBX 13 14 2 0
BITMAP
1F80
3FE0
7060
6000
6000
7800
1F80
03E0
0070
0038
0038
E030
7FE0
1FC0
ENDCHAR
STARTCHAR 0074
ENCODING 116
SWIDTH 612 0
DWIDTH 17 0
BBX 13 18 2 0
BITMAP
0C00
0C00
0C00
0C00
FFF8
FFF8
0C00
0C00
0C00
0C00
0C00
0C00
0C00
0C00
0C00
0E00
07F8
03F0
ENDCHAR
STARTCHAR 0075
ENCODING 117
SWIDTH 612 0
DWIDTH 17 0
BBX 12 14 2 0
BITMAP
C030
C030
C030
C030
C030
C030
C030
C030
C030
E030
E070
71F0
7FB0
3E30
ENDCHAR
STARTCHAR 0076
ENCODING 118
SWIDTH 612 0
DWIDTH 17 0
BBX 13 14 2 0
BITMAP
C018
C038
E030
6030
6060
3060
3060
38C0
18C0
1980
0D80
0D80
0F00
0700
ENDCHAR
STARTCHAR 0077
ENCODING 119
SWIDTH 612 0
DWIDTH 17 0
BBX 16 14 0 0
BITMAP
E003
6183
61C3
61C3
6147
7346
3366
3266
3266
362C
3E3C
1E3C
1C3C
1C1C
ENDCHAR
STARTCHAR 0078
ENCODING 120
SWIDTH 612 0
DWIDTH 17 0
BBX 13 14 2 0
BITMAP
6030
7060
30E0
18C0
1D80
0F80
0700
0F00
0F80
19C0
38C0
3060
6070
E038
ENDCHAR
STARTCHAR 0079
ENCODING 121
SWIDTH 612 0
DWIDTH 17 0
BBX 13 20 2 -6
BITMAP
C018
C018
E030
6030
7070
3060
3060
18C0
18C0
0CC0
0D80
0D80
0700
0700
0700
0600
0E00
0C00
F800
F000
ENDCHAR
STARTCHAR 007A
ENCODING 122
SWIDTH 612 0
DWIDTH 17 0
BBX 13 14 2 0
BITMAP
7FF8
7FF0
0060
00E0
01C0
0380
0700
0E00
0C00
1800
3800
7000
FFF8
FFF8
ENDCHAR
STARTCHAR 007B
ENCODING 123
SWIDTH 612 0
DWIDTH 17 0
BBX 11 24 3 -4
BITMAP
03E0
0700
0C00
0C00
0C00
0C00
0C00
0C00
0C00
0C00
0C00
7800
F000
1C00
0C00
0C00
0C00
0C00
0C00
0C00
0C00
0C00
0E00
07E0
ENDCHAR
STARTCHAR 007C
ENCODING 124
SWIDTH 612 0
DWIDTH 17 0
BBX 1 28 8 -7
BITMAP
80
80
80
80
80
80
80
80
80
80
80
80
80
80
80
80
80
80
80
80
80
80
80
80
80
80
80
80
ENDCHAR
STARTCHAR 007D
ENCODING 125
SWIDTH 612 0
DWIDTH 17 0
BBX 10 24 3 -4
BITMAP
F800
1C00
0C00
0600
0600
0400
0400
0C00
0C00
0C00
0600
07C0
03C0
0700
0400
0C00
0C00
0C00
0400
0600
0600
0400
0C00
F800
ENDCHAR
STARTCHAR 007E
ENCODING 126
SWIDTH 612 0
DWIDTH 17 0
BBX 12 4 2 6
BITMAP
1810
7C10
6730
C3E0
ENDCHAR
STARTCHAR 00A0
ENCODING 160
SWIDTH 612 0
DWIDTH 17 0
BBX 0 0 0 0
BITMAP
ENDCHAR
STARTCHAR 00A1
ENCODING 161
SWIDTH 612 0
DWIDTH 17 0
BBX 4 19 6 -5
BITMAP
70
F0
F0
70
00
00
00
20
20
60
60
60
60
60
60
60
60
60
60
ENDCHAR
STARTCHAR 00A2
ENCODING 162
SWIDTH 612 0
DWIDTH 17 0
BBX 11 19 3 -1
BITMAP
0200
0200
0200
0F80
3FE0
7A40
6200
E200
C200
C200
C200
E200
6200
7260
3FE0
0F80
0200
0200
0200
ENDCHAR
STARTCHAR 00A3
ENCODING 163
SWIDTH 612 0
DWIDTH 17 0
BBX 13 18 2 0
BITMAP
07C0
1FF0
1C30
3800
3000
3000
3000
1800
7FC0
FFC0
1C00
0C00
0C00
1800
1800
3000
FFF8
FFF8
ENDCHAR
STARTCHAR 00A4
ENCODING 164
SWIDTH 612 0
DWIDTH 17 0
BBX 13 13 2 3
BITMAP
8010
C638
7FF0
38E0
7060
6070
6030
6030
6060
30E0
7FE0
EFB0
C018
ENDCHAR
STARTCHAR 00A5
ENCODING 165
SWIDTH 612 0
DWIDTH 17 0
BBX 13 18 2 0
BITMAP
C018
E030
6030
7060
3060
18C0
1980
0D80
0F00
FFF8
0600
0600
FFF8
0600
0600
0600
0600
0600
ENDCHAR
STARTCHAR 00A6
ENCODING 166
SWIDTH 612 0
DWIDTH 17 0
BBX 1 28 8 -7
BITMAP
80
80
80
80
80
80
80
80
80
80
80
80
80
00
00
80
80
80
80
80
80
80
80
80
80
80
80
80
ENDCHAR
STARTCHAR 00A7
ENCODING 167
SWIDTH 612 0
DWIDTH 17 0
BBX 11 21 3 -2
BITMAP
1F00
3FC0
7080
6000
7000
3800
7E00
C780
C1C0
C0E0
C060
E060
7860
3EC0
0780
0380
0180
0180
E180
7F00
1E00
ENDCHAR
STARTCHAR 00A8
ENCODING 168
SWIDTH 612 0
DWIDTH 17 0
BBX 8 3 4 16
BITMAP
E3
E7
E3
ENDCHAR
STARTCHAR 00A9
ENCODING 169
SWIDTH 612 0
DWIDTH 17 0
BBX 15 18 1 0
BITMAP
0FC0
1830
2018
400C
47C4
CC44
9806
9806
9802
9806
9806
8C04
CFE4
47CC
6008
3018
1870
07C0
ENDCHAR
STARTCHAR 00AA
ENCODING 170
SWIDTH 612 0
DWIDTH 17 0
BBX 7 9 5 7
BITMAP
FC
C6
06
1E
76
C6
86
EE
72
ENDCHAR
STARTCHAR 00AB
ENCODING 171
SWIDTH 612 0
DWIDTH 17 0
BBX 12 11 2 2
BITMAP
0820
1870
30E0
70C0
E180
C180
E180
71C0
30E0
1860
0830
ENDCHAR
STARTCHAR 00AC
ENCODING 172
SWIDTH 612 0
DWIDTH 17 0
BBX 12 7 2 3
BITMAP
FFF0
FFF0
0030
0030
0030
0030
0030
ENDCHAR
STARTCHAR 00AD
ENCODING 173
SWIDTH 612 0
DWIDTH 17 0
BBX 9 2 4 7
BITMAP
FF80
FF80
ENDCHAR
STARTCHAR 00AE
ENCODING 174
SWIDTH 612 0
DWIDTH 17 0
BBX 11 11 3 9
BITMAP
1E00
3180
40C0
DE40
9340
9E60
9240
D340
40C0
2180
1F00
ENDCHAR
STARTCHAR 00AF
ENCODING 175
SWIDTH 612 0
DWIDTH 17 0
BBX 7 2 5 17
BITMAP
FE
FE
ENDCHAR
STARTCHAR 00B0
ENCODING 176
SWIDTH 612 0
DWIDTH 17 0
BBX 7 7 5 12
BITMAP
78
CC
86
86
86
CC
78
ENDCHAR
STARTCHAR 00B1
ENCODING 177
SWIDTH 612 0
DWIDTH 17 0
BBX 12 15 2 0
BITMAP
0600
0600
0600
0600
0600
FFF0
FFF0
0600
0600
0600
0600
0600
0000
FFF0
FFF0
ENDCHAR
STARTCHAR 00B2
ENCODING 178
SWIDTH 612 0
DWIDTH 17 0
BBX 7 8 5 13
BITMAP
7C
CC
04
0C
08
18
60
FE
ENDCHAR
STARTCHAR 00B3
ENCODING 179
SWIDTH 612 0
DWIDTH 17 0
BBX 7 9 5 12
BITMAP
78
DC
0C
0C
38
0C
06
EC
78
ENDCHAR
STARTCHAR 00B4
ENCODING 180
SWIDTH 612 0
DWIDTH 17 0
BBX 4 4 7 16
BITMAP
30
60
60
C0
ENDCHAR
STARTCHAR 00B5
ENCODING 181
SWIDTH 612 0
DWIDTH 17 0
BBX 12 19 2 -5
BITMAP
E030
E030
E030
E030
E030
E030
E030
E030
E030
E030
E070
F0F0
FFB0
FE30
E000
E000
E000
E000
E000
ENDCHAR
STARTCHAR 00B6
ENCODING 182
SWIDTH 612 0
DWIDTH 17 0
BBX 11 20 2 -1
BITMAP
1F60
3F60
7F60
FF60
FF60
FF60
FF60
FF60
FF60
7F60
3F60
0F60
0060
0060
0060
0060
0060
0060
0060
0060
ENDCHAR
STARTCHAR 00B7
ENCODING 183
SWIDTH 612 0
DWIDTH 17 0
BBX 5 5 6 7
BITMAP
70
F0
F8
F0
60
ENDCHAR
STARTCHAR 00B8
ENCODING 184
SWIDTH 612 0
DWIDTH 17 0
BBX 4 6 6 -6
BITMAP
20
60
30
10
30
E0
ENDCHAR
STARTCHAR 00B9
ENCODING 185
SWIDTH 612 0
DWIDTH 17 0
BBX 4 8 6 13
BITMAP
70
F0
30
30
30
30
30
30
ENDCHAR
STARTCHAR 00BA
ENCODING 186
SWIDTH 612 0
DWIDTH 17 0
BBX 9 9 4 7
BITMAP
3E00
6300
C100
C180
C180
C180
C300
7700
3C00
ENDCHAR
STARTCHAR 00BB
ENCODING 187
SWIDTH 612 0
DWIDTH 17 0
BBX 11 11 3 2
BITMAP
8100
C380
61C0
30C0
3860
1820
3860
30E0
61C0
C180
8300
ENDCHAR
STARTCHAR 00BC
ENCODING 188
SWIDTH 612 0
DWIDTH 17 0
BBX 15 18 1 0
BITMAP
1804
7806
180C
1818
1830
1860
1840
1800
1800
0000
001C
0C3C
186C
304C
60CC
C1FE
C00C
000C
ENDCHAR
STARTCHAR 00BD
ENCODING 189
SWIDTH 612 0
DWIDTH 17 0
BBX 15 18 1 0
BITMAP
1804
7806
180C
1818
1830
1860
1840
1800
1800
0078
00DC
0C8C
180C
300C
6018
C030
C0E0
00FC
ENDCHAR
STARTCHAR 00BE
ENCODING 190
SWIDTH 612 0
DWIDTH 17 0
BBX 15 18 1 0
BITMAP
7800
6C02
0606
0C0C
1818
0630
0620
EE00
7C00
0000
001C
043C
0C6C
184C
30CC
61FE
400C
000C
ENDCHAR
STARTCHAR 00BF
ENCODING 191
SWIDTH 612 0
DWIDTH 17 0
BBX 10 19 3 -5
BITMAP
0E00
0F00
0F00
0E00
0000
0000
0000
0600
0600
0C00
1C00
3800
7000
6000
E000
E000
70C0
7FC0
1F00
ENDCHAR
STARTCHAR 00C0
ENCODING 192
SWIDTH 612 0
DWIDTH 17 0
BBX 15 23 1 0
BITMAP
0E00
0700
0300
0000
0380
0380
0780
06C0
06C0
0CC0
0C60
0C60
1860
1830
1830
3FF0
3FF8
3018
7018
601C
600C
E00C
C00E
ENDCHAR
STARTCHAR 00C1
ENCODING 193
SWIDTH 612 0
DWIDTH 17 0
BBX 15 23 1 0
BITMAP
00C0
0180
0300
0000
0380
0380
0780
06C0
06C0
0CC0
0C60
0C60
1860
1830
1830
3FF0
3FF8
3018
7018
601C
600C
E00C
C00E
ENDCHAR
STARTCHAR 00C2
ENCODING 194
SWIDTH 612 0
DWIDTH 17 0
BBX 15 23 1 0
BITMAP
0380
06C0
0C60
0000
0380
0380
0780
06C0
06C0
0CC0
0C60
0C60
1860
1830
1830
3FF0
3FF8
3018
7018
601C
600C
E00C
C00E
ENDCHAR
STARTCHAR 00C3
ENCODING 195
SWIDTH 612 0
DWIDTH 17 0
BBX 15 24 1 0
BITMAP
0020
0F20
19E0
0000
0000
0380
0380
0780
06C0
06C0
0CC0
0C60
0C60
1860
1830
1830
3FF0
3FF8
3018
7018
601C
600C
E00C
C00E
ENDCHAR
STARTCHAR 00C4
ENCODING 196
SWIDTH 612 0
DWIDTH 17 0
BBX 15 24 1 0
BITMAP
0840
0CE0
0C60
0000
0000
0380
0380
0780
06C0
06C0
0CC0
0C60
0C60
1860
1830
1830
3FF0
3FF8
3018
7018
601C
600C
E00C
C00E
ENDCHAR
STARTCHAR 00C5
ENCODING 197
SWIDTH 612 0
DWIDTH 17 0
BBX 15 25 1 0
BITMAP
0380
04C0
0440
04C0
0380
0000
0380
0380
0780
06C0
06C0
0CC0
0C60
0C60
1860
1830
1830
3FF0
3FF8
3018
7018
601C
600C
E00C
C00E
ENDCHAR
STARTCHAR 00C6
ENCODING 198
SWIDTH 612 0
DWIDTH 17 0
BBX 16 19 0 0
BITMAP
01FF
01FF
0360
0360
0760
0660
0660
0E60
0C7E
0C7E
1C60
1860
3FE0
3FE0
3060
7060
6060
607F
E07F
ENDCHAR
STARTCHAR 00C7
ENCODING 199
SWIDTH 612 0
DWIDTH 17 0
BBX 13 25 2 -6
BITMAP
07C0
1FF0
3C38
7010
6000
E000
E000
C000
C000
C000
C000
C000
E000
E000
6000
7008
3C38
1FF0
07E0
0100
0300
0180
0080
0180
0700
ENDCHAR
STARTCHAR 00C8
ENCODING 200
SWIDTH 612 0
DWIDTH 17 0
BBX 12 23 3 0
BITMAP
1C00
0C00
0600
0000
FFE0
FFE0
E000
E000
E000
E000
E000
E000
FFC0
FFC0
E000
E000
E000
E000
E000
E000
E000
FFF0
FFF0
ENDCHAR
STARTCHAR 00C9
ENCODING 201
SWIDTH 612 0
DWIDTH 17 0
BBX 12 23 3 0
BITMAP
0180
0300
0600
0000
FFE0
FFE0
E000
E000
E000
E000
E000
E000
FFC0
FFC0
E000
E000
E000
E000
E000
E000
E000
FFF0
FFF0
ENDCHAR
STARTCHAR 00CA
ENCODING 202
SWIDTH 612 0
DWIDTH 17 0
BBX 12 23 3 0
BITMAP
0700
0D80
18C0
0000
FFE0
FFE0
E000
E000
E000
E000
E000
E000
FFC0
FFC0
E000
E000
E000
E000
E000
E000
E000
FFF0
FFF0
ENDCHAR
STARTCHAR 00CB
ENCODING 203
SWIDTH 612 0
DWIDTH 17 0
BBX 12 24 3 0
BITMAP
1080
39C0
18C0
0000
0000
FFE0
FFE0
E000
E000
E000
E000
E000
E000
FFC0
FFC0
E000
E000
E000
E000
E000
E000
E000
FFF0
FFF0
ENDCHAR
STARTCHAR 00CC
ENCODING 204
SWIDTH 612 0
DWIDTH 17 0
BBX 11 23 3 0
BITMAP
3800
1C00
0C00
0000
FFE0
FFE0
0E00
0E00
0E00
0E00
0E00
0E00
0E00
0E00
0E00
0E00
0E00
0E00
0E00
0E00
0E00
FFE0
FFE0
ENDCHAR
STARTCHAR 00CD
ENCODING 205
SWIDTH 612 0
DWIDTH 17 0
BBX 11 23 3 0
BITMAP
0300
0600
0C00
0000
FFE0
FFE0
0E00
0E00
0E00
0E00
0E00
0E00
0E00
0E00
0E00
0E00
0E00
0E00
0E00
0E00
0E00
FFE0
FFE0
ENDCHAR
STARTCHAR 00CE
ENCODING 206
SWIDTH 612 0
DWIDTH 17 0
BBX 11 23 3 0
BITMAP
0E00
1B00
3180
0000
FFE0
FFE0
0E00
0E00
0E00
0E00
0E00
0E00
0E00
0E00
0E00
0E00
0E00
0E00
0E00
0E00
0E00
FFE0
FFE0
ENDCHAR
STARTCHAR 00CF
ENCODING 207
SWIDTH 612 0
DWIDTH 17 0
BBX 11 24 3 0
BITMAP
2100
3380
3180
0000
0000
FFE0
FFE0
0E00
0E00
0E00
0E00
0E00
0E00
0E00
0E00
0E00
0E00
0E00
0E00
0E00
0E00
0E00
FFE0
FFE0
ENDCHAR
STARTCHAR 00D0
ENCODING 208
SWIDTH 612 0
DWIDTH 17 0
BBX 15 19 0 0
BITMAP
1FC0
1FF0
1838
181C
180C
180E
1806
1806
1806
FF86
1806
1806
1806
180E
180E
181C
1838
1FF0
1FC0
ENDCHAR
STARTCHAR 00D1
ENCODING 209
SWIDTH 612 0
DWIDTH 17 0
BBX 12 24 2 0
BITMAP
0060
1E40
13C0
0000
0000
E030
E030
F030
F030
D830
D830
CC30
CC30
C630
E630
E330
E330
E1B0
E1B0
E0F0
E0F0
E070
E070
E030
ENDCHAR
STARTCHAR 00D2
ENCODING 210
SWIDTH 612 0
DWIDTH 17 0
BBX 14 23 1 0
BITMAP
0E00
0700
0300
0000
07C0
1FE0
3C70
3038
7018
601C
600C
E00C
E00C
E00C
E00C
E00C
600C
601C
7018
3038
3C70
1FE0
07C0
ENDCHAR
STARTCHAR 00D3
ENCODING 211
SWIDTH 612 0
DWIDTH 17 0
BBX 14 23 1 0
BITMAP
00C0
0180
0300
0000
07C0
1FE0
3C70
3038
7018
601C
600C
E00C
E00C
E00C
E00C
E00C
600C
601C
7018
3038
3C70
1FE0
07C0
ENDCHAR
STARTCHAR 00D4
ENCODING 212
SWIDTH 612 0
DWIDTH 17 0
BBX 14 23 1 0
BITMAP
0380
06C0
0C60
0000
07C0
1FE0
3C70
3038
7018
601C
600C
E00C
E00C
E00C
E00C
E00C
600C
601C
7018
3038
3C70
1FE0
07C0
ENDCHAR
STARTCHAR 00D5
ENCODING 213
SWIDTH 612 0
DWIDTH 17 0
BBX 14 23 1 0
BITMAP
0E20
0FE0
18C0
0000
07C0
1FE0
3C70
3038
7018
601C
600C
E00C
E00C
E00C
E00C
E00C
600C
601C
7018
3038
3C70
1FE0
07C0
ENDCHAR
STARTCHAR 00D6
ENCODING 214
SWIDTH 612 0
DWIDTH 17 0
BBX 14 23 1 0
BITMAP
0C60
0CE0
0C40
0000
07C0
1FE0
3C70
3038
7018
601C
600C
E00C
E00C
E00C
E00C
E00C
600C
601C
7018
3038
3C70
1FE0
07C0
ENDCHAR
STARTCHAR 00D7
ENCODING 215
SWIDTH 612 0
DWIDTH 17 0
BBX 11 11 3 3
BITMAP
C040
E0C0
7180
3B00
1E00
0E00
1F00
3380
61C0
E0E0
4040
ENDCHAR
STARTCHAR 00D8
ENCODING 216
SWIDTH 612 0
DWIDTH 17 0
BBX 14 19 1 0
BITMAP
07CC
1FEC
3C78
3038
7038
607C
60CC
E0CC
E18C
E30C
E30C
E60C
6C0C
6C1C
7818
3038
3C70
7FE0
C7C0
ENDCHAR
STARTCHAR 00D9
ENCODING 217
SWIDTH 612 0
DWIDTH 17 0
BBX 12 23 2 0
BITMAP
1C00
0E00
0600
0000
E030
E030
E030
E030
E030
E030
E030
E030
E030
E030
E030
E030
E030
E030
E030
6070
70E0
3FE0
0F80
ENDCHAR
STARTCHAR 00DA
ENCODING 218
SWIDTH 612 0
DWIDTH 17 0
BBX 12 23 2 0
BITMAP
0180
0300
0600
0000
E030
E030
E030
E030
E030
E030
E030
E030
E030
E030
E030
E030
E030
E030
E030
6070
70E0
3FE0
0F80
ENDCHAR
STARTCHAR 00DB
ENCODING 219
SWIDTH 612 0
DWIDTH 17 0
BBX 12 23 2 0
BITMAP
0700
0D80
18C0
0000
E030
E030
E030
E030
E030
E030
E030
E030
E030
E030
E030
E030
E030
E030
E030
6070
70E0
3FE0
0F80
ENDCHAR
STARTCHAR 00DC
ENCODING 220
SWIDTH 612 0
DWIDTH 17 0
BBX 12 24 2 0
BITMAP
1080
19C0
18C0
0000
0000
E030
E030
E030
E030
E030
E030
E030
E030
E030
E030
E030
E030
E030
E030
E030
6070
70E0
3FE0
0F80
ENDCHAR
STARTCHAR 00DD
ENCODING 221
SWIDTH 612 0
DWIDTH 17 0
BBX 14 23 1 0
BITMAP
00C0
0180
0300
0000
E00C
600C
7018
3018
3830
1830
1C60
0C60
0EC0
06C0
0780
0380
0380
0380
0380
0380
0380
0380
0380
ENDCHAR
STARTCHAR 00DE
ENCODING 222
SWIDTH 612 0
DWIDTH 17 0
BBX 12 19 3 0
BITMAP
C000
C000
C000
FF00
FFC0
C0E0
C070
C030
C030
C030
C030
C070
C0E0
FFC0
FF00
C000
C000
C000
C000
ENDCHAR
STARTCHAR 00DF
ENCODING 223
SWIDTH 612 0
DWIDTH 17 0
BBX 14 20 2 0
BITMAP
1F00
3FC0
70C0
60E0
60E0
E0C0
E0C0
E180
E300
E300
E300
E3C0
E1F0
E078
E018
E01C
E01C
E218
E7F8
E3F0
ENDCHAR
STARTCHAR 00E0
ENCODING 224
SWIDTH 612 0
DWIDTH 17 0
BBX 12 20 2 0
BITMAP
0C00
0600
0700
0300
0000
0000
0F80
3FE0
7070
0030
0030
00F0
1FF0
7830
6030
E030
E030
E0F0
7FB0
3E30
ENDCHAR
STARTCHAR 00E1
ENCODING 225
SWIDTH 612 0
DWIDTH 17 0
BBX 12 20 2 0
BITMAP
01C0
0380
0300
0600
0000
0000
0F80
3FE0
7070
0030
0030
00F0
1FF0
7830
6030
E030
E030
E0F0
7FB0
3E30
ENDCHAR
STARTCHAR 00E2
ENCODING 226
SWIDTH 612 0
DWIDTH 17 0
BBX 12 20 2 0
BITMAP
0700
0780
0C80
18C0
0000
0000
0F80
3FE0
7070
0030
0030
00F0
1FF0
7830
6030
E030
E030
E0F0
7FB0
3E30
ENDCHAR
STARTCHAR 00E3
ENCODING 227
SWIDTH 612 0
DWIDTH 17 0
BBX 12 20 2 0
BITMAP
0060
1E40
13C0
1080
0000
0000
0F80
3FE0
7070
0030
0030
00F0
1FF0
7830
6030
E030
E030
E0F0
7FB0
3E30
ENDCHAR
STARTCHAR 00E4
ENCODING 228
SWIDTH 612 0
DWIDTH 17 0
BBX 12 20 2 0
BITMAP
18E0
1CE0
18E0
0000
0000
0000
0F80
3FE0
7070
0030
0030
00F0
1FF0
7830
6030
E030
E030
E0F0
7FB0
3E30
ENDCHAR
STARTCHAR 00E5
ENCODING 229
SWIDTH 612 0
DWIDTH 17 0
BBX 12 20 2 0
BITMAP
0700
0C80
0880
0C80
0700
0000
0F80
3FE0
7070
0030
0030
00F0
1FF0
7830
6030
E030
E030
E0F0
7FB0
3E30
ENDCHAR
STARTCHAR 00E6
ENCODING 230
SWIDTH 612 0
DWIDTH 17 0
BBX 17 14 0 0
BITMAP
1E1C00
7F7E00
61E300
01C300
018100
038180
1FFF80
71FF00
618000
60C000
E0C000
63E000
7E7F00
3C3E00
ENDCHAR
STARTCHAR 00E7
ENCODING 231
SWIDTH 612 0
DWIDTH 17 0
BBX 13 20 2 -6
BITMAP
07C0
1FF0
3830
7000
6000
E000
E000
E000
E000
6000
7000
3838
1FF0
07C0
0100
0300
0180
0080
0380
0700
ENDCHAR
STARTCHAR 00E8
ENCODING 232
SWIDTH 612 0
DWIDTH 17 0
BBX 13 20 2 0
BITMAP
0C00
0600
0700
0300
0000
0000
0F80
3FE0
7070
6030
E018
C018
FFF8
FFF8
C000
E000
6000
7830
3FF0
0FC0
ENDCHAR
STARTCHAR 00E9
ENCODING 233
SWIDTH 612 0
DWIDTH 17 0
BBX 13 20 2 0
BITMAP
01C0
0180
0300
0600
0000
0000
0F80
3FE0
7070
6030
E018
C018
FFF8
FFF8
C000
E000
6000
7830
3FF0
0FC0
ENDCHAR
STARTCHAR 00EA
ENCODING 234
SWIDTH 612 0
DWIDTH 17 0
BBX 13 20 2 0
BITMAP
0700
0780
0C80
18C0
0000
0000
0F80
3FE0
7070
6030
E018
C018
FFF8
FFF8
C000
E000
6000
7830
3FF0
0FC0
ENDCHAR
STARTCHAR 00EB
ENCODING 235
SWIDTH 612 0
DWIDTH 17 0
BBX 13 20 2 0
BITMAP
18E0
1CE0
18E0
0000
0000
0000
0F80
3FE0
7070
6030
E018
C018
FFF8
FFF8
C000
E000
6000
7830
3FF0
0FC0
ENDCHAR
STARTCHAR 00EC
ENCODING 236
SWIDTH 612 0
DWIDTH 17 0
BBX 9 20 2 0
BITMAP
0600
0300
0380
0180
0000
0000
FF80
FF80
0180
0180
0180
0180
0180
0180
0180
0180
0180
0180
0180
0180
ENDCHAR
STARTCHAR 00ED
ENCODING 237
SWIDTH 612 0
DWIDTH 17 0
BBX 10 20 2 0
BITMAP
00C0
01C0
0180
0300
0000
0000
FF80
FF80
0180
0180
0180
0180
0180
0180
0180
0180
0180
0180
0180
0180
ENDCHAR
STARTCHAR 00EE
ENCODING 238
SWIDTH 612 0
DWIDTH 17 0
BBX 11 20 2 0
BITMAP
0380
03C0
06C0
0C60
0000
0000
FF80
FF80
0180
0180
0180
0180
0180
0180
0180
0180
0180
0180
0180
0180
ENDCHAR
STARTCHAR 00EF
ENCODING 239
SWIDTH 612 0
DWIDTH 17 0
BBX 12 20 2 0
BITMAP
0C60
0C70
0C60
0000
0000
0000
FF80
FF80
0180
0180
0180
0180
0180
0180
0180
0180
0180
0180
0180
0180
ENDCHAR
STARTCHAR 00F0
ENCODING 240
SWIDTH 612 0
DWIDTH 17 0
BBX 13 20 2 1
BITMAP
1C30
0EE0
0780
07C0
18C0
0060
0070
0F30
3FF0
70F8
E038
C018
C018
C018
C038
C030
E030
7060
3FE0
0F80
ENDCHAR
STARTCHAR 00F1
ENCODING 241
SWIDTH 612 0
DWIDTH 17 0
BBX 12 20 3 0
BITMAP
00C0
1CC0
3780
2100
0000
0000
C780
DFC0
F0E0
E060
C060
C070
C070
C070
C070
C070
C070
C070
C070
C070
ENDCHAR
STARTCHAR 00F2
ENCODING 242
SWIDTH 612 0
DWIDTH 17 0
BBX 13 20 2 0
BITMAP
0C00
0E00
0600
0300
0000
0000
0F80
3FE0
70F0
E030
E038
C038
C018
C018
C038
C038
E030
70F0
3FE0
0F80
ENDCHAR
STARTCHAR 00F3
ENCODING 243
SWIDTH 612 0
DWIDTH 17 0
BBX 13 20 2 0
BITMAP
0180
0300
0300
0600
0000
0000
0F80
3FE0
70F0
E030
E038
C038
C018
C018
C038
C038
E030
70F0
3FE0
0F80
ENDCHAR
STARTCHAR 00F4
ENCODING 244
SWIDTH 612 0
DWIDTH 17 0
BBX 13 20 2 0
BITMAP
0700
0F00
0D80
18C0
0000
0000
0F80
3FE0
70F0
E030
E038
C038
C018
C018
C038
C038
E030
70F0
3FE0
0F80
ENDCHAR
STARTCHAR 00F5
ENCODING 245
SWIDTH 612 0
DWIDTH 17 0
BBX 13 20 2 0
BITMAP
0040
1E40
13C0
3100
0000
0000
0F80
3FE0
70F0
E030
E038
C038
C018
C018
C038
C038
E030
70F0
3FE0
0F80
ENDCHAR
STARTCHAR 00F6
ENCODING 246
SWIDTH 612 0
DWIDTH 17 0
BBX 13 20 2 0
BITMAP
18C0
38E0
38C0
0000
0000
0000
0F80
3FE0
70F0
E030
E038
C038
C018
C018
C038
C038
E030
70F0
3FE0
0F80
ENDCHAR
STARTCHAR 00F7
ENCODING 247
SWIDTH 612 0
DWIDTH 17 0
BBX 12 13 2 2
BITMAP
0600
0700
0600
0000
0000
FFF0
FFF0
0000
0000
0000
0600
0700
0600
ENDCHAR
STARTCHAR 00F8
ENCODING 248
SWIDTH 612 0
DWIDTH 17 0
BBX 13 14 2 0
BITMAP
0F98
3FF0
7070
E0F0
E0B8
C1B8
C318
C618
CC38
D838
F030
7070
7FE0
CF80
ENDCHAR
STARTCHAR 00F9
ENCODING 249
SWIDTH 612 0
DWIDTH 17 0
BBX 12 20 2 0
BITMAP
1C00
0C00
0600
0300
0000
0000
C030
C030
C030
C030
C030
C030
C030
C030
C030
E030
E070
71F0
7FB0
3E30
ENDCHAR
STARTCHAR 00FA
ENCODING 250
SWIDTH 612 0
DWIDTH 17 0
BBX 12 20 2 0
BITMAP
0180
0300
0600
0600
0000
0000
C030
C030
C030
C030
C030
C030
C030
C030
C030
E030
E070
71F0
7FB0
3E30
ENDCHAR
STARTCHAR 00FB
ENCODING 251
SWIDTH 612 0
DWIDTH 17 0
BBX 12 20 2 0
BITMAP
0700
0F00
0980
1880
0000
0000
C030
C030
C030
C030
C030
C030
C030
C030
C030
E030
E070
71F0
7FB0
3E30
ENDCHAR
STARTCHAR 00FC
ENCODING 252
SWIDTH 612 0
DWIDTH 17 0
BBX 12 20 2 0
BITMAP
38C0
39C0
38C0
0000
0000
0000
C030
C030
C030
C030
C030
C030
C030
C030
C030
E030
E070
71F0
7FB0
3E30
ENDCHAR
STARTCHAR 00FD
ENCODING 253
SWIDTH 612 0
DWIDTH 17 0
BBX 13 26 2 -6
BITMAP
0180
0300
0300
0600
0000
0000
C018
C018
E030
6030
7070
3060
3060
18C0
18C0
0CC0
0D80
0D80
0700
0700
0700
0600
0E00
0C00
F800
F000
ENDCHAR
STARTCHAR 00FE
ENCODING 254
SWIDTH 612 0
DWIDTH 17 0
BBX 12 26 3 -6
BITMAP
C000
C000
C000
C000
C000
C000
CF80
FFC0
F0E0
C060
C070
C030
C030
C030
C070
C070
C060
E1E0
FFC0
CF00
C000
C000
C000
C000
C000
C000
ENDCHAR
STARTCHAR 00FF
ENCODING 255
SWIDTH 612 0
DWIDTH 17 0
BBX 13 26 2 -6
BITMAP
18C0
38E0
18C0
0000
0000
0000
C018
C018
E030
6030
7070
3060
3060
18C0
18C0
0CC0
0D80
0D80
0700
0700
0700
0600
0E00
0C00
F800
F000
ENDCHAR
STARTCHAR 0100
ENCODING 256
SWIDTH 612 0
DWIDTH 17 0
BBX 15 23 1 0
BITMAP
0FE0
0FE0
0000
0000
0380
0380
0780
06C0
06C0
0CC0
0C60
0C60
1860
1830
1830
3FF0
3FF8
3018
7018
601C
600C
E00C
C00E
ENDCHAR
STARTCHAR 0101
ENCODING 257
SWIDTH 612 0
DWIDTH 17 0
BBX 12 19 2 0
BITMAP
1FC0
1FC0
0000
0000
0000
0F80
3FE0
7070
0030
0030
00F0
1FF0
7830
6030
E030
E030
E0F0
7FB0
3E30
ENDCHAR
STARTCHAR 0102
ENCODING 258
SWIDTH 612 0
DWIDTH 17 0
BBX 15 24 1 0
BITMAP
0860
0C40
07C0
0000
0000
0380
0380
0780
06C0
06C0
0CC0
0C60
0C60
1860
1830
1830
3FF0
3FF8
3018
7018
601C
600C
E00C
C00E
ENDCHAR
STARTCHAR 0103
ENCODING 259
SWIDTH 612 0
DWIDTH 17 0
BBX 12 20 2 0
BITMAP
1840
18C0
0DC0
0780
0000
0000
0F80
3FE0
7070
0030
0030
00F0
1FF0
7830
6030
E030
E030
E0F0
7FB0
3E30
ENDCHAR
STARTCHAR 0104
ENCODING 260
SWIDTH 612 0
DWIDTH 17 0
BBX 15 25 1 -6
BITMAP
0380
0380
0780
06C0
06C0
0CC0
0C60
0C60
1860
1830
1830
3FF0
3FF8
3018
7018
601C
600C
E00C
C00E
000C
0018
0018
0018
001E
000E
ENDCHAR
STARTCHAR 0105
ENCODING 261
SWIDTH 612 0
DWIDTH 17 0
BBX 13 20 2 -6
BITMAP
0F80
3FE0
7070
0030
0030
00F0
1FF0
7830
6030
E030
E030
E0F0
7FB0
3E30
0060
0040
00C0
00C0
00F8
0078
ENDCHAR
STARTCHAR 0106
ENCODING 262
SWIDTH 612 0
DWIDTH 17 0
BBX 13 23 2 0
BITMAP
00E0
01C0
0180
0000
07C0
1FF0
3C38
7010
6000
E000
E000
C000
C000
C000
C000
C000
E000
E000
6000
7018
3C38
1FF0
07E0
ENDCHAR
STARTCHAR 0107
ENCODING 263
SWIDTH 612 0
DWIDTH 17 0
BBX 13 20 2 0
BITMAP
00C0
01C0
0180
0300
0000
0000
07C0
1FF0
3830
7000
6000
E000
E000
E000
E000
6000
7000
3838
1FF0
07C0
ENDCHAR
STARTCHAR 0108
ENCODING 264
SWIDTH 612 0
DWIDTH 17 0
BBX 13 23 2 0
BITMAP
0380
06C0
0C60
0000
07C0
1FF0
3C38
7010
6000
E000
E000
C000
C000
C000
C000
C000
E000
E000
6000
7018
3C38
1FF0
07E0
ENDCHAR
STARTCHAR 0109
ENCODING 265
SWIDTH 612 0
DWIDTH 17 0
BBX 13 20 2 0
BITMAP
0380
02C0
06C0
0C60
0000
0000
07C0
1FF0
3830
7000
6000
E000
E000
E000
E000
6000
7000
3838
1FF0
07C0
ENDCHAR
STARTCHAR 010A
ENCODING 266
SWIDTH 612 0
DWIDTH 17 0
BBX 13 23 2 0
BITMAP
0380
0380
0380
0000
07C0
1FF0
3C38
7010
6000
E000
E000
C000
C000
C000
C000
C000
E000
E000
6000
7018
3C38
1FF0
07E0
ENDCHAR
STARTCHAR 010B
ENCODING 267
SWIDTH 612 0
DWIDTH 17 0
BBX 13 20 2 0
BITMAP
0380
0380
0380
0100
0000
0000
07C0
1FF0
3830
7000
6000
E000
E000
E000
E000
6000
7000
3838
1FF0
07C0
ENDCHAR
STARTCHAR 010C
ENCODING 268
SWIDTH 612 0
DWIDTH 17 0
BBX 13 23 2 0
BITMAP
0C60
06C0
0380
0000
07C0
1FF0
3C38
7010
6000
E000
E000
C000
C000
C000
C000
C000
E000
E000
6000
7018
3C38
1FF0
07E0
ENDCHAR
STARTCHAR 010D
ENCODING 269
SWIDTH 612 0
DWIDTH 17 0
BBX 13 20 2 0
BITMAP
0C60
06C0
06C0
0380
0000
0000
07C0
1FF0
3830
7000
6000
E000
E000
E000
E000
6000
7000
3838
1FF0
07C0
ENDCHAR
STARTCHAR 010E
ENCODING 270
SWIDTH 612 0
DWIDTH 17 0
BBX 13 23 2 0
BITMAP
18C0
0D80
0700
0000
FF00
FFC0
E0E0
E070
E030
E038
E018
E018
E018
E018
E018
E018
E018
E038
E030
E070
E0E0
FFC0
FF00
ENDCHAR
STARTCHAR 010F
ENCODING 271
SWIDTH 612 0
DWIDTH 17 0
BBX 16 21 1 0
BITMAP
0003
001B
001A
001A
001A
001A
0018
0F98
1FD8
3878
7018
6018
E018
E018
E018
E018
6018
7038
7878
3FD8
0F18
ENDCHAR
STARTCHAR 0110
ENCODING 272
SWIDTH 612 0
DWIDTH 17 0
BBX 15 19 0 0
BITMAP
1FC0
1FF0
1838
181C
180C
180E
1806
1806
1806
FF86
1806
1806
1806
180E
180E
181C
1838
1FF0
1FC0
ENDCHAR
STARTCHAR 0111
ENCODING 273
SWIDTH 612 0
DWIDTH 17 0
BBX 14 20 2 0
BITMAP
0030
0030
0030
07FC
0030
0030
0F30
3FB0
70F0
E030
E030
C030
C030
C030
C030
C030
E070
70F0
3FB0
1F30
ENDCHAR
STARTCHAR 0112
ENCODING 274
SWIDTH 612 0
DWIDTH 17 0
BBX 12 23 3 0
BITMAP
1FC0
1FC0
0000
0000
FFE0
FFE0
E000
E000
E000
E000
E000
E000
FFC0
FFC0
E000
E000
E000
E000
E000
E000
E000
FFF0
FFF0
ENDCHAR
STARTCHAR 0113
ENCODING 275
SWIDTH 612 0
DWIDTH 17 0
BBX 13 19 2 0
BITMAP
1FC0
1FC0
0000
0000
0000
0F80
3FE0
7070
6030
E018
C018
FFF8
FFF8
C000
E000
6000
7830
3FF0
0FC0
ENDCHAR
STARTCHAR 0114
ENCODING 276
SWIDTH 612 0
DWIDTH 17 0
BBX 12 24 3 0
BITMAP
10C0
1880
0F80
0000
0000
FFE0
FFE0
E000
E000
E000
E000
E000
E000
FFC0
FFC0
E000
E000
E000
E000
E000
E000
E000
FFF0
FFF0
ENDCHAR
STARTCHAR 0115
ENCODING 277
SWIDTH 612 0
DWIDTH 17 0
BBX 13 20 2 0
BITMAP
1840
1840
0DC0
0780
0000
0000
0F80
3FE0
7070
6030
E018
C018
FFF8
FFF8
C000
E000
6000
7830
3FF0
0FC0
ENDCHAR
STARTCHAR 0116
ENCODING 278
SWIDTH 612 0
DWIDTH 17 0
BBX 12 24 3 0
BITMAP
0600
0700
0600
0000
0000
FFE0
FFE0
E000
E000
E000
E000
E000
E000
FFC0
FFC0
E000
E000
E000
E000
E000
E000
E000
FFF0
FFF0
ENDCHAR
STARTCHAR 0117
ENCODING 279
SWIDTH 612 0
DWIDTH 17 0
BBX 13 20 2 0
BITMAP
0700
0780
0700
0000
0000
0000
0F80
3FE0
7070
6030
E018
C018
FFF8
FFF8
C000
E000
6000
7830
3FF0
0FC0
ENDCHAR
STARTCHAR 0118
ENCODING 280
SWIDTH 612 0
DWIDTH 17 0
BBX 12 25 3 -6
BITMAP
FFE0
FFE0
E000
E000
E000
E000
E000
E000
FFC0
FFC0
E000
E000
E000
E000
E000
E000
E000
FFF0
FFF0
0060
00C0
0180
0180
01F0
00F0
ENDCHAR
STARTCHAR 0119
ENCODING 281
SWIDTH 612 0
DWIDTH 17 0
BBX 13 20 2 -6
BITMAP
0F80
3FE0
7070
6030
E018
C018
FFF8
FFF8
C000
E000
6000
7830
3FF0
0FE0
00C0
0080
0080
0180
00F0
00F0
ENDCHAR
STARTCHAR 011A
ENCODING 282
SWIDTH 612 0
DWIDTH 17 0
BBX 12 23 3 0
BITMAP
1880
0D80
0700
0000
FFE0
FFE0
E000
E000
E000
E000
E000
E000
FFC0
FFC0
E000
E000
E000
E000
E000
E000
E000
FFF0
FFF0
ENDCHAR
STARTCHAR 011B
ENCODING 283
SWIDTH 612 0
DWIDTH 17 0
BBX 13 20 2 0
BITMAP
18C0
0C80
0780
0700
0000
0000
0F80
3FE0
7070
6030
E018
C018
FFF8
FFF8
C000
E000
6000
7830
3FF0
0FC0
ENDCHAR
STARTCHAR 011C
ENCODING 284
SWIDTH 612 0
DWIDTH 17 0
BBX 14 23 1 0
BITMAP
01C0
0360
0630
0000
03E0
0FF8
1C18
3800
7000
7000
6000
6000
E000
E0FC
E0FC
600C
600C
700C
700C
380C
1C1C
0FF8
07E0
ENDCHAR
STARTCHAR 011D
ENCODING 285
SWIDTH 612 0
DWIDTH 17 0
BBX 14 26 2 -6
BITMAP
0700
0580
0D80
18C0
0000
0000
0FFC
3FFC
70E0
6060
6060
6060
6060
30C0
3FC0
6400
6000
6000
7FF0
3FF8
601C
C01C
C018
E038
7FF0
1FC0
ENDCHAR
STARTCHAR 011E
ENCODING 286
SWIDTH 612 0
DWIDTH 17 0
BBX 14 23 1 0
BITMAP
0420
0660
03C0
0000
03E0
0FF8
1C18
3800
7000
7000
6000
6000
E000
E0FC
E0FC
600C
600C
700C
700C
380C
1C1C
0FF8
07E0
ENDCHAR
STARTCHAR 011F
ENCODING 287
SWIDTH 612 0
DWIDTH 17 0
BBX 14 26 2 -6
BITMAP
1840
18C0
0F80
0000
0000
0000
0FFC
3FFC
70E0
6060
6060
6060
6060
30C0
3FC0
6400
6000
6000
7FF0
3FF8
601C
C01C
C018
E038
7FF0
1FC0
ENDCHAR
STARTCHAR 0120
ENCODING 288
SWIDTH 612 0
DWIDTH 17 0
BBX 14 23 1 0
BITMAP
0180
01C0
0180
0000
03E0
0FF8
1C18
3800
7000
7000
6000
6000
E000
E0FC
E0FC
600C
600C
700C
700C
380C
1C1C
0FF8
07E0
ENDCHAR
STARTCHAR 0121
ENCODING 289
SWIDTH 612 0
DWIDTH 17 0
BBX 14 26 2 -6
BITMAP
0700
0700
0700
0200
0000
0000
0FFC
3FFC
70E0
6060
6060
6060
6060
30C0
3FC0
6400
6000
6000
7FF0
3FF8
601C
C01C
C018
E038
7FF0
1FC0
ENDCHAR
STARTCHAR 0122
ENCODING 290
SWIDTH 612 0
DWIDTH 17 0
BBX 14 25 1 -6
BITMAP
03E0
0FF8
1C18
3800
7000
7000
6000
6000
E000
E0FC
E0FC
600C
600C
700C
700C
380C
1C1C
0FF8
07E0
0000
0180
00C0
00C0
01C0
0380
ENDCHAR
STARTCHAR 0123
ENCODING 291
SWIDTH 612 0
DWIDTH 17 0
BBX 14 26 2 -6
BITMAP
0380
0600
0400
0600
0200
0000
0FFC
3FFC
70E0
6060
6060
6060
6060
30C0
3FC0
6400
6000
6000
7FF0
3FF8
601C
C01C
C018
E038
7FF0
1FC0
ENDCHAR
STARTCHAR 0124
ENCODING 292
SWIDTH 612 0
DWIDTH 17 0
BBX 12 23 2 0
BITMAP
0700
0D80
18C0
0000
E030
E030
E030
E030
E030
E030
E030
E030
FFF0
FFF0
E030
E030
E030
E030
E030
E030
E030
E030
E030
ENDCHAR
STARTCHAR 0125
ENCODING 293
SWIDTH 612 0
DWIDTH 17 0
BBX 14 24 1 0
BITMAP
7800
7C00
CC00
0000
3000
3000
3000
3000
3000
3000
31E0
37F0
3C38
3818
3018
301C
301C
301C
301C
301C
301C
301C
301C
301C
ENDCHAR
STARTCHAR 0126
ENCODING 294
SWIDTH 612 0
DWIDTH 17 0
BBX 16 19 0 0
BITMAP
380C
380C
380C
FFFF
380C
380C
380C
380C
3FFC
3FFC
380C
380C
380C
380C
380C
380C
380C
380C
380C
ENDCHAR
STARTCHAR 0127
ENCODING 295
SWIDTH 612 0
DWIDTH 17 0
BBX 14 20 1 0
BITMAP
3000
3000
3000
FFC0
3000
3000
3000
31E0
37F0
3C38
3818
3018
301C
301C
301C
301C
301C
301C
301C
301C
ENDCHAR
STARTCHAR 0128
ENCODING 296
SWIDTH 612 0
DWIDTH 17 0
BBX 11 24 3 0
BITMAP
0080
3C80
6780
0000
0000
FFE0
FFE0
0E00
0E00
0E00
0E00
0E00
0E00
0E00
0E00
0E00
0E00
0E00
0E00
0E00
0E00
0E00
FFE0
FFE0
ENDCHAR
STARTCHAR 0129
ENCODING 297
SWIDTH 612 0
DWIDTH 17 0
BBX 12 20 2 0
BITMAP
0030
0F20
09E0
0800
0000
0000
FF80
FF80
0180
0180
0180
0180
0180
0180
0180
0180
0180
0180
0180
0180
ENDCHAR
STARTCHAR 012A
ENCODING 298
SWIDTH 612 0
DWIDTH 17 0
BBX 11 23 3 0
BITMAP
3F80
3F80
0000
0000
FFE0
FFE0
0E00
0E00
0E00
0E00
0E00
0E00
0E00
0E00
0E00
0E00
0E00
0E00
0E00
0E00
0E00
FFE0
FFE0
ENDCHAR
STARTCHAR 012B
ENCODING 299
SWIDTH 612 0
DWIDTH 17 0
BBX 11 19 2 0
BITMAP
0FE0
0FE0
0000
0000
0000
FF80
FF80
0180
0180
0180
0180
0180
0180
0180
0180
0180
0180
0180
0180
ENDCHAR
STARTCHAR 012C
ENCODING 300
SWIDTH 612 0
DWIDTH 17 0
BBX 11 24 3 0
BITMAP
2180
3100
1F00
0000
0000
FFE0
FFE0
0E00
0E00
0E00
0E00
0E00
0E00
0E00
0E00
0E00
0E00
0E00
0E00
0E00
0E00
0E00
FFE0
FFE0
ENDCHAR
STARTCHAR 012D
ENCODING 301
SWIDTH 612 0
DWIDTH 17 0
BBX 11 20 2 0
BITMAP
0C20
0C60
07C0
0000
0000
0000
FF80
FF80
0180
0180
0180
0180
0180
0180
0180
0180
0180
0180
0180
0180
ENDCHAR
STARTCHAR 012E
ENCODING 302
SWIDTH 612 0
DWIDTH 17 0
BBX 11 25 3 -6
BITMAP
FFE0
FFE0
0E00
0E00
0E00
0E00
0E00
0E00
0E00
0E00
0E00
0E00
0E00
0E00
0E00
0E00
0E00
FFE0
FFE0
0C00
1800
1800
1800
1E00
0E00
ENDCHAR
STARTCHAR 012F
ENCODING 303
SWIDTH 612 0
DWIDTH 17 0
BBX 10 26 2 -6
BITMAP
0380
0380
0380
0000
0000
0000
FF80
FF80
0180
0180
0180
0180
0180
0180
0180
0180
0180
0180
0180
0180
0100
0300
0200
0200
03C0
03C0
ENDCHAR
STARTCHAR 0130
ENCODING 304
SWIDTH 612 0
DWIDTH 17 0
BBX 11 24 3 0
BITMAP
0C00
0E00
0E00
0000
0000
FFE0
FFE0
0E00
0E00
0E00
0E00
0E00
0E00
0E00
0E00
0E00
0E00
0E00
0E00
0E00
0E00
0E00
FFE0
FFE0
ENDCHAR
STARTCHAR 0131
ENCODING 305
SWIDTH 612 0
DWIDTH 17 0
BBX 9 14 2 0
BITMAP
FF80
FF80
0180
0180
0180
0180
0180
0180
0180
0180
0180
0180
0180
0180
ENDCHAR
STARTCHAR 0134
ENCODING 308
SWIDTH 612 0
DWIDTH 17 0
BBX 11 23 3 0
BITMAP
0F00
1F00
1980
0000
7FE0
7FE0
00E0
00E0
00E0
00E0
00E0
00E0
00E0
00E0
00E0
00E0
00E0
00E0
00E0
80C0
E1C0
7F80
3F00
ENDCHAR
STARTCHAR 0135
ENCODING 309
SWIDTH 612 0
DWIDTH 17 0
BBX 11 26 2 -6
BITMAP
0380
03C0
06C0
0C60
0000
0000
FF80
FF80
0180
0180
0180
0180
0180
0180
0180
0180
0180
0180
0180
0180
0180
0180
0380
8300
FF00
FC00
ENDCHAR
STARTCHAR 0136
ENCODING 310
SWIDTH 612 0
DWIDTH 17 0
BBX 13 25 3 -6
BITMAP
C070
C060
C0C0
C1C0
C380
C700
C600
CE00
DE00
FF00
F300
E380
C1C0
C0C0
C0E0
C060
C070
C030
C038
0000
0400
0700
0300
0300
0E00
ENDCHAR
STARTCHAR 0137
ENCODING 311
SWIDTH 612 0
DWIDTH 17 0
BBX 13 26 3 -6
BITMAP
C000
C000
C000
C000
C000
C000
C070
C0E0
C1C0
C380
C700
CE00
DF00
FB00
F380
E1C0
C0C0
C060
C070
C038
0000
0400
0700
0300
0300
0C00
ENDCHAR
STARTCHAR 0138
ENCODING 312
SWIDTH 612 0
DWIDTH 17 0
BBX 13 14 3 0
BITMAP
C070
C0E0
C1C0
C380
C700
CE00
DF00
FB00
F380
E1C0
C0C0
C060
C070
C038
ENDCHAR
STARTCHAR 0139
ENCODING 313
SWIDTH 612 0
DWIDTH 17 0
BBX 11 23 4 0
BITMAP
3000
6000
C000
0000
C000
C000
C000
C000
C000
C000
C000
C000
C000
C000
C000
C000
C000
C000
C000
C000
C000
FFE0
FFE0
ENDCHAR
STARTCHAR 013A
ENCODING 314
SWIDTH 612 0
DWIDTH 17 0
BBX 13 24 2 0
BITMAP
0380
0700
0600
0000
FE00
FE00
0600
0600
0600
0600
0600
0600
0600
0600
0600
0600
0600
0600
0600
0600
0600
0700
03F8
01F0
ENDCHAR
STARTCHAR 013B
ENCODING 315
SWIDTH 612 0
DWIDTH 17 0
BBX 11 25 4 -6
BITMAP
C000
C000
C000
C000
C000
C000
C000
C000
C000
C000
C000
C000
C000
C000
C000
C000
C000
FFE0
FFE0
0000
0400
0600
0200
0600
1C00
ENDCHAR
STARTCHAR 013C
ENCODING 316
SWIDTH 612 0
DWIDTH 17 0
BBX 13 26 2 -6
BITMAP
FE00
FE00
0600
0600
0600
0600
0600
0600
0600
0600
0600
0600
0600
0600
0600
0600
0600
0700
03F8
01F0
0000
0180
00C0
00C0
01C0
0380
ENDCHAR
STARTCHAR 013D
ENCODING 317
SWIDTH 612 0
DWIDTH 17 0
BBX 11 21 4 0
BITMAP
0100
0100
C100
C100
C100
C100
C000
C000
C000
C000
C000
C000
C000
C000
C000
C000
C000
C000
C000
FFE0
FFE0
ENDCHAR
STARTCHAR 013E
ENCODING 318
SWIDTH 612 0
DWIDTH 17 0
BBX 13 21 2 0
BITMAP
0060
FE60
FE60
0640
0640
0640
0600
0600
0600
0600
0600
0600
0600
0600
0600
0600
0600
0600
0700
03F8
01F0
ENDCHAR
STARTCHAR 013F
ENCODING 319
SWIDTH 612 0
DWIDTH 17 0
BBX 11 19 4 0
BITMAP
C000
C000
C000
C000
C000
C000
C000
C180
C3C0
C3C0
C100
C000
C000
C000
C000
C000
C000
FFE0
FFE0
ENDCHAR
STARTCHAR 0140
ENCODING 320
SWIDTH 612 0
DWIDTH 17 0
BBX 13 20 1 0
BITMAP
FE00
FE00
0600
0600
0600
0600
0600
0600
0600
0678
0678
0630
0600
0600
0600
0600
0600
0700
03F8
01F0
ENDCHAR
STARTCHAR 0141
ENCODING 321
SWIDTH 612 0
DWIDTH 17 0
BBX 14 19 1 0
BITMAP
1800
1800
1800
1800
1800
1800
1820
18E0
19C0
1F00
1E00
7800
F800
9800
1800
1800
1800
1FFC
1FFC
ENDCHAR
STARTCHAR 0142
ENCODING 322
SWIDTH 612 0
DWIDTH 17 0
BBX 13 20 2 0
BITMAP
FE00
FE00
0600
0600
0600
0610
0670
07C0
0780
1E00
7E00
6600
0600
0600
0600
0600
0600
0700
03F8
01F0
ENDCHAR
STARTCHAR 0143
ENCODING 323
SWIDTH 612 0
DWIDTH 17 0
BBX 12 23 2 0
BITMAP
01C0
0380
0700
0000
E030
E030
F030
F030
D830
D830
CC30
CC30
C630
E630
E330
E330
E1B0
E1B0
E0F0
E0F0
E070
E070
E030
ENDCHAR
STARTCHAR 0144
ENCODING 324
SWIDTH 612 0
DWIDTH 17 0
BBX 12 20 3 0
BITMAP
0380
0300
0600
0C00
0000
0000
C780
DFC0
F0E0
E060
C060
C070
C070
C070
C070
C070
C070
C070
C070
C070
ENDCHAR
STARTCHAR 0145
ENCODING 325
SWIDTH 612 0
DWIDTH 17 0
BBX 12 25 2 -6
BITMAP
E030
E030
F030
F030
D830
D830
CC30
CC30
C630
E630
E330
E330
E1B0
E1B0
E0F0
E0F0
E070
E070
E030
0000
0400
0700
0300
0300
0C00
ENDCHAR
STARTCHAR 0146
ENCODING 326
SWIDTH 612 0
DWIDTH 17 0
BBX 12 20 3 -6
BITMAP
C780
DFC0
F0E0
E060
C060
C070
C070
C070
C070
C070
C070
C070
C070
C070
0000
0400
0600
0300
0600
1C00
ENDCHAR
STARTCHAR 0147
ENCODING 327
SWIDTH 612 0
DWIDTH 17 0
BBX 12 23 2 0
BITMAP
18C0
0D80
0700
0000
E030
E030
F030
F030
D830
D830
CC30
CC30
C630
E630
E330
E330
E1B0
E1B0
E0F0
E0F0
E070
E070
E030
ENDCHAR
STARTCHAR 0148
ENCODING 328
SWIDTH 612 0
DWIDTH 17 0
BBX 12 20 3 0
BITMAP
3180
1980
0F00
0E00
0000
0000
C780
DFC0
F0E0
E060
C060
C070
C070
C070
C070
C070
C070
C070
C070
C070
ENDCHAR
STARTCHAR 0149
ENCODING 329
SWIDTH 612 0
DWIDTH 17 0
BBX 17 20 0 0
BITMAP
E00000
F00000
F00000
F00000
300000
300000
363E00
667F00
C7C700
878300
070380
070380
070380
070380
070380
070380
070380
070380
070380
070380
ENDCHAR
STARTCHAR 014C
ENCODING 332
SWIDTH 612 0
DWIDTH 17 0
BBX 14 22 1 0
BITMAP
0FE0
0FE0
0000
07C0
1FE0
3C70
3038
7018
601C
600C
E00C
E00C
E00C
E00C
E00C
600C
601C
7018
3038
3C70
1FE0
07C0
ENDCHAR
STARTCHAR 014D
ENCODING 333
SWIDTH 612 0
DWIDTH 17 0
BBX 13 19 2 0
BITMAP
1FC0
1FC0
0000
0000
0000
0F80
3FE0
70F0
E030
E038
C038
C018
C018
C038
C038
E030
70F0
3FE0
0F80
ENDCHAR
STARTCHAR 014E
ENCODING 334
SWIDTH 612 0
DWIDTH 17 0
BBX 14 23 1 0
BITMAP
0860
0CC0
0780
0000
07C0
1FE0
3C70
3038
7018
601C
600C
E00C
E00C
E00C
E00C
E00C
600C
601C
7018
3038
3C70
1FE0
07C0
ENDCHAR
STARTCHAR 014F
ENCODING 335
SWIDTH 612 0
DWIDTH 17 0
BBX 13 20 2 0
BITMAP
10C0
18C0
1D80
0F00
0000
0000
0F80
3FE0
70F0
E030
E038
C038
C018
C018
C038
C038
E030
70F0
3FE0
0F80
ENDCHAR
STARTCHAR 0150
ENCODING 336
SWIDTH 612 0
DWIDTH 17 0
BBX 14 23 1 0
BITMAP
0330
0620
0460
0000
07C0
1FE0
3C70
3038
7018
601C
600C
E00C
E00C
E00C
E00C
E00C
600C
601C
7018
3038
3C70
1FE0
07C0
ENDCHAR
STARTCHAR 0151
ENCODING 337
SWIDTH 612 0
DWIDTH 17 0
BBX 13 20 2 0
BITMAP
0660
0660
0CC0
08C0
0000
0000
0F80
3FE0
70F0
E030
E038
C038
C018
C018
C038
C038
E030
70F0
3FE0
0F80
ENDCHAR
STARTCHAR 0152
ENCODING 338
SWIDTH 612 0
DWIDTH 17 0
BBX 15 19 1 0
BITMAP
07FE
1FFE
38C0
70C0
60C0
E0C0
E0C0
C0C0
C0FC
C0FC
C0C0
C0C0
E0C0
E0C0
60C0
70C0
38C0
1FFE
07FE
ENDCHAR
STARTCHAR 0153
ENCODING 339
SWIDTH 612 0
DWIDTH 17 0
BBX 17 14 0 0
BITMAP
1E1C00
3F3E00
71E300
61C300
60C100
E0C180
C0FF80
C0FF00
E0C000
60C000
61C000
71E000
3F3F00
1E1E00
ENDCHAR
STARTCHAR 0154
ENCODING 340
SWIDTH 612 0
DWIDTH 17 0
BBX 12 23 3 0
BITMAP
0380
0600
0C00
0000
FF80
FFC0
C0E0
C070
C070
C070
C070
C060
C0E0
FFC0
FF00
C300
C380
C180
C1C0
C0C0
C0E0
C070
C070
ENDCHAR
STARTCHAR 0155
ENCODING 341
SWIDTH 612 0
DWIDTH 17 0
BBX 11 20 4 0
BITMAP
0300
0600
0600
0C00
0000
0000
C3E0
CFE0
DC00
F000
E000
E000
C000
C000
C000
C000
C000
C000
C000
C000
ENDCHAR
STARTCHAR 0156
ENCODING 342
SWIDTH 612 0
DWIDTH 17 0
BBX 12 25 3 -6
BITMAP
FF80
FFC0
C0E0
C070
C070
C070
C070
C060
C0E0
FFC0
FF00
C300
C380
C180
C1C0
C0C0
C0E0
C070
C070
0000
0400
0700
0300
0600
0C00
ENDCHAR
STARTCHAR 0157
ENCODING 343
SWIDTH 612 0
DWIDTH 17 0
BBX 12 20 3 -6
BITMAP
61F0
67F0
6E00
7800
7000
7000
6000
6000
6000
6000
6000
6000
6000
6000
0000
0000
3000
1000
3000
E000
ENDCHAR
STARTCHAR 0158
ENCODING 344
SWIDTH 612 0
DWIDTH 17 0
BBX 12 23 3 0
BITMAP
3180
1B00
0E00
0000
FF80
FFC0
C0E0
C070
C070
C070
C070
C060
C0E0
FFC0
FF00
C300
C380
C180
C1C0
C0C0
C0E0
C070
C070
ENDCHAR
STARTCHAR 0159
ENCODING 345
SWIDTH 612 0
DWIDTH 17 0
BBX 11 20 4 0
BITMAP
3180
1B00
1B00
0E00
0000
0000
C3E0
CFE0
DC00
F000
E000
E000
C000
C000
C000
C000
C000
C000
C000
C000
ENDCHAR
STARTCHAR 015A
ENCODING 346
SWIDTH 612 0
DWIDTH 17 0
BBX 13 23 2 0
BITMAP
01C0
0380
0300
0000
0F80
3FE0
7870
6000
6000
6000
7000
3C00
1F00
0FC0
01F0
0070
0038
0038
0038
4038
F070
7FE0
1FC0
ENDCHAR
STARTCHAR 015B
ENCODING 347
SWIDTH 612 0
DWIDTH 17 0
BBX 13 20 2 0
BITMAP
0180
0300
0300
0600
0000
0000
1F80
3FE0
7060
6000
6000
7800
1F80
03E0
0070
0038
0038
E030
7FE0
1FC0
ENDCHAR
STARTCHAR 015C
ENCODING 348
SWIDTH 612 0
DWIDTH 17 0
BBX 13 23 2 0
BITMAP
0700
0D80
18C0
0000
0F80
3FE0
7870
6000
6000
6000
7000
3C00
1F00
0FC0
01F0
0070
0038
0038
0038
4038
F070
7FE0
1FC0
ENDCHAR
STARTCHAR 015D
ENCODING 349
SWIDTH 612 0
DWIDTH 17 0
BBX 13 20 2 0
BITMAP
0700
0D00
0D80
18C0
0000
0000
1F80
3FE0
7060
6000
6000
7800
1F80
03E0
0070
0038
0038
E030
7FE0
1FC0
ENDCHAR
STARTCHAR 015E
ENCODING 350
SWIDTH 612 0
DWIDTH 17 0
BBX 13 25 2 -6
BITMAP
0F80
3FE0
7870
6000
6000
6000
7000
3C00
1F00
0FC0
01F0
0070
0038
0038
0038
4038
F070
7FE0
1FC0
0200
0600
0300
0100
0300
0E00
ENDCHAR
STARTCHAR 015F
ENCODING 351
SWIDTH 612 0
DWIDTH 17 0
BBX 13 20 2 -6
BITMAP
1F80
3FE0
7060
6000
6000
7800
1F80
07E0
0070
0038
0038
E030
7FE0
1FC0
0200
0700
0300
0180
0300
0E00
ENDCHAR
STARTCHAR 0160
ENCODING 352
SWIDTH 612 0
DWIDTH 17 0
BBX 13 23 2 0
BITMAP
18C0
0D80
0700
0000
0F80
3FE0
7870
6000
6000
6000
7000
3C00
1F00
0FC0
01F0
0070
0038
0038
0038
4038
F070
7FE0
1FC0
ENDCHAR
STARTCHAR 0161
ENCODING 353
SWIDTH 612 0
DWIDTH 17 0
BBX 13 20 2 0
BITMAP
18C0
0D80
0D00
0700
0000
0000
1F80
3FE0
7060
6000
6000
7800
1F80
03E0
0070
0038
0038
E030
7FE0
1FC0
ENDCHAR
STARTCHAR 0162
ENCODING 354
SWIDTH 612 0
DWIDTH 17 0
BBX 15 25 1 -6
BITMAP
FFFE
FFFE
0380
0380
0380
0380
0380
0380
0380
0380
0380
0380
0380
0380
0380
0380
0380
0380
0380
0300
0300
0180
0180
0380
0600
ENDCHAR
STARTCHAR 0163
ENCODING 355
SWIDTH 612 0
DWIDTH 17 0
BBX 13 24 2 -6
BITMAP
0C00
0C00
0C00
0C00
FFF8
FFF8
0C00
0C00
0C00
0C00
0C00
0C00
0C00
0C00
0C00
0E00
07F8
03F0
0180
0180
00C0
0040
01C0
0380
ENDCHAR
STARTCHAR 0164
ENCODING 356
SWIDTH 612 0
DWIDTH 17 0
BBX 15 23 1 0
BITMAP
0C60
06C0
0380
0000
FFFE
FFFE
0380
0380
0380
0380
0380
0380
0380
0380
0380
0380
0380
0380
0380
0380
0380
0380
0380
ENDCHAR
STARTCHAR 0165
ENCODING 357
SWIDTH 612 0
DWIDTH 17 0
BBX 13 22 2 0
BITMAP
0060
0060
0040
0040
0C40
0C40
0C00
0C00
FFF8
FFF8
0C00
0C00
0C00
0C00
0C00
0C00
0C00
0C00
0C00
0E00
07F8
03F0
ENDCHAR
STARTCHAR 0168
ENCODING 360
SWIDTH 612 0
DWIDTH 17 0
BBX 12 24 2 0
BITMAP
0040
1E40
33C0
0000
0000
E030
E030
E030
E030
E030
E030
E030
E030
E030
E030
E030
E030
E030
E030
E030
6070
70E0
3FE0
0F80
ENDCHAR
STARTCHAR 0169
ENCODING 361
SWIDTH 612 0
DWIDTH 17 0
BBX 12 20 2 0
BITMAP
0040
1EC0
3380
3100
0000
0000
C030
C030
C030
C030
C030
C030
C030
C030
C030
E030
E070
71F0
7FB0
3E30
ENDCHAR
STARTCHAR 016A
ENCODING 362
SWIDTH 612 0
DWIDTH 17 0
BBX 12 23 2 0
BITMAP
1FC0
1FC0
0000
0000
E030
E030
E030
E030
E030
E030
E030
E030
E030
E030
E030
E030
E030
E030
E030
6070
70E0
3FE0
0F80
ENDCHAR
STARTCHAR 016B
ENCODING 363
SWIDTH 612 0
DWIDTH 17 0
BBX 12 19 2 0
BITMAP
1FC0
1FC0
0000
0000
0000
C030
C030
C030
C030
C030
C030
C030
C030
C030
E030
E070
71F0
7FB0
3E30
ENDCHAR
STARTCHAR 016C
ENCODING 364
SWIDTH 612 0
DWIDTH 17 0
BBX 12 24 2 0
BITMAP
10C0
1880
0F80
0000
0000
E030
E030
E030
E030
E030
E030
E030
E030
E030
E030
E030
E030
E030
E030
E030
6070
70E0
3FE0
0F80
ENDCHAR
STARTCHAR 016D
ENCODING 365
SWIDTH 612 0
DWIDTH 17 0
BBX 12 20 2 0
BITMAP
10C0
1980
0F80
0000
0000
0000
C030
C030
C030
C030
C030
C030
C030
C030
C030
E030
E070
71F0
7FB0
3E30
ENDCHAR
STARTCHAR 016E
ENCODING 366
SWIDTH 612 0
DWIDTH 17 0
BBX 12 25 2 0
BITMAP
0700
0980
0880
0980
0700
0000
E030
E030
E030
E030
E030
E030
E030
E030
E030
E030
E030
E030
E030
E030
E030
6070
70E0
3FE0
0F80
ENDCHAR
STARTCHAR 016F
ENCODING 367
SWIDTH 612 0
DWIDTH 17 0
BBX 12 20 2 0
BITMAP
0700
0980
0880
0980
0700
0000
C030
C030
C030
C030
C030
C030
C030
C030
C030
E030
E070
71F0
7FB0
3E30
ENDCHAR
STARTCHAR 0170
ENCODING 368
SWIDTH 612 0
DWIDTH 17 0
BBX 12 23 2 0
BITMAP
0660
0C40
08C0
0000
E030
E030
E030
E030
E030
E030
E030
E030
E030
E030
E030
E030
E030
E030
E030
6070
70E0
3FE0
0F80
ENDCHAR
STARTCHAR 0171
ENCODING 369
SWIDTH 612 0
DWIDTH 17 0
BBX 12 20 2 0
BITMAP
0660
0460
0CC0
0880
0000
0000
C030
C030
C030
C030
C030
C030
C030
C030
C030
E030
E070
71F0
7FB0
3E30
ENDCHAR
STARTCHAR 0172
ENCODING 370
SWIDTH 612 0
DWIDTH 17 0
BBX 12 25 2 -6
BITMAP
E030
E030
E030
E030
E030
E030
E030
E030
E030
E030
E030
E030
E030
E030
E030
6070
70E0
3FE0
0F80
0300
0600
0400
0C00
0780
0780
ENDCHAR
STARTCHAR 0173
ENCODING 371
SWIDTH 612 0
DWIDTH 17 0
BBX 12 20 2 -6
BITMAP
C030
C030
C030
C030
C030
C030
C030
C030
C030
E030
E070
71F0
7FB0
3E30
0060
00C0
00C0
00C0
00F0
0070
ENDCHAR
STARTCHAR 0174
ENCODING 372
SWIDTH 612 0
DWIDTH 17 0
BBX 16 23 0 0
BITMAP
01C0
0360
0630
0000
E003
E003
6003
6003
6003
6183
61C6
71C6
3146
3346
3366
3266
3266
3634
3634
143C
143C
1C1C
1C1C
ENDCHAR
STARTCHAR 0175
ENCODING 373
SWIDTH 612 0
DWIDTH 17 0
BBX 16 20 0 0
BITMAP
01C0
03C0
0360
0630
0000
0000
E003
6183
61C3
61C3
6147
7346
3366
3266
3266
362C
3E3C
1E3C
1C3C
1C1C
ENDCHAR
STARTCHAR 0176
ENCODING 374
SWIDTH 612 0
DWIDTH 17 0
BBX 14 23 1 0
BITMAP
0380
06C0
0C60
0000
E00C
600C
7018
3018
3830
1830
1C60
0C60
0EC0
06C0
0780
0380
0380
0380
0380
0380
0380
0380
0380
ENDCHAR
STARTCHAR 0177
ENCODING 375
SWIDTH 612 0
DWIDTH 17 0
BBX 13 26 2 -6
BITMAP
0700
0D00
0D80
18C0
0000
0000
C018
C018
E030
6030
7070
3060
3060
18C0
18C0
0CC0
0D80
0D80
0700
0700
0700
0600
0E00
0C00
F800
F000
ENDCHAR
STARTCHAR 0178
ENCODING 376
SWIDTH 612 0
DWIDTH 17 0
BBX 14 24 1 0
BITMAP
0840
0CE0
0C60
0000
0000
E00C
600C
7018
3018
3830
1830
1C60
0C60
0EC0
06C0
0780
0380
0380
0380
0380
0380
0380
0380
0380
ENDCHAR
STARTCHAR 0179
ENCODING 377
SWIDTH 612 0
DWIDTH 17 0
BBX 13 23 2 0
BITMAP
01C0
0380
0300
0000
7FF8
7FF8
0030
0060
00E0
00C0
01C0
0380
0300
0700
0E00
0C00
1C00
3800
3000
7000
6000
FFF8
FFF8
ENDCHAR
STARTCHAR 017A
ENCODING 378
SWIDTH 612 0
DWIDTH 17 0
BBX 13 20 2 0
BITMAP
01C0
0180
0300
0600
0000
0000
7FF8
7FF0
0060
00E0
01C0
0380
0700
0E00
0C00
1800
3800
7000
FFF8
FFF8
ENDCHAR
STARTCHAR 017B
ENCODING 379
SWIDTH 612 0
DWIDTH 17 0
BBX 13 24 2 0
BITMAP
0300
0700
0300
0000
0000
7FF8
7FF8
0030
0060
00E0
00C0
01C0
0380
0300
0700
0E00
0C00
1C00
3800
3000
7000
6000
FFF8
FFF8
ENDCHAR
STARTCHAR 017C
ENCODING 380
SWIDTH 612 0
DWIDTH 17 0
BBX 13 20 2 0
BITMAP
0300
0780
0780
0000
0000
0000
7FF8
7FF0
0060
00E0
01C0
0380
0700
0E00
0C00
1800
3800
7000
FFF8
FFF8
ENDCHAR
STARTCHAR 017D
ENCODING 381
SWIDTH 612 0
DWIDTH 17 0
BBX 13 23 2 0
BITMAP
18C0
0D80
0700
0000
7FF8
7FF8
0030
0060
00E0
00C0
01C0
0380
0300
0700
0E00
0C00
1C00
3800
3000
7000
6000
FFF8
FFF8
ENDCHAR
STARTCHAR 017E
ENCODING 382
SWIDTH 612 0
DWIDTH 17 0
BBX 13 20 2 0
BITMAP
08C0
0CC0
0780
0700
0000
0000
7FF8
7FF0
0060
00E0
01C0
0380
0700
0E00
0C00
1800
3800
7000
FFF8
FFF8
ENDCHAR
STARTCHAR 0180
ENCODING 384
SWIDTH 612 0
DWIDTH 17 0
BBX 14 20 1 0
BITMAP
3000
3000
3000
FFC0
3000
3000
33C0
37F0
3C38
3818
301C
300C
300C
300C
301C
301C
3018
3838
3FF0
23C0
ENDCHAR
STARTCHAR 018F
ENCODING 399
SWIDTH 612 0
DWIDTH 17 0
BBX 13 19 2 0
BITMAP
0F80
3FE0
30E0
0070
0038
0038
0018
0018
0018
FFF8
FFF8
C018
C018
E038
E030
7070
38E0
3FC0
0F80
ENDCHAR
STARTCHAR 0192
ENCODING 402
SWIDTH 612 0
DWIDTH 17 0
BBX 13 22 2 -3
BITMAP
00F0
01F8
0380
0300
0300
0700
0700
3FE0
3FE0
0600
0600
0600
0600
0600
0600
0E00
0C00
0C00
0C00
1C00
F800
F000
ENDCHAR
STARTCHAR 01A0
ENCODING 416
SWIDTH 612 0
DWIDTH 17 0
BBX 15 22 1 0
BITMAP
0004
0006
0006
07CC
1FF8
3C70
3038
7018
601C
600C
E00C
E00C
E00C
E00C
E00C
600C
601C
7018
3038
3C70
1FE0
07C0
ENDCHAR
STARTCHAR 01A1
ENCODING 417
SWIDTH 612 0
DWIDTH 17 0
BBX 13 17 2 0
BITMAP
0008
0018
0018
0FB8
3FE0
70F0
E030
E038
C038
C018
C018
C038
C038
E030
70F0
3FE0
0F80
ENDCHAR
STARTCHAR 01AF
ENCODING 431
SWIDTH 612 0
DWIDTH 17 0
BBX 15 23 2 0
BITMAP
0002
0006
0002
0006
E03C
E030
E030
E030
E030
E030
E030
E030
E030
E030
E030
E030
E030
E030
E030
6070
70E0
3FE0
0F80
ENDCHAR
STARTCHAR 01B0
ENCODING 432
SWIDTH 612 0
DWIDTH 17 0
BBX 15 18 2 0
BITMAP
0004
0006
0006
000C
C038
C030
C030
C030
C030
C030
C030
C030
C030
E030
E070
71F0
7FB0
3E30
ENDCHAR
STARTCHAR 01CD
ENCODING 461
SWIDTH 612 0
DWIDTH 17 0
BBX 15 23 1 0
BITMAP
0C60
06C0
0380
0000
0380
0380
0780
06C0
06C0
0CC0
0C60
0C60
1860
1830
1830
3FF0
3FF8
3018
7018
601C
600C
E00C
C00E
ENDCHAR
STARTCHAR 01CE
ENCODING 462
SWIDTH 612 0
DWIDTH 17 0
BBX 12 20 2 0
BITMAP
18C0
0C80
0780
0700
0000
0000
0F80
3FE0
7070
0030
0030
00F0
1FF0
7830
6030
E030
E030
E0F0
7FB0
3E30
ENDCHAR
STARTCHAR 01CF
ENCODING 463
SWIDTH 612 0
DWIDTH 17 0
BBX 11 23 3 0
BITMAP
3180
1B00
0E00
0000
FFE0
FFE0
0E00
0E00
0E00
0E00
0E00
0E00
0E00
0E00
0E00
0E00
0E00
0E00
0E00
0E00
0E00
FFE0
FFE0
ENDCHAR
STARTCHAR 01D0
ENCODING 464
SWIDTH 612 0
DWIDTH 17 0
BBX 11 20 2 0
BITMAP
0C60
0640
03C0
0380
0000
0000
FF80
FF80
0180
0180
0180
0180
0180
0180
0180
0180
0180
0180
0180
0180
ENDCHAR
STARTCHAR 01D1
ENCODING 465
SWIDTH 612 0
DWIDTH 17 0
BBX 14 23 1 0
BITMAP
0C60
06C0
0380
0000
07C0
1FE0
3C70
3038
7018
601C
600C
E00C
E00C
E00C
E00C
E00C
600C
601C
7018
3038
3C70
1FE0
07C0
ENDCHAR
STARTCHAR 01D2
ENCODING 466
SWIDTH 612 0
DWIDTH 17 0
BBX 13 20 2 0
BITMAP
18C0
0980
0F00
0700
0000
0000
0F80
3FE0
70F0
E030
E038
C038
C018
C018
C038
C038
E030
70F0
3FE0
0F80
ENDCHAR
STARTCHAR 01D3
ENCODING 467
SWIDTH 612 0
DWIDTH 17 0
BBX 12 23 2 0
BITMAP
18C0
0D80
0700
0000
E030
E030
E030
E030
E030
E030
E030
E030
E030
E030
E030
E030
E030
E030
E030
6070
70E0
3FE0
0F80
ENDCHAR
STARTCHAR 01D4
ENCODING 468
SWIDTH 612 0
DWIDTH 17 0
BBX 12 20 2 0
BITMAP
18C0
1980
0F00
0700
0000
0000
C030
C030
C030
C030
C030
C030
C030
C030
C030
E030
E070
71F0
7FB0
3E30
ENDCHAR
STARTCHAR 01D5
ENCODING 469
SWIDTH 612 0
DWIDTH 17 0
BBX 12 26 2 0
BITMAP
1FC0
0000
0000
18C0
19C0
0000
0000
E030
E030
E030
E030
E030
E030
E030
E030
E030
E030
E030
E030
E030
E030
E030
6070
70E0
3FE0
0F80
ENDCHAR
STARTCHAR 01D6
ENCODING 470
SWIDTH 612 0
DWIDTH 17 0
BBX 12 22 2 0
BITMAP
1FC0
0000
0080
19C0
18C0
0000
0000
0000
C030
C030
C030
C030
C030
C030
C030
C030
C030
E030
E070
71F0
7FB0
3E30
ENDCHAR
STARTCHAR 01D7
ENCODING 471
SWIDTH 612 0
DWIDTH 17 0
BBX 12 27 2 0
BITMAP
0180
0300
0600
0000
18C0
19C0
0000
0000
E030
E030
E030
E030
E030
E030
E030
E030
E030
E030
E030
E030
E030
E030
E030
6070
70E0
3FE0
0F80
ENDCHAR
STARTCHAR 01D8
ENCODING 472
SWIDTH 612 0
DWIDTH 17 0
BBX 12 23 2 0
BITMAP
0180
0300
0600
0080
19C0
18C0
0000
0000
0000
C030
C030
C030
C030
C030
C030
C030
C030
C030
E030
E070
71F0
7FB0
3E30
ENDCHAR
STARTCHAR 01D9
ENCODING 473
SWIDTH 612 0
DWIDTH 17 0
BBX 12 27 2 0
BITMAP
18C0
0D80
0700
0000
18C0
19C0
0000
0000
E030
E030
E030
E030
E030
E030
E030
E030
E030
E030
E030
E030
E030
E030
E030
6070
70E0
3FE0
0F80
ENDCHAR
STARTCHAR 01DA
ENCODING 474
SWIDTH 612 0
DWIDTH 17 0
BBX 12 23 2 0
BITMAP
1980
0D00
0600
0080
19C0
18C0
0000
0000
0000
C030
C030
C030
C030
C030
C030
C030
C030
C030
E030
E070
71F0
7FB0
3E30
ENDCHAR
STARTCHAR 01DB
ENCODING 475
SWIDTH 612 0
DWIDTH 17 0
BBX 12 27 2 0
BITMAP
1C00
0E00
0600
0000
18C0
19C0
0000
0000
E030
E030
E030
E030
E030
E030
E030
E030
E030
E030
E030
E030
E030
E030
E030
6070
70E0
3FE0
0F80
ENDCHAR
STARTCHAR 01DC
ENCODING 476
SWIDTH 612 0
DWIDTH 17 0
BBX 12 23 2 0
BITMAP
0C00
0600
0200
0080
19C0
18C0
0000
0000
0000
C030
C030
C030
C030
C030
C030
C030
C030
C030
E030
E070
71F0
7FB0
3E30
ENDCHAR
STARTCHAR 01E6
ENCODING 486
SWIDTH 612 0
DWIDTH 17 0
BBX 14 23 1 0
BITMAP
0620
0360
01C0
0000
03E0
0FF8
1C18
3800
7000
7000
6000
6000
E000
E0FC
E0FC
600C
600C
700C
700C
380C
1C1C
0FF8
07E0
ENDCHAR
STARTCHAR 01E7
ENCODING 487
SWIDTH 612 0
DWIDTH 17 0
BBX 14 26 2 -6
BITMAP
18C0
0D80
0D80
0700
0000
0000
0FFC
3FFC
70E0
6060
6060
6060
6060
30C0
3FC0
6400
6000
6000
7FF0
3FF8
601C
C01C
C018
E038
7FF0
1FC0
ENDCHAR
STARTCHAR 01EA
ENCODING 490
SWIDTH 612 0
DWIDTH 17 0
BBX 14 25 1 -6
BITMAP
07C0
1FE0
3C70
3038
7018
601C
600C
E00C
E00C
E00C
E00C
E00C
600C
601C
7018
3038
3C70
1FE0
07C0
0100
0300
0200
0600
03C0
03C0
ENDCHAR
STARTCHAR 01EB
ENCODING 491
SWIDTH 612 0
DWIDTH 17 0
BBX 13 20 2 -6
BITMAP
0F80
3FE0
70F0
E030
C038
C038
C018
C018
C038
C038
E030
70F0
3FE0
0F80
0200
0600
0400
0C00
0780
0780
ENDCHAR
STARTCHAR 0218
ENCODING 536
SWIDTH 612 0
DWIDTH 17 0
BBX 13 25 2 -6
BITMAP
0F80
3FE0
7870
6000
6000
6000
7000
3C00
1F00
0FC0
01F0
0070
0038
0038
0038
4038
F070
7FE0
1FC0
0000
0200
0300
0100
0300
0E00
ENDCHAR
STARTCHAR 0219
ENCODING 537
SWIDTH 612 0
DWIDTH 17 0
BBX 13 20 2 -6
BITMAP
1F80
3FE0
7060
6000
6000
7800
1F80
03E0
0070
0038
0038
E030
7FE0
1FC0
0000
0200
0300
0100
0300
0E00
ENDCHAR
STARTCHAR 021A
ENCODING 538
SWIDTH 612 0
DWIDTH 17 0
BBX 15 25 1 -6
BITMAP
FFFE
FFFE
0380
0380
0380
0380
0380
0380
0380
0380
0380
0380
0380
0380
0380
0380
0380
0380
0380
0000
0200
0380
0180
0180
0600
ENDCHAR
STARTCHAR 021B
ENCODING 539
SWIDTH 612 0
DWIDTH 17 0
BBX 13 24 2 -6
BITMAP
0C00
0C00
0C00
0C00
FFF8
FFF8
0C00
0C00
0C00
0C00
0C00
0C00
0C00
0C00
0C00
0E00
07F8
03F0
0000
0080
00C0
0040
00C0
0380
ENDCHAR
STARTCHAR 0237
ENCODING 567
SWIDTH 612 0
DWIDTH 17 0
BBX 9 20 2 -6
BITMAP
FF80
FF80
0180
0180
0180
0180
0180
0180
0180
0180
0180
0180
0180
0180
0180
0180
0380
8300
FF00
FC00
ENDCHAR
STARTCHAR 0243
ENCODING 579
SWIDTH 612 0
DWIDTH 17 0
BBX 14 19 1 0
BITMAP
3FC0
3FF0
3038
3018
3018
3018
3018
3070
3FC0
3FF0
3018
300C
300C
FF0C
300C
300C
303C
3FF8
3FE0
ENDCHAR
STARTCHAR 0251
ENCODING 593
SWIDTH 612 0
DWIDTH 17 0
BBX 12 14 2 0
BITMAP
1F30
3FF0
70F0
E030
E030
C030
C030
C030
C030
C030
E070
70F0
3FB0
1F30
ENDCHAR
STARTCHAR 0259
ENCODING 601
SWIDTH 612 0
DWIDTH 17 0
BBX 13 14 2 0
BITMAP
1F80
7FE0
60F0
0030
0038
0038
FFF8
FFF8
C038
C038
E030
7070
3FE0
1F80
ENDCHAR
STARTCHAR 0261
ENCODING 609
SWIDTH 612 0
DWIDTH 17 0
BBX 12 20 2 -6
BITMAP
1F30
3FF0
70F0
E030
E030
C030
C030
C030
C030
C030
E070
70F0
3FB0
1E30
0030
0030
0070
60E0
7FC0
1F80
ENDCHAR
STARTCHAR 02B0
ENCODING 688
SWIDTH 612 0
DWIDTH 17 0
BBX 8 13 5 7
BITMAP
C0
C0
C0
C0
FE
E7
C3
C3
C3
C3
C3
C3
C3
ENDCHAR
STARTCHAR 02B2
ENCODING 690
SWIDTH 612 0
DWIDTH 17 0
BBX 7 17 4 4
BITMAP
0E
0C
00
00
7C
0C
0C
0C
0C
0C
0C
0C
0C
0C
0C
DC
F8
ENDCHAR
STARTCHAR 02B3
ENCODING 691
SWIDTH 612 0
DWIDTH 17 0
BBX 7 10 7 7
BITMAP
08
BE
A0
C0
C0
C0
C0
C0
C0
C0
ENDCHAR
STARTCHAR 02B7
ENCODING 695
SWIDTH 612 0
DWIDTH 17 0
BBX 11 9 2 7
BITMAP
C660
4660
6660
6A40
6A40
6BC0
29C0
39C0
3180
ENDCHAR
STARTCHAR 02B8
ENCODING 696
SWIDTH 612 0
DWIDTH 17 0
BBX 8 12 4 4
BITMAP
C1
43
63
62
36
36
14
1C
08
18
18
F0
ENDCHAR
STARTCHAR 02BB
ENCODING 699
SWIDTH 612 0
DWIDTH 17 0
BBX 4 9 6 11
BITMAP
30
70
60
C0
C0
F0
F0
F0
70
ENDCHAR
STARTCHAR 02BC
ENCODING 700
SWIDTH 612 0
DWIDTH 17 0
BBX 5 9 6 9
BITMAP
70
F0
F8
78
18
10
30
60
C0
ENDCHAR
STARTCHAR 02BE
ENCODING 702
SWIDTH 612 0
DWIDTH 17 0
BBX 4 6 7 14
BITMAP
C0
20
30
30
20
C0
ENDCHAR
STARTCHAR 02BF
ENCODING 703
SWIDTH 612 0
DWIDTH 17 0
BBX 4 6 6 14
BITMAP
30
C0
80
80
C0
70
ENDCHAR
STARTCHAR 02C6
ENCODING 710
SWIDTH 612 0
DWIDTH 17 0
BBX 7 4 5 16
BITMAP
38
78
6C
C6
ENDCHAR
STARTCHAR 02C7
ENCODING 711
SWIDTH 612 0
DWIDTH 17 0
BBX 7 4 5 16
BITMAP
C6
4C
68
38
ENDCHAR
STARTCHAR 02C8
ENCODING 712
SWIDTH 612 0
DWIDTH 17 0
BBX 3 9 7 11
BITMAP
E0
E0
E0
E0
C0
C0
C0
C0
C0
ENDCHAR
STARTCHAR 02C9
ENCODING 713
SWIDTH 612 0
DWIDTH 17 0
BBX 7 2 5 17
BITMAP
FE
FE
ENDCHAR
STARTCHAR 02CA
ENCODING 714
SWIDTH 612 0
DWIDTH 17 0
BBX 4 4 7 16
BITMAP
30
60
E0
C0
ENDCHAR
STARTCHAR 02CB
ENCODING 715
SWIDTH 612 0
DWIDTH 17 0
BBX 5 4 5 16
BITMAP
E0
70
30
18
ENDCHAR
STARTCHAR 02CC
ENCODING 716
SWIDTH 612 0
DWIDTH 17 0
BBX 3 9 7 -7
BITMAP
40
C0
C0
C0
C0
E0
E0
E0
E0
ENDCHAR
STARTCHAR 02D8
ENCODING 728
SWIDTH 612 0
DWIDTH 17 0
BBX 7 4 5 16
BITMAP
86
C6
EC
78
ENDCHAR
STARTCHAR 02D9
ENCODING 729
SWIDTH 612 0
DWIDTH 17 0
BBX 3 3 7 16
BITMAP
E0
E0
E0
ENDCHAR
STARTCHAR 02DA
ENCODING 730
SWIDTH 612 0
DWIDTH 17 0
BBX 5 5 6 15
BITMAP
70
98
88
98
70
ENDCHAR
STARTCHAR 02DB
ENCODING 731
SWIDTH 612 0
DWIDTH 17 0
BBX 5 6 6 -6
BITMAP
30
60
40
C0
78
78
ENDCHAR
STARTCHAR 02DC
ENCODING 732
SWIDTH 612 0
DWIDTH 17 0
BBX 8 3 4 16
BITMAP
71
7F
CE
ENDCHAR
STARTCHAR 02DD
ENCODING 733
SWIDTH 612 0
DWIDTH 17 0
BBX 7 4 6 16
BITMAP
66
66
CC
8C
ENDCHAR
STARTCHAR 02E1
ENCODING 737
SWIDTH 612 0
DWIDTH 17 0
BBX 8 13 5 7
BITMAP
F0
10
10
10
10
10
10
10
10
10
18
1E
0F
ENDCHAR
STARTCHAR 02E2
ENCODING 738
SWIDTH 612 0
DWIDTH 17 0
BBX 8 9 5 7
BITMAP
7E
C2
C0
70
3C
06
03
EE
7C
ENDCHAR
STARTCHAR 02E3
ENCODING 739
SWIDTH 612 0
DWIDTH 17 0
BBX 7 9 5 7
BITMAP
C6
66
6C
38
38
28
6C
C6
C2
ENDCHAR
STARTCHAR 0300
ENCODING 768
SWIDTH 612 0
DWIDTH 17 0
BBX 4 4 6 16
BITMAP
C0
E0
60
30
ENDCHAR
STARTCHAR 0301
ENCODING 769
SWIDTH 612 0
DWIDTH 17 0
BBX 4 4 7 16
BITMAP
30
60
60
C0
ENDCHAR
STARTCHAR 0302
ENCODING 770
SWIDTH 612 0
DWIDTH 17 0
BBX 7 4 5 16
BITMAP
38
78
6C
C6
ENDCHAR
STARTCHAR 0303
ENCODING 771
SWIDTH 612 0
DWIDTH 17 0
BBX 8 3 4 16
BITMAP
71
7F
CE
ENDCHAR
STARTCHAR 0304
ENCODING 772
SWIDTH 612 0
DWIDTH 17 0
BBX 7 2 5 17
BITMAP
FE
FE
ENDCHAR
STARTCHAR 0306
ENCODING 774
SWIDTH 612 0
DWIDTH 17 0
BBX 7 4 5 16
BITMAP
86
C6
EC
78
ENDCHAR
STARTCHAR 0307
ENCODING 775
SWIDTH 612 0
DWIDTH 17 0
BBX 3 3 7 16
BITMAP
E0
E0
E0
ENDCHAR
STARTCHAR 0308
ENCODING 776
SWIDTH 612 0
DWIDTH 17 0
BBX 8 3 4 16
BITMAP
E3
E7
E3
ENDCHAR
STARTCHAR 0309
ENCODING 777
SWIDTH 612 0
DWIDTH 17 0
BBX 4 4 7 15
BITMAP
E0
70
30
E0
ENDCHAR
STARTCHAR 030A
ENCODING 778
SWIDTH 612 0
DWIDTH 17 0
BBX 5 5 6 15
BITMAP
70
98
88
98
70
ENDCHAR
STARTCHAR 030B
ENCODING 779
SWIDTH 612 0
DWIDTH 17 0
BBX 7 4 6 16
BITMAP
66
66
CC
8C
ENDCHAR
STARTCHAR 030C
ENCODING 780
SWIDTH 612 0
DWIDTH 17 0
BBX 7 4 5 16
BITMAP
C6
4C
68
38
ENDCHAR
STARTCHAR 030F
ENCODING 783
SWIDTH 612 0
DWIDTH 17 0
BBX 8 4 3 16
BITMAP
CC
66
22
33
ENDCHAR
STARTCHAR 0312
ENCODING 786
SWIDTH 612 0
DWIDTH 17 0
BBX 3 5 7 15
BITMAP
60
C0
80
C0
C0
ENDCHAR
STARTCHAR 0313
ENCODING 787
SWIDTH 612 0
DWIDTH 17 0
BBX 3 5 7 15
BITMAP
E0
E0
60
40
80
ENDCHAR
STARTCHAR 031B
ENCODING 795
SWIDTH 612 0
DWIDTH 17 0
BBX 4 5 8 12
BITMAP
10
30
30
70
C0
ENDCHAR
STARTCHAR 0323
ENCODING 803
SWIDTH 612 0
DWIDTH 17 0
BBX 3 3 7 -7
BITMAP
E0
E0
E0
ENDCHAR
STARTCHAR 0324
ENCODING 804
SWIDTH 612 0
DWIDTH 17 0
BBX 7 3 5 -6
BITMAP
C6
CE
C4
ENDCHAR
STARTCHAR 0326
ENCODING 806
SWIDTH 612 0
DWIDTH 17 0
BBX 4 5 6 -6
BITMAP
40
70
30
30
C0
ENDCHAR
STARTCHAR 0327
ENCODING 807
SWIDTH 612 0
DWIDTH 17 0
BBX 4 6 6 -6
BITMAP
20
60
30
30
70
E0
ENDCHAR
STARTCHAR 0328
ENCODING 808
SWIDTH 612 0
DWIDTH 17 0
BBX 5 6 6 -6
BITMAP
30
60
40
C0
78
78
ENDCHAR
STARTCHAR 032E
ENCODING 814
SWIDTH 612 0
DWIDTH 17 0
BBX 7 4 5 -6
BITMAP
86
C6
EC
78
ENDCHAR
STARTCHAR 0331
ENCODING 817
SWIDTH 612 0
DWIDTH 17 0
BBX 7 2 5 -5
BITMAP
FE
FE
ENDCHAR
STARTCHAR 03C0
ENCODING 960
SWIDTH 612 0
DWIDTH 17 0
BBX 14 14 1 0
BITMAP
FFFC
FFFC
1830
1830
1830
1830
1830
1830
1830
1830
1830
1830
183C
181C
ENDCHAR
STARTCHAR 1D43
ENCODING 7491
SWIDTH 612 0
DWIDTH 17 0
BBX 7 9 5 7
BITMAP
FC
C6
06
1E
76
C6
86
EE
72
ENDCHAR
STARTCHAR 1D47
ENCODING 7495
SWIDTH 612 0
DWIDTH 17 0
BBX 8 13 5 7
BITMAP
C0
C0
C0
C0
FE
C7
C3
C3
C3
C3
C3
FE
BC
ENDCHAR
STARTCHAR 1D48
ENCODING 7496
SWIDTH 612 0
DWIDTH 17 0
BBX 8 13 4 7
BITMAP
03
03
03
03
7F
E3
C3
C3
C3
C3
C3
7F
3D
ENDCHAR
STARTCHAR 1D49
ENCODING 7497
SWIDTH 612 0
DWIDTH 17 0
BBX 9 9 4 7
BITMAP
3E00
6300
6100
4180
FF80
C000
6000
7300
1F00
ENDCHAR
STARTCHAR 1D4D
ENCODING 7501
SWIDTH 612 0
DWIDTH 17 0
BBX 9 13 4 3
BITMAP
3F80
6200
4300
4300
6600
7C00
4000
7000
3F80
C180
C080
E380
3E00
ENDCHAR
STARTCHAR 1D4F
ENCODING 7503
SWIDTH 612 0
DWIDTH 17 0
BBX 9 13 5 7
BITMAP
C000
C000
C000
C000
C300
C600
CC00
D800
FC00
EC00
C600
C300
C180
ENDCHAR
STARTCHAR 1D50
ENCODING 7504
SWIDTH 612 0
DWIDTH 17 0
BBX 9 9 4 8
BITMAP
FF80
DD80
8980
8980
8980
8980
8980
8980
8980
ENDCHAR
STARTCHAR 1D52
ENCODING 7506
SWIDTH 612 0
DWIDTH 17 0
BBX 9 9 4 7
BITMAP
3E00
6300
C100
C180
C180
C180
C300
7700
3C00
ENDCHAR
STARTCHAR 1D56
ENCODING 7510
SWIDTH 612 0
DWIDTH 17 0
BBX 8 12 5 4
BITMAP
BE
C7
C3
C3
C3
C3
C3
FE
FC
C0
C0
C0
ENDCHAR
STARTCHAR 1D57
ENCODING 7511
SWIDTH 612 0
DWIDTH 17 0
BBX 8 12 5 7
BITMAP
20
20
20
FF
20
20
20
20
20
30
3B
1F
ENDCHAR
STARTCHAR 1D58
ENCODING 7512
SWIDTH 612 0
DWIDTH 17 0
BBX 8 9 4 7
BITMAP
C1
C1
C1
C1
C1
C1
C3
7F
39
ENDCHAR
STARTCHAR 1D5B
ENCODING 7515
SWIDTH 612 0
DWIDTH 17 0
BBX 9 9 4 7
BITMAP
C180
4100
6300
6300
2200
3600
1400
1400
1C00
ENDCHAR
STARTCHAR 1D9C
ENCODING 7580
SWIDTH 612 0
DWIDTH 17 0
BBX 8 9 5 7
BITMAP
3E
62
C0
C0
C0
C0
E0
77
3E
ENDCHAR
STARTCHAR 1DA0
ENCODING 7584
SWIDTH 612 0
DWIDTH 17 0
BBX 9 13 5 7
BITMAP
0F80
1800
1800
1000
FF00
1000
1000
1000
1000
1000
1000
1000
1000
ENDCHAR
STARTCHAR 1DBB
ENCODING 7611
SWIDTH 612 0
DWIDTH 17 0
BBX 9 9 4 7
BITMAP
7F00
0300
0600
0C00
1800
3000
7000
6000
FF80
ENDCHAR
STARTCHAR 1E0C
ENCODING 7692
SWIDTH 612 0
DWIDTH 17 0
BBX 13 26 2 -7
BITMAP
FF00
FFC0
E0E0
E070
E030
E038
E018
E018
E018
E018
E018
E018
E018
E038
E030
E070
E0E0
FFC0
FF00
0000
0000
0000
0600
0F00
0F00
0200
ENDCHAR
STARTCHAR 1E0D
ENCODING 7693
SWIDTH 612 0
DWIDTH 17 0
BBX 12 26 2 -6
BITMAP
0030
0030
0030
0030
0030
0030
1F30
3FF0
70F0
E030
E030
C030
C030
C030
C030
C030
E070
70F0
3FB0
1F30
0000
0000
0200
0700
0700
0700
ENDCHAR
STARTCHAR 1E0E
ENCODING 7694
SWIDTH 612 0
DWIDTH 17 0
BBX 13 24 2 -5
BITMAP
FF00
FFC0
E0E0
E070
E030
E038
E018
E018
E018
E018
E018
E018
E018
E038
E030
E070
E0E0
FFC0
FF00
0000
0000
0000
1F80
1F80
ENDCHAR
STARTCHAR 1E0F
ENCODING 7695
SWIDTH 612 0
DWIDTH 17 0
BBX 12 25 2 -5
BITMAP
0030
0030
0030
0030
0030
0030
1F30
3FF0
70F0
E030
E030
C030
C030
C030
C030
C030
E070
70F0
3FB0
1F30
0000
0000
0000
1FC0
1FC0
ENDCHAR
STARTCHAR 1E20
ENCODING 7712
SWIDTH 612 0
DWIDTH 17 0
BBX 14 22 1 0
BITMAP
07F0
07F0
0000
03E0
0FF8
1C18
3800
7000
7000
6000
6000
E000
E0FC
E0FC
600C
600C
700C
700C
380C
1C1C
0FF8
07E0
ENDCHAR
STARTCHAR 1E21
ENCODING 7713
SWIDTH 612 0
DWIDTH 17 0
BBX 14 25 2 -6
BITMAP
1FC0
1FC0
0000
0000
0000
0FFC
3FFC
70E0
6060
6060
6060
6060
30C0
3FC0
6400
6000
6000
7FF0
3FF8
601C
C01C
C018
E038
7FF0
1FC0
ENDCHAR
STARTCHAR 1E24
ENCODING 7716
SWIDTH 612 0
DWIDTH 17 0
BBX 12 25 2 -7
BITMAP
E030
E030
E030
E030
E030
E030
E030
E030
FFF0
FFF0
E030
E030
E030
E030
E030
E030
E030
E030
E030
0000
0000
0000
0700
0700
0700
ENDCHAR
STARTCHAR 1E25
ENCODING 7717
SWIDTH 612 0
DWIDTH 17 0
BBX 12 26 3 -7
BITMAP
C000
C000
C000
C000
C000
C000
C780
DFC0
F0E0
E060
C060
C070
C070
C070
C070
C070
C070
C070
C070
C070
0000
0000
0000
0E00
0F00
0E00
ENDCHAR
STARTCHAR 1E2A
ENCODING 7722
SWIDTH 612 0
DWIDTH 17 0
BBX 12 25 2 -6
BITMAP
E030
E030
E030
E030
E030
E030
E030
E030
FFF0
FFF0
E030
E030
E030
E030
E030
E030
E030
E030
E030
0000
0000
10C0
18C0
1D80
0F00
ENDCHAR
STARTCHAR 1E2B
ENCODING 7723
SWIDTH 612 0
DWIDTH 17 0
BBX 12 26 3 -6
BITMAP
C000
C000
C000
C000
C000
C000
C780
DFC0
F0E0
E060
C060
C070
C070
C070
C070
C070
C070
C070
C070
C070
0000
0000
3080
3180
1B80
0F00
ENDCHAR
STARTCHAR 1E36
ENCODING 7734
SWIDTH 612 0
DWIDTH 17 0
BBX 11 25 4 -7
BITMAP
C000
C000
C000
C000
C000
C000
C000
C000
C000
C000
C000
C000
C000
C000
C000
C000
C000
FFE0
FFE0
0000
0000
0000
0E00
0E00
0E00
ENDCHAR
STARTCHAR 1E37
ENCODING 7735
SWIDTH 612 0
DWIDTH 17 0
BBX 13 26 2 -6
BITMAP
FE00
FE00
0600
0600
0600
0600
0600
0600
0600
0600
0600
0600
0600
0600
0600
0600
0600
0700
03F8
01F0
0000
0000
0000
01C0
03C0
01C0
ENDCHAR
STARTCHAR 1E38
ENCODING 7736
SWIDTH 612 0
DWIDTH 17 0
BBX 13 29 2 -7
BITMAP
FE00
FE00
0000
0000
3000
3000
3000
3000
3000
3000
3000
3000
3000
3000
3000
3000
3000
3000
3000
3000
3000
3FF8
3FF8
0000
0000
0000
0380
0380
0380
ENDCHAR
STARTCHAR 1E39
ENCODING 7737
SWIDTH 612 0
DWIDTH 17 0
BBX 13 31 2 -6
BITMAP
3F80
3F80
0000
0000
0000
FE00
FE00
0600
0600
0600
0600
0600
0600
0600
0600
0600
0600
0600
0600
0600
0600
0600
0700
03F8
01F0
0000
0000
0000
01C0
03C0
01C0
ENDCHAR
STARTCHAR 1E3A
ENCODING 7738
SWIDTH 612 0
DWIDTH 17 0
BBX 11 24 4 -5
BITMAP
C000
C000
C000
C000
C000
C000
C000
C000
C000
C000
C000
C000
C000
C000
C000
C000
C000
FFE0
FFE0
0000
0000
0000
3F80
3F80
ENDCHAR
STARTCHAR 1E3B
ENCODING 7739
SWIDTH 612 0
DWIDTH 17 0
BBX 13 25 2 -5
BITMAP
FE00
FE00
0600
0600
0600
0600
0600
0600
0600
0600
0600
0600
0600
0600
0600
0600
0600
0700
03F8
01F0
0000
0000
0000
07F0
07F0
ENDCHAR
STARTCHAR 1E42
ENCODING 7746
SWIDTH 612 0
DWIDTH 17 0
BBX 12 25 2 -7
BITMAP
E030
E070
F070
F050
D0D0
D8D0
D8B0
C9B0
CDB0
CD30
C530
C730
C630
C230
C030
C030
C030
C030
C030
0000
0000
0000
0700
0700
0700
ENDCHAR
STARTCHAR 1E43
ENCODING 7747
SWIDTH 612 0
DWIDTH 17 0
BBX 13 21 2 -7
BITMAP
9C70
FEF8
E798
C318
C218
C218
C218
C218
C218
C218
C218
C218
C218
C218
0000
0000
0000
0700
0700
0700
0200
ENDCHAR
STARTCHAR 1E44
ENCODING 7748
SWIDTH 612 0
DWIDTH 17 0
BBX 12 24 2 0
BITMAP
0700
0700
0700
0000
0000
E030
E030
F030
F030
D830
D830
CC30
CC30
C630
E630
E330
E330
E1B0
E1B0
E0F0
E0F0
E070
E070
E030
ENDCHAR
STARTCHAR 1E45
ENCODING 7749
SWIDTH 612 0
DWIDTH 17 0
BBX 12 20 3 0
BITMAP
0600
0F00
0F00
0000
0000
0000
C780
DFC0
F0E0
E060
C060
C070
C070
C070
C070
C070
C070
C070
C070
C070
ENDCHAR
STARTCHAR 1E46
ENCODING 7750
SWIDTH 612 0
DWIDTH 17 0
BBX 12 25 2 -7
BITMAP
E030
E030
F030
F030
D830
D830
CC30
CC30
C630
E630
E330
E330
E1B0
E1B0
E0F0
E0F0
E070
E070
E030
0000
0000
0000
0700
0700
0700
ENDCHAR
STARTCHAR 1E47
ENCODING 7751
SWIDTH 612 0
DWIDTH 17 0
BBX 12 20 3 -7
BITMAP
C780
DFC0
F0E0
E060
C060
C070
C070
C070
C070
C070
C070
C070
C070
C070
0000
0000
0000
0E00
0E00
0E00
ENDCHAR
STARTCHAR 1E48
ENCODING 7752
SWIDTH 612 0
DWIDTH 17 0
BBX 12 24 2 -5
BITMAP
E030
E030
F030
F030
D830
D830
CC30
CC30
C630
E630
E330
E330
E1B0
E1B0
E0F0
E0F0
E070
E070
E030
0000
0000
0000
1FC0
1FC0
ENDCHAR
STARTCHAR 1E49
ENCODING 7753
SWIDTH 612 0
DWIDTH 17 0
BBX 12 19 3 -5
BITMAP
C780
DFC0
F0E0
E060
C060
C070
C070
C070
C070
C070
C070
C070
C070
C070
0000
0000
0000
3F80
3F80
ENDCHAR
STARTCHAR 1E5A
ENCODING 7770
SWIDTH 612 0
DWIDTH 17 0
BBX 12 25 3 -7
BITMAP
FF80
FFC0
C0E0
C070
C070
C070
C070
C060
C0E0
FFC0
FF00
C300
C380
C180
C1C0
C0C0
C0E0
C070
C070
0000
0000
0000
0600
0F00
0F00
ENDCHAR
STARTCHAR 1E5B
ENCODING 7771
SWIDTH 612 0
DWIDTH 17 0
BBX 11 21 4 -7
BITMAP
C3E0
CFE0
DC00
F000
E000
E000
C000
C000
C000
C000
C000
C000
C000
C000
0000
0000
0000
E000
E000
E000
4000
ENDCHAR
STARTCHAR 1E5C
ENCODING 7772
SWIDTH 612 0
DWIDTH 17 0
BBX 12 29 3 -7
BITMAP
3F80
3F80
0000
0000
FF80
FFC0
C0E0
C070
C070
C070
C070
C060
C0E0
FFC0
FF00
C300
C380
C180
C1C0
C0C0
C0E0
C070
C070
0000
0000
0000
0600
0F00
0F00
ENDCHAR
STARTCHAR 1E5D
ENCODING 7773
SWIDTH 612 0
DWIDTH 17 0
BBX 11 26 4 -7
BITMAP
3F80
3F80
0000
0000
0000
C3E0
CFE0
DC00
F000
E000
E000
C000
C000
C000
C000
C000
C000
C000
C000
0000
0000
0000
E000
E000
E000
4000
ENDCHAR
STARTCHAR 1E5E
ENCODING 7774
SWIDTH 612 0
DWIDTH 17 0
BBX 12 24 3 -5
BITMAP
FF80
FFC0
C0E0
C070
C070
C070
C070
C060
C0E0
FFC0
FF00
C300
C380
C180
C1C0
C0C0
C0E0
C070
C070
0000
0000
0000
3F80
3F80
ENDCHAR
STARTCHAR 1E5F
ENCODING 7775
SWIDTH 612 0
DWIDTH 17 0
BBX 13 19 2 -5
BITMAP
30F8
33F8
3700
3C00
3800
3800
3000
3000
3000
3000
3000
3000
3000
3000
0000
0000
0000
FE00
FE00
ENDCHAR
STARTCHAR 1E60
ENCODING 7776
SWIDTH 612 0
DWIDTH 17 0
BBX 13 23 2 0
BITMAP
0700
0700
0700
0000
0F80
3FE0
7870
6000
6000
6000
7000
3C00
1F00
0FC0
01F0
0070
0038
0038
0038
4038
F070
7FE0
1FC0
ENDCHAR
STARTCHAR 1E61
ENCODING 7777
SWIDTH 612 0
DWIDTH 17 0
BBX 13 20 2 0
BITMAP
0700
0700
0700
0000
0000
0000
1F80
3FE0
7060
6000
6000
7800
1F80
03E0
0070
0038
0038
E030
7FE0
1FC0
ENDCHAR
STARTCHAR 1E62
ENCODING 7778
SWIDTH 612 0
DWIDTH 17 0
BBX 13 25 2 -6
BITMAP
0F80
3FE0
7870
6000
6000
6000
7000
3C00
1F00
0FC0
01F0
0070
0038
0038
0038
4038
F070
7FE0
1FC0
0000
0000
0000
0700
0700
0700
ENDCHAR
STARTCHAR 1E63
ENCODING 7779
SWIDTH 612 0
DWIDTH 17 0
BBX 13 20 2 -6
BITMAP
1F80
3FE0
7060
6000
6000
7800
1F80
03E0
0070
0038
0038
E030
7FE0
1FC0
0000
0000
0000
0700
0700
0700
ENDCHAR
STARTCHAR 1E6C
ENCODING 7788
SWIDTH 612 0
DWIDTH 17 0
BBX 15 25 1 -7
BITMAP
FFFE
FFFE
0380
0380
0380
0380
0380
0380
0380
0380
0380
0380
0380
0380
0380
0380
0380
0380
0380
0000
0000
0000
0380
0380
0380
ENDCHAR
STARTCHAR 1E6D
ENCODING 7789
SWIDTH 612 0
DWIDTH 17 0
BBX 13 24 2 -6
BITMAP
0C00
0C00
0C00
0C00
FFF8
FFF8
0C00
0C00
0C00
0C00
0C00
0C00
0C00
0C00
0C00
0E00
07F8
03F0
0000
0000
0080
01C0
01C0
01C0
ENDCHAR
STARTCHAR 1E6E
ENCODING 7790
SWIDTH 612 0
DWIDTH 17 0
BBX 15 24 1 -5
BITMAP
FFFE
FFFE
0380
0380
0380
0380
0380
0380
0380
0380
0380
0380
0380
0380
0380
0380
0380
0380
0380
0000
0000
0000
0FE0
0FE0
ENDCHAR
STARTCHAR 1E6F
ENCODING 7791
SWIDTH 612 0
DWIDTH 17 0
BBX 13 23 2 -5
BITMAP
0C00
0C00
0C00
0C00
FFF8
FFF8
0C00
0C00
0C00
0C00
0C00
0C00
0C00
0C00
0C00
0E00
07F8
03F0
0000
0000
0000
07F0
07F0
ENDCHAR
STARTCHAR 1E80
ENCODING 7808
SWIDTH 612 0
DWIDTH 17 0
BBX 16 23 0 0
BITMAP
0700
0380
0180
0000
E003
E003
6003
6003
6003
6183
61C6
71C6
3146
3346
3366
3266
3266
3634
3634
143C
143C
1C1C
1C1C
ENDCHAR
STARTCHAR 1E81
ENCODING 7809
SWIDTH 612 0
DWIDTH 17 0
BBX 16 20 0 0
BITMAP
0300
0380
0180
00C0
0000
0000
E003
6183
61C3
61C3
6147
7346
3366
3266
3266
362C
3E3C
1E3C
1C3C
1C1C
ENDCHAR
STARTCHAR 1E82
ENCODING 7810
SWIDTH 612 0
DWIDTH 17 0
BBX 16 23 0 0
BITMAP
0060
00C0
0180
0000
E003
E003
6003
6003
6003
6183
61C6
71C6
3146
3346
3366
3266
3266
3634
3634
143C
143C
1C1C
1C1C
ENDCHAR
STARTCHAR 1E83
ENCODING 7811
SWIDTH 612 0
DWIDTH 17 0
BBX 16 20 0 0
BITMAP
0060
00C0
00C0
0180
0000
0000
E003
6183
61C3
61C3
6147
7346
3366
3266
3266
362C
3E3C
1E3C
1C3C
1C1C
ENDCHAR
STARTCHAR 1E84
ENCODING 7812
SWIDTH 612 0
DWIDTH 17 0
BBX 16 23 0 0
BITMAP
0630
0670
0620
0000
E003
E003
6003
6003
6003
6183
61C6
71C6
3146
3346
3366
3266
3266
3634
3634
143C
143C
1C1C
1C1C
ENDCHAR
STARTCHAR 1E85
ENCODING 7813
SWIDTH 612 0
DWIDTH 17 0
BBX 16 20 0 0
BITMAP
0630
0E38
0E30
0000
0000
0000
E003
6183
61C3
61C3
6147
7346
3366
3266
3266
362C
3E3C
1E3C
1C3C
1C1C
ENDCHAR
STARTCHAR 1E8E
ENCODING 7822
SWIDTH 612 0
DWIDTH 17 0
BBX 14 24 1 0
BITMAP
0300
0380
0380
0000
0000
E00C
600C
7018
3018
3830
1830
1C60
0C60
0EC0
06C0
0780
0380
0380
0380
0380
0380
0380
0380
0380
ENDCHAR
STARTCHAR 1E8F
ENCODING 7823
SWIDTH 612 0
DWIDTH 17 0
BBX 13 26 2 -6
BITMAP
0700
0700
0700
0200
0000
0000
C018
C018
E030
6030
7070
3060
3060
18C0
18C0
0CC0
0D80
0D80
0700
0700
0700
0600
0E00
0C00
F800
F000
ENDCHAR
STARTCHAR 1E92
ENCODING 7826
SWIDTH 612 0
DWIDTH 17 0
BBX 13 25 2 -7
BITMAP
7FF8
7FF8
0030
0060
00E0
00C0
01C0
0380
0300
0700
0E00
0C00
1C00
3800
3000
7000
6000
FFF8
FFF8
0000
0000
0000
0700
0700
0700
ENDCHAR
STARTCHAR 1E93
ENCODING 7827
SWIDTH 612 0
DWIDTH 17 0
BBX 13 20 2 -7
BITMAP
7FF8
7FF0
0060
00E0
01C0
0380
0700
0E00
0C00
1800
3800
7000
FFF8
FFF8
0000
0000
0000
0700
0780
0700
ENDCHAR
STARTCHAR 1E97
ENCODING 7831
SWIDTH 612 0
DWIDTH 17 0
BBX 13 24 2 0
BITMAP
3180
71C0
7180
0000
0000
0000
0C00
0C00
0C00
0C00
FFF8
FFF8
0C00
0C00
0C00
0C00
0C00
0C00
0C00
0C00
0C00
0E00
07F8
03F0
ENDCHAR
STARTCHAR 1E9E
ENCODING 7838
SWIDTH 612 0
DWIDTH 17 0
BBX 14 19 2 0
BITMAP
0F80
3FE0
70E0
6070
E030
E060
E0C0
E1C0
E180
E1E0
E0F0
E038
E018
E01C
E01C
E018
E638
E7F0
E3E0
ENDCHAR
STARTCHAR 1EA0
ENCODING 7840
SWIDTH 612 0
DWIDTH 17 0
BBX 15 25 1 -7
BITMAP
0380
0380
0780
06C0
06C0
0CC0
0C60
0C60
1860
1830
1830
3FF0
3FF8
3018
7018
601C
600C
E00C
C00E
0000
0000
0000
0380
0380
0380
ENDCHAR
STARTCHAR 1EA1
ENCODING 7841
SWIDTH 612 0
DWIDTH 17 0
BBX 12 20 2 -6
BITMAP
0F80
3FE0
7070
0030
0030
00F0
1FF0
7830
6030
E030
E030
E0F0
7FB0
3E30
0000
0000
0200
0700
0700
0700
ENDCHAR
STARTCHAR 1EA2
ENCODING 7842
SWIDTH 612 0
DWIDTH 17 0
BBX 15 25 1 0
BITMAP
0300
0380
00C0
0180
0300
0000
0380
0380
0780
06C0
06C0
0CC0
0C60
0C60
1860
1830
1830
3FF0
3FF8
3018
7018
601C
600C
E00C
C00E
ENDCHAR
STARTCHAR 1EA3
ENCODING 7843
SWIDTH 612 0
DWIDTH 17 0
BBX 12 20 2 0
BITMAP
0700
0180
0180
0300
0000
0000
0F80
3FE0
7070
0030
0030
00F0
1FF0
7830
6030
E030
E030
E0F0
7FB0
3E30
ENDCHAR
STARTCHAR 1EA4
ENCODING 7844
SWIDTH 612 0
DWIDTH 17 0
BBX 15 25 1 0
BITMAP
0018
0018
03B0
06C0
0C60
0000
0380
0380
0780
06C0
06C0
0CC0
0C60
0C60
1860
1830
1830
3FF0
3FF8
3018
7018
601C
600C
E00C
C00E
ENDCHAR
STARTCHAR 1EA5
ENCODING 7845
SWIDTH 612 0
DWIDTH 17 0
BBX 13 21 2 0
BITMAP
0018
0030
0720
0D80
08C0
0000
0000
0F80
3FE0
7070
0030
0030
00F0
1FF0
7830
6030
E030
E030
E0F0
7FB0
3E30
ENDCHAR
STARTCHAR 1EA6
ENCODING 7846
SWIDTH 612 0
DWIDTH 17 0
BBX 15 25 1 0
BITMAP
0060
0030
0390
06C0
0C60
0000
0380
0380
0780
06C0
06C0
0CC0
0C60
0C60
1860
1830
1830
3FF0
3FF8
3018
7018
601C
600C
E00C
C00E
ENDCHAR
STARTCHAR 1EA7
ENCODING 7847
SWIDTH 612 0
DWIDTH 17 0
BBX 12 21 2 0
BITMAP
0060
0020
0730
0D80
08C0
0000
0000
0F80
3FE0
7070
0030
0030
00F0
1FF0
7830
6030
E030
E030
E0F0
7FB0
3E30
ENDCHAR
STARTCHAR 1EA8
ENCODING 7848
SWIDTH 612 0
DWIDTH 17 0
BBX 15 26 1 0
BITMAP
0030
0018
0018
0398
06E0
0C60
0000
0380
0380
0780
06C0
06C0
0CC0
0C60
0C60
1860
1830
1830
3FF0
3FF8
3018
7018
601C
600C
E00C
C00E
ENDCHAR
STARTCHAR 1EA9
ENCODING 7849
SWIDTH 612 0
DWIDTH 17 0
BBX 12 22 2 0
BITMAP
0060
0030
0010
0730
0D80
08C0
0000
0000
0F80
3FE0
7070
0030
0030
00F0
1FF0
7830
6030
E030
E030
E0F0
7FB0
3E30
ENDCHAR
STARTCHAR 1EAA
ENCODING 7850
SWIDTH 612 0
DWIDTH 17 0
BBX 15 27 1 0
BITMAP
0620
0FE0
08C0
0000
0380
06C0
0C60
0000
0380
0380
0780
06C0
06C0
0CC0
0C60
0C60
1860
1830
1830
3FF0
3FF8
3018
7018
601C
600C
E00C
C00E
ENDCHAR
STARTCHAR 1EAB
ENCODING 7851
SWIDTH 612 0
DWIDTH 17 0
BBX 12 22 2 0
BITMAP
0E40
13C0
0000
0700
0D80
08C0
0000
0000
0F80
3FE0
7070
0030
0030
00F0
1FF0
7830
6030
E030
E030
E0F0
7FB0
3E30
ENDCHAR
STARTCHAR 1EAC
ENCODING 7852
SWIDTH 612 0
DWIDTH 17 0
BBX 15 29 1 -7
BITMAP
0380
06C0
0C60
0000
0380
0380
0780
06C0
06C0
0CC0
0C60
0C60
1860
1830
1830
3FF0
3FF8
3018
7018
601C
600C
E00C
C00E
0000
0000
0000
0380
0380
0380
ENDCHAR
STARTCHAR 1EAD
ENCODING 7853
SWIDTH 612 0
DWIDTH 17 0
BBX 12 26 2 -6
BITMAP
0700
0780
0C80
18C0
0000
0000
0F80
3FE0
7070
0030
0030
00F0
1FF0
7830
6030
E030
E030
E0F0
7FB0
3E30
0000
0000
0200
0700
0700
0700
ENDCHAR
STARTCHAR 1EAE
ENCODING 7854
SWIDTH 612 0
DWIDTH 17 0
BBX 15 26 1 0
BITMAP
00C0
0180
0100
0C40
07C0
0000
0000
0380
0380
0780
06C0
06C0
0CC0
0C60
0C60
1860
1830
1830
3FF0
3FF8
3018
7018
601C
600C
E00C
C00E
ENDCHAR
STARTCHAR 1EAF
ENCODING 7855
SWIDTH 612 0
DWIDTH 17 0
BBX 12 22 2 0
BITMAP
0180
0100
1240
1840
0CC0
0780
0000
0000
0F80
3FE0
7070
0030
0030
00F0
1FF0
7830
6030
E030
E030
E0F0
7FB0
3E30
ENDCHAR
STARTCHAR 1EB0
ENCODING 7856
SWIDTH 612 0
DWIDTH 17 0
BBX 15 26 1 0
BITMAP
0600
0200
0100
0C40
07C0
0000
0000
0380
0380
0780
06C0
06C0
0CC0
0C60
0C60
1860
1830
1830
3FF0
3FF8
3018
7018
601C
600C
E00C
C00E
ENDCHAR
STARTCHAR 1EB1
ENCODING 7857
SWIDTH 612 0
DWIDTH 17 0
BBX 12 22 2 0
BITMAP
0C00
0600
1240
1840
0CC0
0780
0000
0000
0F80
3FE0
7070
0030
0030
00F0
1FF0
7830
6030
E030
E030
E0F0
7FB0
3E30
ENDCHAR
STARTCHAR 1EB2
ENCODING 7858
SWIDTH 612 0
DWIDTH 17 0
BBX 15 27 1 0
BITMAP
0380
0180
0180
0960
0C40
07C0
0000
0000
0380
0380
0780
06C0
06C0
0CC0
0C60
0C60
1860
1830
1830
3FF0
3FF8
3018
7018
601C
600C
E00C
C00E
ENDCHAR
STARTCHAR 1EB3
ENCODING 7859
SWIDTH 612 0
DWIDTH 17 0
BBX 12 23 2 0
BITMAP
0700
0180
0100
0300
1840
0CC0
0780
0000
0000
0F80
3FE0
7070
0030
0030
00F0
1FF0
7830
6030
E030
E030
E0F0
7FB0
3E30
ENDCHAR
STARTCHAR 1EB4
ENCODING 7860
SWIDTH 612 0
DWIDTH 17 0
BBX 15 27 1 0
BITMAP
0E20
0F60
09C0
0000
0C40
07C0
0000
0000
0380
0380
0780
06C0
06C0
0CC0
0C60
0C60
1860
1830
1830
3FF0
3FF8
3018
7018
601C
600C
E00C
C00E
ENDCHAR
STARTCHAR 1EB5
ENCODING 7861
SWIDTH 612 0
DWIDTH 17 0
BBX 12 22 2 0
BITMAP
0E40
13C0
0000
1840
0CC0
0780
0000
0000
0F80
3FE0
7070
0030
0030
00F0
1FF0
7830
6030
E030
E030
E0F0
7FB0
3E30
ENDCHAR
STARTCHAR 1EB6
ENCODING 7862
SWIDTH 612 0
DWIDTH 17 0
BBX 15 30 1 -7
BITMAP
0860
0C40
07C0
0000
0000
0380
0380
0780
06C0
06C0
0CC0
0C60
0C60
1860
1830
1830
3FF0
3FF8
3018
7018
601C
600C
E00C
C00E
0000
0000
0000
0380
0380
0380
ENDCHAR
STARTCHAR 1EB7
ENCODING 7863
SWIDTH 612 0
DWIDTH 17 0
BBX 12 26 2 -6
BITMAP
1840
18C0
0DC0
0780
0000
0000
0F80
3FE0
7070
0030
0030
00F0
1FF0
7830
6030
E030
E030
E0F0
7FB0
3E30
0000
0000
0200
0700
0700
0700
ENDCHAR
STARTCHAR 1EB8
ENCODING 7864
SWIDTH 612 0
DWIDTH 17 0
BBX 12 25 3 -7
BITMAP
FFE0
FFE0
E000
E000
E000
E000
E000
E000
FFC0
FFC0
E000
E000
E000
E000
E000
E000
E000
FFF0
FFF0
0000
0000
0000
0700
0F00
0700
ENDCHAR
STARTCHAR 1EB9
ENCODING 7865
SWIDTH 612 0
DWIDTH 17 0
BBX 13 20 2 -6
BITMAP
0F80
3FE0
7070
6030
E018
C018
FFF8
FFF8
C000
E000
6000
7830
3FF0
0FC0
0000
0000
0000
0700
0780
0700
ENDCHAR
STARTCHAR 1EBA
ENCODING 7866
SWIDTH 612 0
DWIDTH 17 0
BBX 12 25 3 0
BITMAP
0600
0700
0100
0300
0600
0000
FFE0
FFE0
E000
E000
E000
E000
E000
E000
FFC0
FFC0
E000
E000
E000
E000
E000
E000
E000
FFF0
FFF0
ENDCHAR
STARTCHAR 1EBB
ENCODING 7867
SWIDTH 612 0
DWIDTH 17 0
BBX 13 20 2 0
BITMAP
0700
0180
0180
0300
0000
0000
0F80
3FE0
7070
6030
E018
C018
FFF8
FFF8
C000
E000
6000
7830
3FF0
0FC0
ENDCHAR
STARTCHAR 1EBC
ENCODING 7868
SWIDTH 612 0
DWIDTH 17 0
BBX 12 23 3 1
BITMAP
1E40
33C0
0000
0000
FFE0
FFE0
E000
E000
E000
E000
E000
E000
FFC0
FFC0
E000
E000
E000
E000
E000
E000
E000
FFF0
FFF0
ENDCHAR
STARTCHAR 1EBD
ENCODING 7869
SWIDTH 612 0
DWIDTH 17 0
BBX 13 20 2 0
BITMAP
0060
1E40
13C0
1080
0000
0000
0F80
3FE0
7070
6030
E018
C018
FFF8
FFF8
C000
E000
6000
7830
3FF0
0FC0
ENDCHAR
STARTCHAR 1EBE
ENCODING 7870
SWIDTH 612 0
DWIDTH 17 0
BBX 12 25 3 0
BITMAP
0030
0020
0760
0D80
1880
0000
FFE0
FFE0
E000
E000
E000
E000
E000
E000
FFC0
FFC0
E000
E000
E000
E000
E000
E000
E000
FFF0
FFF0
ENDCHAR
STARTCHAR 1EBF
ENCODING 7871
SWIDTH 612 0
DWIDTH 17 0
BBX 13 21 2 0
BITMAP
0018
0030
0720
0580
08C0
0000
0000
0F80
3FE0
7070
6030
E018
C018
FFF8
FFF8
C000
E000
6000
7830
3FF0
0FC0
ENDCHAR
STARTCHAR 1EC0
ENCODING 7872
SWIDTH 612 0
DWIDTH 17 0
BBX 12 25 3 0
BITMAP
00C0
0040
0760
0D80
1880
0000
FFE0
FFE0
E000
E000
E000
E000
E000
E000
FFC0
FFC0
E000
E000
E000
E000
E000
E000
E000
FFF0
FFF0
ENDCHAR
STARTCHAR 1EC1
ENCODING 7873
SWIDTH 612 0
DWIDTH 17 0
BBX 13 21 2 0
BITMAP
0060
0020
0730
0580
08C0
0000
0000
0F80
3FE0
7070
6030
E018
C018
FFF8
FFF8
C000
E000
6000
7830
3FF0
0FC0
ENDCHAR
STARTCHAR 1EC2
ENCODING 7874
SWIDTH 612 0
DWIDTH 17 0
BBX 12 26 3 0
BITMAP
00E0
0030
0030
0770
0DC0
1880
0000
FFE0
FFE0
E000
E000
E000
E000
E000
E000
FFC0
FFC0
E000
E000
E000
E000
E000
E000
E000
FFF0
FFF0
ENDCHAR
STARTCHAR 1EC3
ENCODING 7875
SWIDTH 612 0
DWIDTH 17 0
BBX 13 22 2 0
BITMAP
0070
0030
0010
0730
0580
08C0
0000
0000
0F80
3FE0
7070
6030
E018
C018
FFF8
FFF8
C000
E000
6000
7830
3FF0
0FC0
ENDCHAR
STARTCHAR 1EC4
ENCODING 7876
SWIDTH 612 0
DWIDTH 17 0
BBX 12 27 3 0
BITMAP
1CC0
1780
1180
0000
0700
0D80
1880
0000
FFE0
FFE0
E000
E000
E000
E000
E000
E000
FFC0
FFC0
E000
E000
E000
E000
E000
E000
E000
FFF0
FFF0
ENDCHAR
STARTCHAR 1EC5
ENCODING 7877
SWIDTH 612 0
DWIDTH 17 0
BBX 13 22 2 0
BITMAP
0E40
1BC0
0000
0700
0580
08C0
0000
0000
0F80
3FE0
7070
6030
E018
C018
FFF8
FFF8
C000
E000
6000
7830
3FF0
0FC0
ENDCHAR
STARTCHAR 1EC6
ENCODING 7878
SWIDTH 612 0
DWIDTH 17 0
BBX 12 29 3 -7
BITMAP
0700
0D80
18C0
0000
FFE0
FFE0
E000
E000
E000
E000
E000
E000
FFC0
FFC0
E000
E000
E000
E000
E000
E000
E000
FFF0
FFF0
0000
0000
0000
0700
0F00
0700
ENDCHAR
STARTCHAR 1EC7
ENCODING 7879
SWIDTH 612 0
DWIDTH 17 0
BBX 13 26 2 -6
BITMAP
0700
0780
0C80
18C0
0000
0000
0F80
3FE0
7070
6030
E018
C018
FFF8
FFF8
C000
E000
6000
7830
3FF0
0FC0
0000
0000
0000
0700
0780
0700
ENDCHAR
STARTCHAR 1EC8
ENCODING 7880
SWIDTH 612 0
DWIDTH 17 0
BBX 11 25 3 0
BITMAP
0C00
0E00
0300
0600
0C00
0000
FFE0
FFE0
0E00
0E00
0E00
0E00
0E00
0E00
0E00
0E00
0E00
0E00
0E00
0E00
0E00
0E00
0E00
FFE0
FFE0
ENDCHAR
STARTCHAR 1EC9
ENCODING 7881
SWIDTH 612 0
DWIDTH 17 0
BBX 10 21 2 0
BITMAP
0380
01C0
00C0
00C0
0180
0000
0000
FF80
FF80
0180
0180
0180
0180
0180
0180
0180
0180
0180
0180
0180
0180
ENDCHAR
STARTCHAR 1ECA
ENCODING 7882
SWIDTH 612 0
DWIDTH 17 0
BBX 11 25 3 -7
BITMAP
FFE0
FFE0
0E00
0E00
0E00
0E00
0E00
0E00
0E00
0E00
0E00
0E00
0E00
0E00
0E00
0E00
0E00
FFE0
FFE0
0000
0000
0000
0E00
0E00
0E00
ENDCHAR
STARTCHAR 1ECB
ENCODING 7883
SWIDTH 612 0
DWIDTH 17 0
BBX 9 26 2 -7
BITMAP
0380
0380
0380
0000
0000
0000
FF80
FF80
0180
0180
0180
0180
0180
0180
0180
0180
0180
0180
0180
0180
0000
0000
0000
0380
0380
0380
ENDCHAR
STARTCHAR 1ECC
ENCODING 7884
SWIDTH 612 0
DWIDTH 17 0
BBX 14 25 1 -6
BITMAP
07C0
1FE0
3C70
3038
7018
601C
600C
E00C
E00C
E00C
E00C
E00C
600C
601C
7018
3038
3C70
1FE0
07C0
0000
0000
0000
0380
0380
0380
ENDCHAR
STARTCHAR 1ECD
ENCODING 7885
SWIDTH 612 0
DWIDTH 17 0
BBX 13 20 2 -6
BITMAP
0F80
3FE0
70F0
E030
E038
C038
C018
C018
C038
C038
E030
70F0
3FE0
0F80
0000
0000
0000
0700
0700
0700
ENDCHAR
STARTCHAR 1ECE
ENCODING 7886
SWIDTH 612 0
DWIDTH 17 0
BBX 14 25 1 0
BITMAP
0300
0380
00C0
0180
0300
0000
07C0
1FE0
3C70
3038
7018
601C
600C
E00C
E00C
E00C
E00C
E00C
600C
601C
7018
3038
3C70
1FE0
07C0
ENDCHAR
STARTCHAR 1ECF
ENCODING 7887
SWIDTH 612 0
DWIDTH 17 0
BBX 13 20 2 0
BITMAP
0700
0380
0180
0700
0000
0000
0F80
3FE0
70F0
E030
E038
C038
C018
C018
C038
C038
E030
70F0
3FE0
0F80
ENDCHAR
STARTCHAR 1ED0
ENCODING 7888
SWIDTH 612 0
DWIDTH 17 0
BBX 14 25 1 0
BITMAP
0008
0018
03B0
06C0
0C60
0000
07C0
1FE0
3C70
3038
7018
601C
600C
E00C
E00C
E00C
E00C
E00C
600C
601C
7018
3038
3C70
1FE0
07C0
ENDCHAR
STARTCHAR 1ED1
ENCODING 7889
SWIDTH 612 0
DWIDTH 17 0
BBX 13 21 2 0
BITMAP
0030
0030
0760
0D80
1880
0000
0000
0F80
3FE0
70F0
E030
E038
C038
C018
C018
C038
C038
E030
70F0
3FE0
0F80
ENDCHAR
STARTCHAR 1ED2
ENCODING 7890
SWIDTH 612 0
DWIDTH 17 0
BBX 14 25 1 0
BITMAP
0060
0020
03B0
06C0
0C60
0000
07C0
1FE0
3C70
3038
7018
601C
600C
E00C
E00C
E00C
E00C
E00C
600C
601C
7018
3038
3C70
1FE0
07C0
ENDCHAR
STARTCHAR 1ED3
ENCODING 7891
SWIDTH 612 0
DWIDTH 17 0
BBX 13 21 2 0
BITMAP
00C0
0060
0730
0D80
1880
0000
0000
0F80
3FE0
70F0
E030
E038
C038
C018
C018
C038
C038
E030
70F0
3FE0
0F80
ENDCHAR
STARTCHAR 1ED4
ENCODING 7892
SWIDTH 612 0
DWIDTH 17 0
BBX 14 26 1 0
BITMAP
0030
0018
0018
0398
06E0
0C60
0000
07C0
1FE0
3C70
3038
7018
601C
600C
E00C
E00C
E00C
E00C
E00C
600C
601C
7018
3038
3C70
1FE0
07C0
ENDCHAR
STARTCHAR 1ED5
ENCODING 7893
SWIDTH 612 0
DWIDTH 17 0
BBX 13 22 2 0
BITMAP
0060
0030
0030
0770
0D80
1880
0000
0000
0F80
3FE0
70F0
E030
E038
C038
C018
C018
C038
C038
E030
70F0
3FE0
0F80
ENDCHAR
STARTCHAR 1ED6
ENCODING 7894
SWIDTH 612 0
DWIDTH 17 0
BBX 14 26 1 0
BITMAP
0F60
09C0
0000
0380
06C0
0C60
0000
07C0
1FE0
3C70
3038
7018
601C
600C
E00C
E00C
E00C
E00C
E00C
600C
601C
7018
3038
3C70
1FE0
07C0
ENDCHAR
STARTCHAR 1ED7
ENCODING 7895
SWIDTH 612 0
DWIDTH 17 0
BBX 13 22 2 0
BITMAP
1EC0
1380
0000
0700
0D80
1880
0000
0000
0F80
3FE0
70F0
E030
E038
C038
C018
C018
C038
C038
E030
70F0
3FE0
0F80
ENDCHAR
STARTCHAR 1ED8
ENCODING 7896
SWIDTH 612 0
DWIDTH 17 0
BBX 14 29 1 -6
BITMAP
0380
06C0
0C60
0000
07C0
1FE0
3C70
3038
7018
601C
600C
E00C
E00C
E00C
E00C
E00C
600C
601C
7018
3038
3C70
1FE0
07C0
0000
0000
0000
0380
0380
0380
ENDCHAR
STARTCHAR 1ED9
ENCODING 7897
SWIDTH 612 0
DWIDTH 17 0
BBX 13 26 2 -6
BITMAP
0700
0F00
0D80
18C0
0000
0000
0F80
3FE0
70F0
E030
E038
C038
C018
C018
C038
C038
E030
70F0
3FE0
0F80
0000
0000
0000
0700
0700
0700
ENDCHAR
STARTCHAR 1EDA
ENCODING 7898
SWIDTH 612 0
DWIDTH 17 0
BBX 15 23 1 0
BITMAP
00C0
0184
0306
0006
07CC
1FF8
3C70
3038
7018
601C
600C
E00C
E00C
E00C
E00C
E00C
600C
601C
7018
3038
3C70
1FE0
07C0
ENDCHAR
STARTCHAR 1EDB
ENCODING 7899
SWIDTH 612 0
DWIDTH 17 0
BBX 13 20 2 0
BITMAP
0180
0300
0300
0608
0018
0018
0FB8
3FE0
70F0
E030
E038
C038
C018
C018
C038
C038
E030
70F0
3FE0
0F80
ENDCHAR
STARTCHAR 1EDC
ENCODING 7900
SWIDTH 612 0
DWIDTH 17 0
BBX 15 23 1 0
BITMAP
0E00
0704
0306
0006
07CC
1FF8
3C70
3038
7018
601C
600C
E00C
E00C
E00C
E00C
E00C
600C
601C
7018
3038
3C70
1FE0
07C0
ENDCHAR
STARTCHAR 1EDD
ENCODING 7901
SWIDTH 612 0
DWIDTH 17 0
BBX 13 20 2 0
BITMAP
0C00
0E00
0600
0308
0018
0018
0FB8
3FE0
70F0
E030
E038
C038
C018
C018
C038
C038
E030
70F0
3FE0
0F80
ENDCHAR
STARTCHAR 1EDE
ENCODING 7902
SWIDTH 612 0
DWIDTH 17 0
BBX 15 25 1 0
BITMAP
0300
0380
00C0
0184
0306
0006
07CC
1FF8
3C70
3038
7018
601C
600C
E00C
E00C
E00C
E00C
E00C
600C
601C
7018
3038
3C70
1FE0
07C0
ENDCHAR
STARTCHAR 1EDF
ENCODING 7903
SWIDTH 612 0
DWIDTH 17 0
BBX 13 20 2 0
BITMAP
0700
0380
0180
0718
0018
0018
0FB8
3FE0
70F0
E030
E038
C038
C018
C018
C038
C038
E030
70F0
3FE0
0F80
ENDCHAR
STARTCHAR 1EE0
ENCODING 7904
SWIDTH 612 0
DWIDTH 17 0
BBX 15 23 1 0
BITMAP
0E20
0FE4
18C6
0006
07CC
1FF8
3C70
3038
7018
601C
600C
E00C
E00C
E00C
E00C
E00C
600C
601C
7018
3038
3C70
1FE0
07C0
ENDCHAR
STARTCHAR 1EE1
ENCODING 7905
SWIDTH 612 0
DWIDTH 17 0
BBX 13 20 2 0
BITMAP
0040
1E40
13C0
3118
0008
0018
0FB8
3FE0
70F0
E030
E038
C038
C018
C018
C038
C038
E030
70F0
3FE0
0F80
ENDCHAR
STARTCHAR 1EE2
ENCODING 7906
SWIDTH 612 0
DWIDTH 17 0
BBX 15 28 1 -6
BITMAP
0004
0006
0006
07CC
1FF8
3C70
3038
7018
601C
600C
E00C
E00C
E00C
E00C
E00C
600C
601C
7018
3038
3C70
1FE0
07C0
0000
0000
0000
0380
0380
0380
ENDCHAR
STARTCHAR 1EE3
ENCODING 7907
SWIDTH 612 0
DWIDTH 17 0
BBX 13 23 2 -6
BITMAP
0008
0018
0018
0FB8
3FE0
70F0
E030
E038
C038
C018
C018
C038
C038
E030
70F0
3FE0
0F80
0000
0000
0000
0700
0700
0700
ENDCHAR
STARTCHAR 1EE4
ENCODING 7908
SWIDTH 612 0
DWIDTH 17 0
BBX 12 25 2 -6
BITMAP
E030
E030
E030
E030
E030
E030
E030
E030
E030
E030
E030
E030
E030
E030
E030
6070
70E0
3FE0
0F80
0000
0000
0000
0700
0700
0700
ENDCHAR
STARTCHAR 1EE5
ENCODING 7909
SWIDTH 612 0
DWIDTH 17 0
BBX 12 20 2 -6
BITMAP
C030
C030
C030
C030
C030
C030
C030
C030
C030
E030
E070
71F0
7FB0
3E30
0000
0000
0000
0780
0780
0300
ENDCHAR
STARTCHAR 1EE6
ENCODING 7910
SWIDTH 612 0
DWIDTH 17 0
BBX 12 25 2 0
BITMAP
0600
0700
0180
0300
0600
0000
E030
E030
E030
E030
E030
E030
E030
E030
E030
E030
E030
E030
E030
E030
E030
6070
70E0
3FE0
0F80
ENDCHAR
STARTCHAR 1EE7
ENCODING 7911
SWIDTH 612 0
DWIDTH 17 0
BBX 12 21 2 0
BITMAP
0600
0700
0100
0300
0600
0000
0000
C030
C030
C030
C030
C030
C030
C030
C030
C030
E030
E070
71F0
7FB0
3E30
ENDCHAR
STARTCHAR 1EE8
ENCODING 7912
SWIDTH 612 0
DWIDTH 17 0
BBX 15 23 2 0
BITMAP
0180
0306
0602
0006
E03C
E030
E030
E030
E030
E030
E030
E030
E030
E030
E030
E030
E030
E030
E030
6070
70E0
3FE0
0F80
ENDCHAR
STARTCHAR 1EE9
ENCODING 7913
SWIDTH 612 0
DWIDTH 17 0
BBX 15 20 2 0
BITMAP
0180
0300
0600
060C
0006
000C
C038
C030
C030
C030
C030
C030
C030
C030
C030
E030
E070
71F0
7FB0
3E30
ENDCHAR
STARTCHAR 1EEA
ENCODING 7914
SWIDTH 612 0
DWIDTH 17 0
BBX 15 23 2 0
BITMAP
1C00
0E06
0602
0006
E03C
E030
E030
E030
E030
E030
E030
E030
E030
E030
E030
E030
E030
E030
E030
6070
70E0
3FE0
0F80
ENDCHAR
STARTCHAR 1EEB
ENCODING 7915
SWIDTH 612 0
DWIDTH 17 0
BBX 15 20 2 0
BITMAP
1C00
0C00
0600
030C
0006
000C
C038
C030
C030
C030
C030
C030
C030
C030
C030
E030
E070
71F0
7FB0
3E30
ENDCHAR
STARTCHAR 1EEC
ENCODING 7916
SWIDTH 612 0
DWIDTH 17 0
BBX 15 25 2 0
BITMAP
0600
0700
0182
0306
0602
0006
E03C
E030
E030
E030
E030
E030
E030
E030
E030
E030
E030
E030
E030
E030
E030
6070
70E0
3FE0
0F80
ENDCHAR
STARTCHAR 1EED
ENCODING 7917
SWIDTH 612 0
DWIDTH 17 0
BBX 15 21 2 0
BITMAP
0600
0700
0100
0304
0606
0006
000C
C038
C030
C030
C030
C030
C030
C030
C030
C030
E030
E070
71F0
7FB0
3E30
ENDCHAR
STARTCHAR 1EEE
ENCODING 7918
SWIDTH 612 0
DWIDTH 17 0
BBX 15 24 2 0
BITMAP
0040
1E42
33C6
0002
0006
E03C
E030
E030
E030
E030
E030
E030
E030
E030
E030
E030
E030
E030
E030
E030
6070
70E0
3FE0
0F80
ENDCHAR
STARTCHAR 1EEF
ENCODING 7919
SWIDTH 612 0
DWIDTH 17 0
BBX 15 20 2 0
BITMAP
0040
1EC0
3380
3106
0006
000C
C038
C030
C030
C030
C030
C030
C030
C030
C030
E030
E070
71F0
7FB0
3E30
ENDCHAR
STARTCHAR 1EF0
ENCODING 7920
SWIDTH 612 0
DWIDTH 17 0
BBX 15 29 2 -6
BITMAP
0002
0006
0002
0006
E03C
E030
E030
E030
E030
E030
E030
E030
E030
E030
E030
E030
E030
E030
E030
6070
70E0
3FE0
0F80
0000
0000
0000
0700
0700
0700
ENDCHAR
STARTCHAR 1EF1
ENCODING 7921
SWIDTH 612 0
DWIDTH 17 0
BBX 15 24 2 -6
BITMAP
0004
0006
0006
000C
C038
C030
C030
C030
C030
C030
C030
C030
C030
E030
E070
71F0
7FB0
3E30
0000
0000
0200
0700
0700
0700
ENDCHAR
STARTCHAR 1EF2
ENCODING 7922
SWIDTH 612 0
DWIDTH 17 0
BBX 14 23 1 0
BITMAP
0E00
0700
0300
0000
E00C
600C
7018
3018
3830
1830
1C60
0C60
0EC0
06C0
0780
0380
0380
0380
0380
0380
0380
0380
0380
ENDCHAR
STARTCHAR 1EF3
ENCODING 7923
SWIDTH 612 0
DWIDTH 17 0
BBX 13 26 2 -6
BITMAP
0C00
0E00
0600
0300
0000
0000
C018
C018
E030
6030
7070
3060
3060
18C0
18C0
0CC0
0D80
0D80
0700
0700
0700
0600
0E00
0C00
F800
F000
ENDCHAR
STARTCHAR 1EF4
ENCODING 7924
SWIDTH 612 0
DWIDTH 17 0
BBX 14 25 1 -7
BITMAP
E00C
600C
7018
3018
3830
1830
1C60
0C60
0EC0
06C0
0780
0380
0380
0380
0380
0380
0380
0380
0380
0000
0000
0000
0380
0380
0380
ENDCHAR
STARTCHAR 1EF5
ENCODING 7925
SWIDTH 612 0
DWIDTH 17 0
BBX 13 20 2 -7
BITMAP
C018
C018
E030
6030
7070
3060
3060
18C0
18C0
0CC0
0D80
0D80
0700
0700
0700
0600
0E00
0C70
F878
F070
ENDCHAR
STARTCHAR 1EF6
ENCODING 7926
SWIDTH 612 0
DWIDTH 17 0
BBX 14 25 1 0
BITMAP
0300
0380
00C0
0180
0300
0000
E00C
600C
7018
3018
3830
1830
1C60
0C60
0EC0
06C0
0780
0380
0380
0380
0380
0380
0380
0380
0380
ENDCHAR
STARTCHAR 1EF7
ENCODING 7927
SWIDTH 612 0
DWIDTH 17 0
BBX 13 27 2 -6
BITMAP
0700
0380
0180
0180
0300
0000
0000
C018
C018
E030
6030
7070
3060
3060
18C0
18C0
0CC0
0D80
0D80
0700
0700
0700
0600
0E00
0C00
F800
F000
ENDCHAR
STARTCHAR 1EF8
ENCODING 7928
SWIDTH 612 0
DWIDTH 17 0
BBX 14 24 1 0
BITMAP
0020
0F20
19E0
0000
0000
E00C
600C
7018
3018
3830
1830
1C60
0C60
0EC0
06C0
0780
0380
0380
0380
0380
0380
0380
0380
0380
ENDCHAR
STARTCHAR 1EF9
ENCODING 7929
SWIDTH 612 0
DWIDTH 17 0
BBX 13 26 2 -6
BITMAP
0040
1E40
13C0
1000
0000
0000
C018
C018
E030
6030
7070
3060
3060
18C0
18C0
0CC0
0D80
0D80
0700
0700
0700
0600
0E00
0C00
F800
F000
ENDCHAR
STARTCHAR 2007
ENCODING 8199
SWIDTH 612 0
DWIDTH 17 0
BBX 0 0 0 0
BITMAP
ENDCHAR
STARTCHAR 2012
ENCODING 8210
SWIDTH 612 0
DWIDTH 17 0
BBX 12 2 2 7
BITMAP
FFF0
FFF0
ENDCHAR
STARTCHAR 2013
ENCODING 8211
SWIDTH 612 0
DWIDTH 17 0
BBX 12 2 2 7
BITMAP
FFF0
FFF0
ENDCHAR
STARTCHAR 2014
ENCODING 8212
SWIDTH 612 0
DWIDTH 17 0
BBX 15 2 1 7
BITMAP
FFFE
FFFE
ENDCHAR
STARTCHAR 2015
ENCODING 8213
SWIDTH 612 0
DWIDTH 17 0
BBX 15 2 1 7
BITMAP
FFFE
FFFE
ENDCHAR
STARTCHAR 2018
ENCODING 8216
SWIDTH 612 0
DWIDTH 17 0
BBX 4 9 6 11
BITMAP
30
70
60
C0
C0
F0
F0
F0
70
ENDCHAR
STARTCHAR 2019
ENCODING 8217
SWIDTH 612 0
DWIDTH 17 0
BBX 5 9 6 9
BITMAP
70
F0
F8
78
18
10
30
60
C0
ENDCHAR
STARTCHAR 201A
ENCODING 8218
SWIDTH 612 0
DWIDTH 17 0
BBX 5 9 6 -7
BITMAP
70
F0
F8
78
18
10
30
60
C0
ENDCHAR
STARTCHAR 201C
ENCODING 8220
SWIDTH 612 0
DWIDTH 17 0
BBX 11 9 3 11
BITMAP
30E0
61C0
C180
C300
C300
F3C0
F3C0
F3C0
71C0
ENDCHAR
STARTCHAR 201D
ENCODING 8221
SWIDTH 612 0
DWIDTH 17 0
BBX 11 9 3 9
BITMAP
71C0
F3E0
FBE0
79E0
1060
3060
30C0
61C0
C380
ENDCHAR
STARTCHAR 201E
ENCODING 8222
SWIDTH 612 0
DWIDTH 17 0
BBX 11 9 3 -7
BITMAP
71C0
F3E0
FBE0
79E0
1060
3060
30C0
61C0
C380
ENDCHAR
STARTCHAR 2020
ENCODING 8224
SWIDTH 612 0
DWIDTH 17 0
BBX 9 22 4 -2
BITMAP
1800
1800
1800
1800
FF80
FF80
1800
1800
1800
1800
1800
1800
1800
1800
1800
1800
1800
1800
1800
1800
1800
1800
ENDCHAR
STARTCHAR 2021
ENCODING 8225
SWIDTH 612 0
DWIDTH 17 0
BBX 9 22 4 -2
BITMAP
1800
1800
1800
1800
FF80
FF80
1800
1800
1800
1800
1800
1800
1800
1800
1800
1800
FF80
FF80
1800
1800
1800
1800
ENDCHAR
STARTCHAR 2022
ENCODING 8226
SWIDTH 612 0
DWIDTH 17 0
BBX 8 8 4 4
BITMAP
3E
7F
FF
FF
FF
FF
7F
3C
ENDCHAR
STARTCHAR 2026
ENCODING 8230
SWIDTH 612 0
DWIDTH 17 0
BBX 15 4 1 0
BITMAP
E39C
F79E
F79E
638C
ENDCHAR
STARTCHAR 2030
ENCODING 8240
SWIDTH 612 0
DWIDTH 17 0
BBX 15 18 1 0
BITMAP
3800
6400
C600
C600
C606
441E
3CF0
0380
0E00
3000
0000
7C78
44CC
C684
C684
C6C4
6CCC
3878
ENDCHAR
STARTCHAR 2032
ENCODING 8242
SWIDTH 612 0
DWIDTH 17 0
BBX 3 7 7 12
BITMAP
60
60
60
C0
C0
C0
C0
ENDCHAR
STARTCHAR 2033
ENCODING 8243
SWIDTH 612 0
DWIDTH 17 0
BBX 7 7 5 12
BITMAP
C6
C6
C6
C6
C6
84
84
ENDCHAR
STARTCHAR 2039
ENCODING 8249
SWIDTH 612 0
DWIDTH 17 0
BBX 5 11 5 2
BITMAP
08
18
38
70
E0
C0
E0
70
38
18
08
ENDCHAR
STARTCHAR 203A
ENCODING 8250
SWIDTH 612 0
DWIDTH 17 0
BBX 5 11 6 2
BITMAP
80
C0
60
30
18
18
18
30
60
C0
C0
ENDCHAR
STARTCHAR 2044
ENCODING 8260
SWIDTH 612 0
DWIDTH 17 0
BBX 15 16 1 1
BITMAP
0006
000C
0018
0030
0060
0040
0000
0000
0000
0000
0C00
1800
3000
6000
C000
4000
ENDCHAR
STARTCHAR 2070
ENCODING 8304
SWIDTH 612 0
DWIDTH 17 0
BBX 8 9 4 12
BITMAP
3C
76
63
43
C3
43
63
76
3C
ENDCHAR
STARTCHAR 2071
ENCODING 8305
SWIDTH 612 0
DWIDTH 17 0
BBX 6 14 5 7
BITMAP
08
1C
0C
00
00
FC
0C
0C
0C
0C
0C
0C
0C
0C
ENDCHAR
STARTCHAR 2074
ENCODING 8308
SWIDTH 612 0
DWIDTH 17 0
BBX 7 8 5 12
BITMAP
1C
3C
2C
6C
CC
FE
0C
0C
ENDCHAR
STARTCHAR 2075
ENCODING 8309
SWIDTH 612 0
DWIDTH 17 0
BBX 7 9 5 12
BITMAP
7C
7C
40
7C
4C
06
06
EC
78
ENDCHAR
STARTCHAR 2076
ENCODING 8310
SWIDTH 612 0
DWIDTH 17 0
BBX 7 9 5 12
BITMAP
3C
74
C0
C0
FC
C6
C6
6E
3C
ENDCHAR
STARTCHAR 2077
ENCODING 8311
SWIDTH 612 0
DWIDTH 17 0
BBX 7 8 5 12
BITMAP
FE
0C
08
18
10
30
30
30
ENDCHAR
STARTCHAR 2078
ENCODING 8312
SWIDTH 612 0
DWIDTH 17 0
BBX 7 9 5 12
BITMAP
78
CC
C6
6C
78
CE
86
CE
7C
ENDCHAR
STARTCHAR 2079
ENCODING 8313
SWIDTH 612 0
DWIDTH 17 0
BBX 7 9 5 12
BITMAP
78
FC
86
C6
FE
06
0C
DC
78
ENDCHAR
STARTCHAR 207D
ENCODING 8317
SWIDTH 612 0
DWIDTH 17 0
BBX 3 13 7 10
BITMAP
20
60
C0
C0
C0
80
80
80
C0
C0
40
60
20
ENDCHAR
STARTCHAR 207E
ENCODING 8318
SWIDTH 612 0
DWIDTH 17 0
BBX 4 13 6 10
BITMAP
C0
E0
60
30
30
30
30
30
30
30
60
E0
C0
ENDCHAR
STARTCHAR 207F
ENCODING 8319
SWIDTH 612 0
DWIDTH 17 0
BBX 8 9 5 8
BITMAP
BE
E7
C3
C3
C3
C3
C3
C3
C3
ENDCHAR
STARTCHAR 2080
ENCODING 8320
SWIDTH 612 0
DWIDTH 17 0
BBX 8 9 4 -5
BITMAP
3C
76
63
43
C3
43
63
76
3C
ENDCHAR
STARTCHAR 2081
ENCODING 8321
SWIDTH 612 0
DWIDTH 17 0
BBX 4 8 6 -4
BITMAP
70
F0
30
30
30
30
30
30
ENDCHAR
STARTCHAR 2082
ENCODING 8322
SWIDTH 612 0
DWIDTH 17 0
BBX 7 8 5 -4
BITMAP
78
FC
0C
0C
0C
18
70
FE
ENDCHAR
STARTCHAR 2083
ENCODING 8323
SWIDTH 612 0
DWIDTH 17 0
BBX 7 9 5 -5
BITMAP
78
DC
0C
0C
38
0C
06
EC
78
ENDCHAR
STARTCHAR 2084
ENCODING 8324
SWIDTH 612 0
DWIDTH 17 0
BBX 7 9 5 -5
BITMAP
0C
1C
3C
2C
4C
CC
FE
0C
0C
ENDCHAR
STARTCHAR 2085
ENCODING 8325
SWIDTH 612 0
DWIDTH 17 0
BBX 7 9 5 -5
BITMAP
7C
7C
40
7C
4C
06
06
EC
78
ENDCHAR
STARTCHAR 2086
ENCODING 8326
SWIDTH 612 0
DWIDTH 17 0
BBX 7 9 5 -5
BITMAP
3C
74
C0
C0
FC
C6
C6
6E
3C
ENDCHAR
STARTCHAR 2087
ENCODING 8327
SWIDTH 612 0
DWIDTH 17 0
BBX 7 8 5 -4
BITMAP
FE
04
0C
18
18
10
30
30
ENDCHAR
STARTCHAR 2088
ENCODING 8328
SWIDTH 612 0
DWIDTH 17 0
BBX 7 9 5 -5
BITMAP
78
CC
C6
6C
78
CE
86
CE
7C
ENDCHAR
STARTCHAR 2089
ENCODING 8329
SWIDTH 612 0
DWIDTH 17 0
BBX 7 9 5 -5
BITMAP
78
FC
86
C6
FE
06
0C
DC
78
ENDCHAR
STARTCHAR 208D
ENCODING 8333
SWIDTH 612 0
DWIDTH 17 0
BBX 3 13 7 -7
BITMAP
20
60
C0
C0
C0
80
80
80
C0
C0
40
60
20
ENDCHAR
STARTCHAR 208E
ENCODING 8334
SWIDTH 612 0
DWIDTH 17 0
BBX 4 13 6 -7
BITMAP
C0
E0
60
30
30
30
30
30
30
30
60
E0
C0
ENDCHAR
STARTCHAR 2094
ENCODING 8340
SWIDTH 612 0
DWIDTH 17 0
BBX 8 9 4 7
BITMAP
7E
43
03
01
FF
C1
43
67
3C
ENDCHAR
STARTCHAR 20A1
ENCODING 8353
SWIDTH 612 0
DWIDTH 17 0
BBX 12 24 3 -3
BITMAP
0240
0240
0240
0FC0
1FE0
3EF0
7480
E480
C480
C480
C480
C580
C500
C500
C900
C900
E900
7900
7970
3FE0
0FC0
0A00
1A00
1200
ENDCHAR
STARTCHAR 20A4
ENCODING 8356
SWIDTH 612 0
DWIDTH 17 0
BBX 13 18 2 0
BITMAP
07C0
1FF0
1C30
3800
3000
3000
3000
FFC0
1800
1800
FFC0
0C00
0C00
1800
1800
3000
FFF8
FFF8
ENDCHAR
STARTCHAR 20A6
ENCODING 8358
SWIDTH 612 0
DWIDTH 17 0
BBX 14 18 1 0
BITMAP
3830
3830
3C30
3C30
3630
3630
3630
FFFC
3330
3110
FFFC
3190
30D0
30D0
3050
3070
3070
3030
ENDCHAR
STARTCHAR 20A7
ENCODING 8359
SWIDTH 612 0
DWIDTH 17 0
BBX 14 18 1 0
BITMAP
3F80
3FE0
3070
3030
7FFC
FFFC
3038
3030
3070
3FE0
3F80
3000
3000
3000
3000
3000
3000
3000
ENDCHAR
STARTCHAR 20AB
ENCODING 8363
SWIDTH 612 0
DWIDTH 17 0
BBX 12 18 3 0
BITMAP
00C0
00C0
0FF0
00C0
00C0
1EC0
7FC0
60C0
C0C0
C0C0
C0C0
C0C0
61C0
7FC0
3EC0
0000
0000
FFE0
ENDCHAR
STARTCHAR 20AC
ENCODING 8364
SWIDTH 612 0
DWIDTH 17 0
BBX 14 18 2 0
BITMAP
03E0
0FF8
1C18
1800
3800
3000
7000
FFF0
7000
7000
FFE0
7000
3000
3000
3808
1C1C
0FF8
03E0
ENDCHAR
STARTCHAR 20B1
ENCODING 8369
SWIDTH 612 0
DWIDTH 17 0
BBX 14 18 1 0
BITMAP
3FC0
3FE0
3030
FFFC
3038
3038
FFFC
3030
3070
3FE0
3F80
3000
3000
3000
3000
3000
3000
3000
ENDCHAR
STARTCHAR 20B2
ENCODING 8370
SWIDTH 612 0
DWIDTH 17 0
BBX 13 24 2 -3
BITMAP
0100
0100
0100
07C0
1FF0
3830
3000
7000
6000
6000
E000
E000
E1F8
E1F8
E018
6018
7018
7018
3838
1FF0
07C0
0100
0100
0100
ENDCHAR
STARTCHAR 20B5
ENCODING 8373
SWIDTH 612 0
DWIDTH 17 0
BBX 12 24 3 -3
BITMAP
0300
0300
0300
0FC0
1FE0
3B70
7300
E300
C300
C300
C300
C300
C300
C300
C300
C300
E300
6300
3370
3FE0
0FC0
0300
0300
0300
ENDCHAR
STARTCHAR 20B9
ENCODING 8377
SWIDTH 612 0
DWIDTH 17 0
BBX 12 18 3 0
BITMAP
FFF0
FE00
0380
0180
FFF0
01C0
0180
0380
0780
FF00
FC00
1C00
0C00
0E00
0700
0380
0180
00C0
ENDCHAR
STARTCHAR 20BA
ENCODING 8378
SWIDTH 612 0
DWIDTH 17 0
BBX 13 18 2 0
BITMAP
3800
3800
3840
39C0
3F00
3C00
F8C0
BF80
3E00
7800
F818
3818
3818
3830
3870
39E0
3FC0
3E00
ENDCHAR
STARTCHAR 2113
ENCODING 8467
SWIDTH 612 0
DWIDTH 17 0
BBX 10 20 4 0
BITMAP
0F00
1F80
3980
3180
3180
3180
3180
3180
3300
3700
3600
3C00
3800
7000
F000
B000
3000
3880
1FC0
0F00
ENDCHAR
STARTCHAR 2117
ENCODING 8471
SWIDTH 612 0
DWIDTH 17 0
BBX 15 18 1 0
BITMAP
0FC0
1830
2018
600C
4FC4
CCE4
8C66
8C66
8C62
8FC6
8C06
8C04
CC04
4C0C
6008
3018
1870
07C0
ENDCHAR
STARTCHAR 2120
ENCODING 8480
SWIDTH 612 0
DWIDTH 17 0
BBX 15 9 1 10
BITMAP
7986
D9C6
814A
C1CA
71BA
19B2
09B2
8982
F982
ENDCHAR
STARTCHAR 2122
ENCODING 8482
SWIDTH 612 0
DWIDTH 17 0
BBX 16 9 0 10
BITMAP
FEC3
FEE3
10A5
10E5
10DD
10D9
10D9
10C1
10C1
ENDCHAR
STARTCHAR 2126
ENCODING 8486
SWIDTH 612 0
DWIDTH 17 0
BBX 17 19 0 0
BITMAP
07E000
0FF800
3C3C00
380E00
700600
600700
600300
E00300
E00300
E00300
E00300
600300
600700
700600
300600
380C00
1C1800
FE3F80
FE3F80
ENDCHAR
STARTCHAR 212E
ENCODING 8494
SWIDTH 612 0
DWIDTH 17 0
BBX 15 19 1 0
BITMAP
07C0
1820
2010
6018
601C
E01C
E01E
E01E
E01E
FFFE
E000
E000
E000
E000
6000
6008
2018
1020
0FC0
ENDCHAR
STARTCHAR 2153
ENCODING 8531
SWIDTH 612 0
DWIDTH 17 0
BBX 15 18 1 0
BITMAP
1804
7806
180C
1818
1830
1860
1840
1800
1800
0078
00DC
0C0C
180C
3038
600C
C004
00DC
0078
ENDCHAR
STARTCHAR 2154
ENCODING 8532
SWIDTH 612 0
DWIDTH 17 0
BBX 14 18 1 0
BITMAP
7800
FC04
060C
0418
0C30
1860
3040
FE00
0000
0078
00DC
0C0C
180C
3038
600C
C004
00DC
0078
ENDCHAR
STARTCHAR 215B
ENCODING 8539
SWIDTH 612 0
DWIDTH 17 0
BBX 15 18 1 0
BITMAP
1804
7806
180C
1818
1830
1860
1840
1800
1800
0078
00CC
0CC4
18EC
3078
60CC
C086
00CC
0078
ENDCHAR
STARTCHAR 215C
ENCODING 8540
SWIDTH 612 0
DWIDTH 17 0
BBX 15 18 1 0
BITMAP
7800
6C04
060C
0C18
1C30
0620
0640
EE00
7C00
0078
00CC
0CC4
18EC
3078
60CC
C086
40CC
0078
ENDCHAR
STARTCHAR 215D
ENCODING 8541
SWIDTH 612 0
DWIDTH 17 0
BBX 15 18 1 0
BITMAP
7E04
7E06
600C
7C18
4630
0660
0640
EE00
7C00
0078
00CC
0CC4
18EC
3078
60CC
C086
40CC
0078
ENDCHAR
STARTCHAR 215E
ENCODING 8542
SWIDTH 612 0
DWIDTH 17 0
BBX 15 18 1 0
BITMAP
FE04
0606
0C0C
0818
1830
1860
1040
3000
3000
0078
00CC
0CC4
18EC
3078
60CC
C086
00CC
0078
ENDCHAR
STARTCHAR 2190
ENCODING 8592
SWIDTH 612 0
DWIDTH 17 0
BBX 15 14 1 0
BITMAP
0300
0600
0C00
1800
3000
6000
FFFE
FFFE
6000
3000
1800
0E00
0700
0300
ENDCHAR
STARTCHAR 2191
ENCODING 8593
SWIDTH 612 0
DWIDTH 17 0
BBX 14 15 1 -1
BITMAP
0300
0780
0FC0
0F60
1B30
3318
630C
C304
0300
0300
0300
0300
0300
0300
0300
ENDCHAR
STARTCHAR 2192
ENCODING 8594
SWIDTH 612 0
DWIDTH 17 0
BBX 15 14 1 0
BITMAP
0180
01C0
00E0
0070
0038
001C
FFFE
FFFE
001C
0038
0070
00E0
01C0
0100
ENDCHAR
STARTCHAR 2193
ENCODING 8595
SWIDTH 612 0
DWIDTH 17 0
BBX 15 15 1 -1
BITMAP
0300
0300
0300
0300
0300
0300
0304
C30E
631C
3338
1B30
0F60
07C0
0380
0100
ENDCHAR
STARTCHAR 2202
ENCODING 8706
SWIDTH 612 0
DWIDTH 17 0
BBX 13 19 2 0
BITMAP
0F80
1FC0
10E0
0070
0030
0030
0030
0F38
3FF8
70F0
6070
E030
C030
C030
C060
E0E0
71C0
3F80
1F00
ENDCHAR
STARTCHAR 2206
ENCODING 8710
SWIDTH 612 0
DWIDTH 17 0
BBX 15 19 1 0
BITMAP
0380
0780
07C0
06C0
0EC0
0CE0
0C60
1C60
1870
1830
3830
3038
3018
7018
601C
600C
E00C
FFFE
FFFE
ENDCHAR
STARTCHAR 220F
ENCODING 8719
SWIDTH 612 0
DWIDTH 17 0
BBX 14 21 1 -3
BITMAP
FFFC
FFFC
E00C
E00C
E00C
E00C
E00C
E00C
E00C
E00C
E00C
E00C
E00C
E00C
E00C
E00C
E00C
E00C
E00C
E00C
E00C
ENDCHAR
STARTCHAR 2211
ENCODING 8721
SWIDTH 612 0
DWIDTH 17 0
BBX 13 21 2 -3
BITMAP
FFF0
FFF0
6000
3000
3800
1C00
0C00
0E00
0700
0300
0180
0300
0700
0E00
0C00
1800
3800
7000
6000
FFF8
FFF8
ENDCHAR
STARTCHAR 2212
ENCODING 8722
SWIDTH 612 0
DWIDTH 17 0
BBX 12 2 2 8
BITMAP
FFF0
FFF0
ENDCHAR
STARTCHAR 2215
ENCODING 8725
SWIDTH 612 0
DWIDTH 17 0
BBX 15 16 1 1
BITMAP
0006
000C
0018
0030
0060
0040
0000
0000
0000
0000
0C00
1800
3000
6000
C000
4000
ENDCHAR
STARTCHAR 2219
ENCODING 8729
SWIDTH 612 0
DWIDTH 17 0
BBX 4 5 6 7
BITMAP
70
F0
F0
F0
60
ENDCHAR
STARTCHAR 221A
ENCODING 8730
SWIDTH 612 0
DWIDTH 17 0
BBX 14 26 2 -3
BITMAP
000C
000C
000C
0008
0008
0018
0018
0010
0010
0030
0030
0020
7020
F060
1060
1860
1840
08C0
0CC0
0CC0
0480
0680
0780
0380
0300
0300
ENDCHAR
STARTCHAR 221E
ENCODING 8734
SWIDTH 612 0
DWIDTH 17 0
BBX 17 11 0 4
BITMAP
001C00
3C3E00
7E6300
E7C180
C38180
C18180
C38180
C2C380
7EE300
387F00
003C00
ENDCHAR
STARTCHAR 222B
ENCODING 8747
SWIDTH 612 0
DWIDTH 17 0
BBX 7 26 5 -4
BITMAP
0E
1E
18
30
30
30
30
30
30
30
30
38
18
18
18
18
18
18
18
18
18
18
18
18
F0
E0
ENDCHAR
STARTCHAR 2248
ENCODING 8776
SWIDTH 612 0
DWIDTH 17 0
BBX 12 10 2 4
BITMAP
3C10
7E30
47F0
C1E0
0000
0000
3C10
7E30
47F0
C1C0
ENDCHAR
STARTCHAR 2260
ENCODING 8800
SWIDTH 612 0
DWIDTH 17 0
BBX 12 15 2 1
BITMAP
0060
0060
00C0
FFF0
FFF0
0300
0300
0600
0400
FFF0
FFF0
1800
3000
2000
6000
ENDCHAR
STARTCHAR 2264
ENCODING 8804
SWIDTH 612 0
DWIDTH 17 0
BBX 12 14 2 0
BITMAP
0030
01F0
07C0
3E00
F000
F000
3E00
0FC0
01F0
0030
0000
0000
FFF0
FFF0
ENDCHAR
STARTCHAR 2265
ENCODING 8805
SWIDTH 612 0
DWIDTH 17 0
BBX 12 14 2 0
BITMAP
C000
F800
1F00
07E0
00F0
0070
03E0
1F00
FC00
E000
0000
0000
FFF0
FFF0
ENDCHAR
STARTCHAR 25A0
ENCODING 9632
SWIDTH 612 0
DWIDTH 17 0
BBX 5 6 6 4
BITMAP
F8
F8
F8
F8
F8
F8
ENDCHAR
STARTCHAR 25B2
ENCODING 9650
SWIDTH 612 0
DWIDTH 17 0
BBX 14 14 1 1
BITMAP
0100
0100
0380
0380
07C0
07C0
0FE0
1FE0
1FF0
3FF0
3FF8
7FF8
7FFC
FFFC
ENDCHAR
STARTCHAR 25B3
ENCODING 9651
SWIDTH 612 0
DWIDTH 17 0
BBX 14 14 1 1
BITMAP
0100
0100
0380
0380
06C0
04C0
0C60
1860
1830
3030
3018
6018
7FFC
FFFC
ENDCHAR
STARTCHAR 25B6
ENCODING 9654
SWIDTH 612 0
DWIDTH 17 0
BBX 13 14 2 0
BITMAP
8000
E000
F800
FE00
FF80
FFC0
FFF0
FFF8
FFF0
FFC0
FF00
FC00
F000
C000
ENDCHAR
STARTCHAR 25B7
ENCODING 9655
SWIDTH 612 0
DWIDTH 17 0
BBX 13 14 2 0
BITMAP
8000
E000
F800
DE00
C780
C1C0
C070
C038
C0F0
C3C0
CF00
FC00
F000
C000
ENDCHAR
STARTCHAR 25BC
ENCODING 9660
SWIDTH 612 0
DWIDTH 17 0
BBX 15 14 1 1
BITMAP
FFFE
7FFC
7FF8
3FF8
3FF0
1FF0
1FE0
0FE0
0FC0
07C0
0780
0380
0300
0100
ENDCHAR
STARTCHAR 25BD
ENCODING 9661
SWIDTH 612 0
DWIDTH 17 0
BBX 15 14 1 1
BITMAP
FFFE
7FFC
600C
3018
3010
1830
1860
0C60
0CC0
06C0
0780
0380
0300
0100
ENDCHAR
STARTCHAR 25C0
ENCODING 9664
SWIDTH 612 0
DWIDTH 17 0
BBX 14 15 1 0
BITMAP
0004
001C
007C
01FC
07FC
1FFC
7FFC
FFFC
3FFC
0FFC
03FC
00FC
003C
000C
0004
ENDCHAR
STARTCHAR 25C1
ENCODING 9665
SWIDTH 612 0
DWIDTH 17 0
BBX 14 15 1 0
BITMAP
0004
001C
007C
01EC
078C
1E0C
780C
F00C
3C0C
0F0C
03CC
00FC
003C
000C
0004
ENDCHAR
STARTCHAR 25C6
ENCODING 9670
SWIDTH 612 0
DWIDTH 17 0
BBX 7 8 5 3
BITMAP
10
38
7C
FE
FE
7C
38
10
ENDCHAR
STARTCHAR 25C9
ENCODING 9673
SWIDTH 612 0
DWIDTH 17 0
BBX 10 10 3 2
BITMAP
3F00
6180
40C0
CC40
CE40
CE40
40C0
60C0
3B80
1F00
ENDCHAR
STARTCHAR 25CA
ENCODING 9674
SWIDTH 612 0
DWIDTH 17 0
BBX 11 19 3 0
BITMAP
0E00
0E00
1B00
1B00
3180
3180
6180
60C0
C0C0
C060
C0C0
60C0
60C0
3180
3180
1B00
1B00
0E00
0E00
ENDCHAR
STARTCHAR 2610
ENCODING 9744
SWIDTH 612 0
DWIDTH 17 0
BBX 18 19 -1 0
BITMAP
7FFFC0
FFFFC0
8000C0
8000C0
8000C0
8000C0
8000C0
8000C0
8000C0
8000C0
8000C0
8000C0
8000C0
8000C0
8000C0
8000C0
8000C0
8000C0
FFFF80
ENDCHAR
STARTCHAR 2611
ENCODING 9745
SWIDTH 612 0
DWIDTH 17 0
BBX 20 22 -1 0
BITMAP
000030
000070
0000E0
7FFFC0
FFFFC0
8003C0
8003C0
8006C0
8006C0
800CC0
841CC0
8C18C0
8618C0
8630C0
8330C0
8360C0
81E0C0
81E0C0
80C0C0
8000C0
8000C0
FFFF80
ENDCHAR
STARTCHAR 266A
ENCODING 9834
SWIDTH 612 0
DWIDTH 17 0
BBX 13 20 2 0
BITMAP
0300
0300
03C0
03E0
03F0
0330
0318
0318
0318
0318
0310
0300
0300
0300
0300
3F00
7F00
FE00
FE00
7C00
ENDCHAR
STARTCHAR 2713
ENCODING 10003
SWIDTH 612 0
DWIDTH 17 0
BBX 17 20 0 -1
BITMAP
000100
000380
000700
000600
000C00
001800
003800
003000
006000
006000
00C000
C0C000
E18000
618000
330000
330000
120000
1E0000
1E0000
0C0000
ENDCHAR
STARTCHAR 2752
ENCODING 10066
SWIDTH 612 0
DWIDTH 17 0
BBX 7 8 5 3
BITMAP
7E
FE
86
86
86
86
86
FC
ENDCHAR
STARTCHAR FB01
ENCODING 64257
SWIDTH 612 0
DWIDTH 17 0
BBX 13 20 1 0
BITMAP
0F38
1F38
3838
3810
3800
3800
FE38
FE38
3838
3838
3838
3838
3838
3838
3838
3838
3838
3838
3838
3838
ENDCHAR
STARTCHAR FB02
ENCODING 64258
SWIDTH 612 0
DWIDTH 17 0
BBX 13 20 2 0
BITMAP
1F60
3E60
3060
7060
7060
7060
FE60
FE60
7060
7060
7060
7060
7060
7060
7060
7060
7060
7060
7078
7038
ENDCHAR
ENDFONT
